<svg width="90" height="90" viewBox="0 0 90 90" fill="none" xmlns="http://www.w3.org/2000/svg">
<path d="M67.5 45.9C68.3437 54.9 68.625 55.575 79.875 55.8C68.625 56.475 67.7812 56.7 67.5 65.7C66.6562 56.7 66.375 56.025 55.125 55.8C66.375 55.35 66.9375 54.9 67.5 45.9Z" fill="#1F1F1F"/>
<path d="M45.5625 61.875C43.5938 38.025 42.75 36.45 12.6562 35.55C42.4688 33.975 44.4375 33.3 45.5625 9.22498C47.5313 33.075 48.375 34.65 78.4688 35.55C48.375 36.45 46.4063 38.025 45.5625 61.875Z" fill="#1F1F1F"/>
<path d="M66.9375 28.575C66.0937 19.575 65.8125 18.9 54.5625 18.675C65.8125 18 66.6562 17.775 66.9375 8.77502C67.7812 17.775 68.0625 18.45 79.3125 18.675C67.7813 19.125 67.5 19.575 66.9375 28.575Z" fill="#1F1F1F"/>
<path d="M28.9688 54.9C28.6875 50.175 28.125 49.9501 22.5 49.7251C28.4062 49.5001 28.6875 49.05 28.9688 44.55C29.25 49.275 29.8125 49.5001 35.4375 49.7251C29.8125 50.4001 29.25 50.4 28.9688 54.9Z" fill="#1F1F1F"/>
<path d="M23.3438 30.6C23.0625 25.875 22.5 25.65 16.875 25.425C22.5 24.975 23.0625 24.75 23.3438 20.025C23.625 24.75 24.1875 24.975 29.8125 25.2C23.625 25.875 23.625 25.875 23.3438 30.6Z" fill="#1F1F1F"/>
</svg>
