<svg width="1037" height="30" viewBox="0 0 1037 30" fill="none" xmlns="http://www.w3.org/2000/svg">
<path d="M23.65 23.55L24.4611 24.135L24.4655 24.1287L23.65 23.55ZM17.4 27.8L17.1159 26.8412L17.1127 26.8422L17.4 27.8ZM0.1 29H-0.9V30H0.1V29ZM0.1 0.849998V-0.150002H-0.9V0.849998H0.1ZM17.4 2.45L17.0286 3.37848L17.0356 3.38126L17.0426 3.38394L17.4 2.45ZM23.65 7.1L24.4655 6.52125L23.65 7.1ZM6.05 24.05H5.05V25.05H6.05V24.05ZM14.9 23.35L15.2096 24.301L15.2227 24.2965L14.9 23.35ZM18.25 20.65L17.3925 20.1355L17.3886 20.142L18.25 20.65ZM16.85 8.25L16.2041 9.01339L16.85 8.25ZM6.05 6.05V5.05H5.05V6.05H6.05ZM24.85 14.9C24.85 18.4837 24.1374 21.1353 22.8345 22.9713L24.4655 24.1287C26.0959 21.8314 26.85 18.7163 26.85 14.9H24.85ZM22.839 22.965C21.5176 24.7969 19.6313 26.0959 17.1159 26.8412L17.6841 28.7588C20.5687 27.9041 22.8491 26.3698 24.461 24.135L22.839 22.965ZM17.1127 26.8422C14.5619 27.6074 11.5296 28 8 28V30C11.6704 30 14.9048 29.5926 17.6873 28.7578L17.1127 26.8422ZM8 28H0.1V30H8V28ZM1.1 29V0.849998H-0.9V29H1.1ZM0.1 1.85H8V-0.150002H0.1V1.85ZM8 1.85C11.5038 1.85 14.5058 2.36936 17.0286 3.37848L17.7714 1.52152C14.9608 0.397302 11.6962 -0.150002 8 -0.150002V1.85ZM17.0426 3.38394C19.5849 4.35694 21.4976 5.79498 22.8345 7.67875L24.4655 6.52125C22.869 4.27168 20.6151 2.60973 17.7574 1.51606L17.0426 3.38394ZM22.8345 7.67875C24.1553 9.53989 24.85 11.9244 24.85 14.9H26.85C26.85 11.6089 26.078 8.79344 24.4655 6.52125L22.8345 7.67875ZM6.05 25.05H9.8V23.05H6.05V25.05ZM9.8 25.05C11.8416 25.05 13.6511 24.8083 15.2096 24.3009L14.5904 22.3991C13.2822 22.8251 11.6917 23.05 9.8 23.05V25.05ZM15.2227 24.2965C16.9089 23.7217 18.2198 22.6698 19.1114 21.158L17.3886 20.142C16.7469 21.2302 15.8244 21.9783 14.5773 22.4035L15.2227 24.2965ZM19.1075 21.1645C20.0422 19.6067 20.45 17.4621 20.45 14.85H18.45C18.45 17.3045 18.0578 19.0267 17.3925 20.1355L19.1075 21.1645ZM20.45 14.85C20.45 11.7147 19.5158 9.1957 17.4959 7.48661L16.2041 9.01339C17.6509 10.2376 18.45 12.1186 18.45 14.85H20.45ZM17.4959 7.48661C15.5328 5.82553 12.9296 5.05 9.8 5.05V7.05C12.6038 7.05 14.7005 7.74114 16.2041 9.01339L17.4959 7.48661ZM9.8 5.05H6.05V7.05H9.8V5.05ZM5.05 6.05V24.05H7.05V6.05H5.05ZM36.3105 24.15H35.3105V25.15H36.3105V24.15ZM51.6105 24.15H52.6105V23.15H51.6105V24.15ZM51.6105 29V30H52.6105V29H51.6105ZM30.4105 29H29.4105V30H30.4105V29ZM30.4105 0.849998V-0.150002H29.4105V0.849998H30.4105ZM51.1105 0.849998H52.1105V-0.150002H51.1105V0.849998ZM51.1105 6V7H52.1105V6H51.1105ZM36.3105 6V5H35.3105V6H36.3105ZM36.3105 12.3H35.3105V13.3H36.3105V12.3ZM47.5105 12.3H48.5105V11.3H47.5105V12.3ZM47.5105 17.2V18.2H48.5105V17.2H47.5105ZM36.3105 17.2V16.2H35.3105V17.2H36.3105ZM36.3105 25.15H51.6105V23.15H36.3105V25.15ZM50.6105 24.15V29H52.6105V24.15H50.6105ZM51.6105 28H30.4105V30H51.6105V28ZM31.4105 29V0.849998H29.4105V29H31.4105ZM30.4105 1.85H51.1105V-0.150002H30.4105V1.85ZM50.1105 0.849998V6H52.1105V0.849998H50.1105ZM51.1105 5H36.3105V7H51.1105V5ZM35.3105 6V12.3H37.3105V6H35.3105ZM36.3105 13.3H47.5105V11.3H36.3105V13.3ZM46.5105 12.3V17.2H48.5105V12.3H46.5105ZM47.5105 16.2H36.3105V18.2H47.5105V16.2ZM35.3105 17.2V24.15H37.3105V17.2H35.3105ZM58.6465 27.25L58.1023 28.089L58.6465 27.25ZM55.6965 24.15L54.8212 24.6337L54.8261 24.6424L54.8311 24.651L55.6965 24.15ZM54.6465 19.55V18.55H53.6465V19.55H54.6465ZM60.6965 19.55H61.6965V18.55H60.6965V19.55ZM60.8965 20.55L59.9302 20.8077L59.9325 20.8162L59.935 20.8247L60.8965 20.55ZM61.7965 22.1L61.0246 22.7357L61.0341 22.7472L61.0439 22.7585L61.7965 22.1ZM63.9465 23.5L63.5641 24.424L63.5779 24.4297L63.5918 24.435L63.9465 23.5ZM71.3965 23.35L71.8437 24.2445L71.8559 24.2382L71.3965 23.35ZM72.8965 21.2L73.8959 21.2357L73.8965 21.2178V21.2H72.8965ZM71.8965 19.3L71.3033 20.1051L71.3131 20.1123L71.323 20.1192L71.8965 19.3ZM69.3465 18.15L69.0482 19.1045L69.0619 19.1088L69.0757 19.1126L69.3465 18.15ZM65.7965 17.25L65.5905 18.2286L65.5955 18.2296L65.7965 17.25ZM61.9965 16.25L61.688 17.2013L61.6954 17.2036L61.9965 16.25ZM58.5965 14.65L58.0544 15.4903H58.0544L58.5965 14.65ZM56.1465 12.1L55.2634 12.5692L55.2722 12.5858L55.2817 12.6021L56.1465 12.1ZM55.4465 8.05L54.4489 7.98072L54.4484 7.98889L55.4465 8.05ZM58.8965 2.4L59.4359 3.24203L58.8965 2.4ZM73.2965 1.45L72.9131 2.37359L72.9206 2.3767L72.9281 2.37968L73.2965 1.45ZM77.5965 4.7L78.3965 4.1L77.5965 4.7ZM79.2465 10.25V11.25H80.2465V10.25H79.2465ZM73.3965 10.25H72.3965V11.25H73.3965V10.25ZM72.2965 7.55L72.9297 6.77604V6.77604L72.2965 7.55ZM69.6465 6.35L69.4193 7.32384L69.4378 7.32816L69.4565 7.33178L69.6465 6.35ZM63.2965 6.7L63.7176 7.60701L63.7244 7.60383L63.7312 7.60055L63.2965 6.7ZM62.8465 10.8L62.2268 11.5849L62.2366 11.5926L62.2465 11.6L62.8465 10.8ZM65.4965 12L65.2334 12.9648L65.4965 12ZM69.0465 12.85L68.8405 13.8285L68.8551 13.8316L68.8698 13.8343L69.0465 12.85ZM72.8965 13.75L72.6184 14.7106L72.625 14.7125L72.8965 13.75ZM76.3965 15.3L75.8544 16.1403L75.8641 16.1466L75.8739 16.1526L76.3965 15.3ZM78.8465 17.85L77.9748 18.3403L77.9817 18.3521L78.8465 17.85ZM79.5965 21.9L80.5941 21.9693L80.5947 21.9599L79.5965 21.9ZM75.9965 27.55L76.5091 28.4087L76.5184 28.403L75.9965 27.55ZM67.3465 28.55C65.8587 28.55 64.4051 28.376 62.9839 28.0286L62.509 29.9714C64.0879 30.3573 65.701 30.55 67.3465 30.55V28.55ZM62.9839 28.0286C61.5873 27.6872 60.3252 27.147 59.1907 26.411L58.1023 28.089C59.4344 28.953 60.9056 29.5795 62.509 29.9714L62.9839 28.0286ZM59.1907 26.411C58.0889 25.6964 57.2159 24.7786 56.5619 23.649L54.8311 24.651C55.6437 26.0547 56.7374 27.2036 58.1023 28.089L59.1907 26.411ZM56.5717 23.6663C55.9712 22.5797 55.6465 21.2215 55.6465 19.55H53.6465C53.6465 21.4785 54.0218 23.187 54.8212 24.6337L56.5717 23.6663ZM54.6465 20.55H60.6965V18.55H54.6465V20.55ZM59.6965 19.55C59.6965 19.8707 59.8037 20.333 59.9302 20.8077L61.8627 20.2923C61.799 20.0534 61.7547 19.8672 61.7271 19.7289C61.6962 19.5747 61.6965 19.5299 61.6965 19.55H59.6965ZM59.935 20.8247C60.1203 21.4734 60.5111 22.1122 61.0246 22.7357L62.5684 21.4643C62.1486 20.9545 61.9393 20.56 61.858 20.2753L59.935 20.8247ZM61.0439 22.7585C61.6485 23.4495 62.5176 23.991 63.5641 24.424L64.3288 22.576C63.442 22.209 62.8778 21.8172 62.5491 21.4415L61.0439 22.7585ZM63.5918 24.435C64.7163 24.8615 66.1344 25.05 67.7965 25.05V23.05C66.2586 23.05 65.11 22.8718 64.3011 22.565L63.5918 24.435ZM67.7965 25.05C69.3593 25.05 70.7269 24.8028 71.8437 24.2444L70.9493 22.4556C70.1994 22.8305 69.167 23.05 67.7965 23.05V25.05ZM71.8559 24.2382C73.0798 23.6052 73.8473 22.596 73.8959 21.2357L71.8971 21.1643C71.879 21.6707 71.6465 22.0948 70.9371 22.4618L71.8559 24.2382ZM73.8965 21.2C73.8965 20.067 73.3984 19.1307 72.4699 18.4808L71.323 20.1192C71.7279 20.4026 71.8965 20.733 71.8965 21.2H73.8965ZM72.4897 18.4949C71.7284 17.934 70.7562 17.5077 69.6172 17.1873L69.0757 19.1126C70.0701 19.3923 70.7979 19.7327 71.3033 20.1051L72.4897 18.4949ZM69.6448 17.1955C68.5408 16.8505 67.3244 16.5426 65.9974 16.2704L65.5955 18.2296C66.8686 18.4907 68.0188 18.7828 69.0482 19.1045L69.6448 17.1955ZM66.0025 16.2715C64.7688 16.0117 63.5338 15.6868 62.2976 15.2964L61.6954 17.2036C62.9925 17.6132 64.2909 17.955 65.5905 18.2285L66.0025 16.2715ZM62.305 15.2988C61.1495 14.924 60.0954 14.427 59.1386 13.8097L58.0544 15.4903C59.1643 16.2064 60.3768 16.776 61.688 17.2012L62.305 15.2988ZM59.1386 13.8097C58.234 13.2261 57.5296 12.4905 57.0113 11.5979L55.2817 12.6021C55.9634 13.7762 56.8923 14.7406 58.0544 15.4903L59.1386 13.8097ZM57.0296 11.6308C56.5749 10.775 56.352 9.62355 56.4446 8.11111L54.4484 7.98889C54.341 9.74311 54.5847 11.2917 55.2634 12.5692L57.0296 11.6308ZM56.4441 8.11928C56.5875 6.05394 57.5524 4.44868 59.4359 3.24203L58.3571 1.55797C55.9739 3.08465 54.6388 5.24606 54.4489 7.98072L56.4441 8.11928ZM59.4359 3.24203C61.3514 2.0149 64.04 1.35 67.5965 1.35V-0.650001C63.8196 -0.650001 60.7082 0.0517607 58.3571 1.55797L59.4359 3.24203ZM67.5965 1.35C69.5066 1.35 71.2755 1.69382 72.9131 2.37359L73.6799 0.526408C71.7841 -0.260492 69.753 -0.650001 67.5965 -0.650001V1.35ZM72.9281 2.37968C74.5298 3.01432 75.8114 3.9865 76.7965 5.3L78.3965 4.1C77.1816 2.48016 75.5965 1.28568 73.6648 0.520318L72.9281 2.37968ZM76.7965 5.3C77.7404 6.55854 78.2465 8.18472 78.2465 10.25H80.2465C80.2465 7.84862 79.6526 5.77479 78.3965 4.1L76.7965 5.3ZM79.2465 9.25H73.3965V11.25H79.2465V9.25ZM74.3965 10.25C74.3965 8.83697 73.955 7.61489 72.9297 6.77604L71.6632 8.32396C72.1047 8.6851 72.3965 9.26303 72.3965 10.25H74.3965ZM72.9297 6.77604C72.0544 6.05988 71.0142 5.59615 69.8365 5.36822L69.4565 7.33178C70.3455 7.50385 71.0719 7.84012 71.6632 8.32396L72.9297 6.77604ZM69.8737 5.37616C68.8191 5.13007 67.841 5 66.9465 5V7C67.652 7 68.4739 7.10326 69.4193 7.32384L69.8737 5.37616ZM66.9465 5C65.3814 5 64.0042 5.24791 62.8617 5.79945L63.7312 7.60055C64.5221 7.21876 65.5782 7 66.9465 7V5ZM62.8754 5.79299C62.2792 6.06981 61.7703 6.46144 61.4144 6.9953C61.0559 7.53305 60.8965 8.1495 60.8965 8.8H62.8965C62.8965 8.48383 62.9704 8.26694 63.0785 8.1047C63.1893 7.93855 63.3805 7.76353 63.7176 7.60701L62.8754 5.79299ZM60.8965 8.8C60.8965 9.92772 61.3443 10.8881 62.2268 11.5849L63.4661 10.0151C63.082 9.71186 62.8965 9.33894 62.8965 8.8H60.8965ZM62.2465 11.6C63.0438 12.198 64.0536 12.643 65.2334 12.9648L65.7596 11.0352C64.7394 10.757 63.9825 10.402 63.4465 10L62.2465 11.6ZM65.2334 12.9648C66.3546 13.2705 67.5572 13.5584 68.8405 13.8285L69.2525 11.8715C68.0025 11.6083 66.8384 11.3294 65.7596 11.0352L65.2334 12.9648ZM68.8698 13.8343C70.1357 14.0615 71.3852 14.3536 72.6184 14.7106L73.1745 12.7894C71.8745 12.4131 70.5573 12.1052 69.2232 11.8657L68.8698 13.8343ZM72.625 14.7125C73.8386 15.0547 74.9125 15.5326 75.8544 16.1403L76.9386 14.4597C75.8139 13.7341 74.5544 13.1786 73.1679 12.7875L72.625 14.7125ZM75.8739 16.1526C76.7605 16.696 77.4576 17.4206 77.9749 18.3403L79.7181 17.3597C79.0354 16.146 78.0992 15.1707 76.919 14.4474L75.8739 16.1526ZM77.9817 18.3521C78.4509 19.1602 78.691 20.2947 78.5983 21.8401L80.5947 21.9599C80.702 20.172 80.4421 18.6065 79.7113 17.3479L77.9817 18.3521ZM78.5989 21.8307C78.4569 23.876 77.4604 25.4818 75.4745 26.697L76.5184 28.403C78.9993 26.8848 80.4028 24.724 80.5941 21.9693L78.5989 21.8307ZM75.4839 26.6914C73.4515 27.9048 70.7616 28.55 67.3465 28.55V30.55C70.998 30.55 74.0748 29.8619 76.5091 28.4086L75.4839 26.6914ZM90.3633 24.15H89.3633V25.15H90.3633V24.15ZM105.663 24.15H106.663V23.15H105.663V24.15ZM105.663 29V30H106.663V29H105.663ZM84.4633 29H83.4633V30H84.4633V29ZM84.4633 0.849998V-0.150002H83.4633V0.849998H84.4633ZM105.163 0.849998H106.163V-0.150002H105.163V0.849998ZM105.163 6V7H106.163V6H105.163ZM90.3633 6V5H89.3633V6H90.3633ZM90.3633 12.3H89.3633V13.3H90.3633V12.3ZM101.563 12.3H102.563V11.3H101.563V12.3ZM101.563 17.2V18.2H102.563V17.2H101.563ZM90.3633 17.2V16.2H89.3633V17.2H90.3633ZM90.3633 25.15H105.663V23.15H90.3633V25.15ZM104.663 24.15V29H106.663V24.15H104.663ZM105.663 28H84.4633V30H105.663V28ZM85.4633 29V0.849998H83.4633V29H85.4633ZM84.4633 1.85H105.163V-0.150002H84.4633V1.85ZM104.163 0.849998V6H106.163V0.849998H104.163ZM105.163 5H90.3633V7H105.163V5ZM89.3633 6V12.3H91.3633V6H89.3633ZM90.3633 13.3H101.563V11.3H90.3633V13.3ZM100.563 12.3V17.2H102.563V12.3H100.563ZM101.563 16.2H90.3633V18.2H101.563V16.2ZM89.3633 17.2V24.15H91.3633V17.2H89.3633ZM129.249 0.849998V-0.150002H128.249V0.849998H129.249ZM135.549 0.849998H136.549V-0.150002H135.549V0.849998ZM135.549 29V30H136.549V29H135.549ZM123.999 29L123.039 29.2804L123.25 30H123.999V29ZM116.549 3.5L117.509 3.21956L117.299 2.5H116.549V3.5ZM116.449 3.5V2.5H115.449V3.5H116.449ZM116.449 29V30H117.449V29H116.449ZM110.199 29H109.199V30H110.199V29ZM110.199 0.849998V-0.150002H109.199V0.849998H110.199ZM120.899 0.849998L121.851 0.542178L121.627 -0.150002H120.899V0.849998ZM129.149 26.35L128.198 26.6578L128.422 27.35H129.149V26.35ZM129.249 26.35V27.35H130.249V26.35H129.249ZM129.249 1.85H135.549V-0.150002H129.249V1.85ZM134.549 0.849998V29H136.549V0.849998H134.549ZM135.549 28H123.999V30H135.549V28ZM124.959 28.7196L117.509 3.21956L115.589 3.78043L123.039 29.2804L124.959 28.7196ZM116.549 2.5H116.449V4.5H116.549V2.5ZM115.449 3.5V29H117.449V3.5H115.449ZM116.449 28H110.199V30H116.449V28ZM111.199 29V0.849998H109.199V29H111.199ZM110.199 1.85H120.899V-0.150002H110.199V1.85ZM119.948 1.15782L128.198 26.6578L130.101 26.0422L121.851 0.542178L119.948 1.15782ZM129.149 27.35H129.249V25.35H129.149V27.35ZM130.249 26.35V0.849998H128.249V26.35H130.249ZM160.357 0.849998V-0.150002H159.607L159.397 0.571077L160.357 0.849998ZM166.957 0.849998L167.91 1.15453L168.327 -0.150002H166.957V0.849998ZM157.957 29V30H158.688L158.91 29.3045L157.957 29ZM147.907 29L146.955 29.3045L147.177 30H147.907V29ZM138.907 0.849998V-0.150002H137.538L137.955 1.15453L138.907 0.849998ZM145.507 0.849998L146.468 0.572805L146.26 -0.150002H145.507V0.849998ZM152.907 26.5L151.947 26.7772L152.904 30.0964L153.868 26.7789L152.907 26.5ZM160.357 1.85H166.957V-0.150002H160.357V1.85ZM166.005 0.545468L157.005 28.6955L158.91 29.3045L167.91 1.15453L166.005 0.545468ZM157.957 28H147.907V30H157.957V28ZM148.86 28.6955L139.86 0.545468L137.955 1.15453L146.955 29.3045L148.86 28.6955ZM138.907 1.85H145.507V-0.150002H138.907V1.85ZM144.547 1.12719L151.947 26.7772L153.868 26.2228L146.468 0.572805L144.547 1.12719ZM153.868 26.7789L161.318 1.12892L159.397 0.571077L151.947 26.2211L153.868 26.7789ZM171.567 25.75L170.828 26.4241L170.833 26.4287L171.567 25.75ZM169.467 7.3L168.567 6.86372L168.565 6.86953L169.467 7.3ZM174.217 2.2L174.713 3.0683L174.724 3.06229L174.217 2.2ZM192.667 4.35L191.924 5.01898L191.928 5.0236L192.667 4.35ZM194.667 22.7L195.567 23.1363L195.57 23.131L194.667 22.7ZM189.917 27.85L189.411 26.9877L189.917 27.85ZM186.667 22.7L187.195 23.5493L187.203 23.5442L187.211 23.539L186.667 22.7ZM189.417 19.5L188.505 19.0896V19.0896L189.417 19.5ZM189.417 10.45L188.502 10.852V10.852L189.417 10.45ZM186.667 7.2L187.211 6.36104L186.667 7.2ZM175.917 8.55L176.683 9.19322L176.689 9.18571L175.917 8.55ZM174.717 19.45L175.629 19.0396L174.717 19.45ZM177.417 22.65L176.862 23.4821L176.873 23.489L177.417 22.65ZM182.117 28.7C177.712 28.7 174.496 27.4455 172.302 25.0713L170.833 26.4287C173.506 29.3211 177.322 30.7 182.117 30.7V28.7ZM172.306 25.076C170.079 22.636 168.917 19.3147 168.917 15H166.917C166.917 19.6853 168.188 23.5307 170.829 26.424L172.306 25.076ZM168.917 15C168.917 12.1479 169.414 9.7348 170.37 7.73047L168.565 6.86953C167.454 9.19853 166.917 11.9187 166.917 15H168.917ZM170.367 7.73627C171.347 5.71555 172.79 4.16708 174.713 3.06824L173.721 1.33176C171.444 2.63292 169.721 4.48445 168.567 6.86373L170.367 7.73627ZM174.724 3.06229C176.631 1.94233 179.076 1.35 182.117 1.35V-0.650001C178.825 -0.650001 176.004 -0.00899601 173.711 1.33771L174.724 3.06229ZM182.117 1.35C186.555 1.35 189.765 2.62047 191.924 5.01896L193.41 3.68103C190.769 0.746192 186.946 -0.650001 182.117 -0.650001V1.35ZM191.928 5.0236C194.121 7.42932 195.267 10.7168 195.267 15H197.267C197.267 10.3499 196.014 6.53735 193.406 3.6764L191.928 5.0236ZM195.267 15C195.267 17.7763 194.757 20.1915 193.765 22.269L195.57 23.131C196.711 20.7418 197.267 18.0237 197.267 15H195.267ZM193.767 22.2637C192.787 24.2867 191.34 25.8548 189.411 26.9877L190.424 28.7123C192.695 27.3785 194.415 25.5133 195.567 23.1363L193.767 22.2637ZM189.411 26.9877C187.501 28.1094 185.087 28.7 182.117 28.7V30.7C185.347 30.7 188.134 30.0573 190.424 28.7123L189.411 26.9877ZM182.067 24.85C184.039 24.85 185.767 24.4373 187.195 23.5493L186.139 21.8507C185.101 22.496 183.762 22.85 182.067 22.85V24.85ZM187.211 23.539C188.605 22.635 189.65 21.4199 190.329 19.9104L188.505 19.0896C187.985 20.2467 187.196 21.165 186.123 21.861L187.211 23.539ZM190.329 19.9104C190.995 18.4311 191.317 16.7884 191.317 15H189.317C189.317 16.5449 189.04 17.9022 188.505 19.0896L190.329 19.9104ZM191.317 15C191.317 13.2111 190.995 11.5554 190.333 10.048L188.502 10.852C189.04 12.0779 189.317 13.4555 189.317 15H191.317ZM190.333 10.048C189.656 8.50545 188.611 7.26902 187.211 6.36104L186.123 8.03896C187.19 8.73098 187.979 9.66121 188.502 10.852L190.333 10.048ZM187.211 6.36104C185.78 5.43267 184.046 5 182.067 5V7C183.755 7 185.088 7.36732 186.123 8.03896L187.211 6.36104ZM182.067 5C179.143 5 176.778 5.93192 175.145 7.91429L176.689 9.18571C177.857 7.76808 179.592 7 182.067 7V5ZM175.151 7.90681C173.57 9.78941 172.817 12.1828 172.817 15H174.817C174.817 12.5506 175.464 10.6439 176.683 9.19319L175.151 7.90681ZM172.817 15C172.817 16.7582 173.141 18.3837 173.805 19.8604L175.629 19.0396C175.094 17.8497 174.817 16.5085 174.817 15H172.817ZM173.805 19.8604C174.481 21.3625 175.504 22.5763 176.862 23.4821L177.972 21.818C176.93 21.1237 176.153 20.2041 175.629 19.0396L173.805 19.8604ZM176.873 23.489C178.307 24.4191 180.059 24.85 182.067 24.85V22.85C180.342 22.85 178.994 22.4809 177.961 21.811L176.873 23.489ZM200.979 29H199.979V30H200.979V29ZM200.979 0.849998V-0.150002H199.979V0.849998H200.979ZM207.029 0.849998H208.029V-0.150002H207.029V0.849998ZM207.029 23.85H206.029V24.85H207.029V23.85ZM220.029 23.85H221.029V22.85H220.029V23.85ZM220.029 29V30H221.029V29H220.029ZM201.979 29V0.849998H199.979V29H201.979ZM200.979 1.85H207.029V-0.150002H200.979V1.85ZM206.029 0.849998V23.85H208.029V0.849998H206.029ZM207.029 24.85H220.029V22.85H207.029V24.85ZM219.029 23.85V29H221.029V23.85H219.029ZM220.029 28H200.979V30H220.029V28ZM242.193 0.849998V-0.150002H241.442L241.233 0.571077L242.193 0.849998ZM248.793 0.849998L249.746 1.15453L250.163 -0.150002H248.793V0.849998ZM239.793 29V30H240.524L240.746 29.3045L239.793 29ZM229.743 29L228.791 29.3045L229.013 30H229.743V29ZM220.743 0.849998V-0.150002H219.374L219.791 1.15453L220.743 0.849998ZM227.343 0.849998L228.304 0.572805L228.096 -0.150002H227.343V0.849998ZM234.743 26.5L233.783 26.7772L234.74 30.0964L235.704 26.7789L234.743 26.5ZM242.193 1.85H248.793V-0.150002H242.193V1.85ZM247.841 0.545468L238.841 28.6955L240.746 29.3045L249.746 1.15453L247.841 0.545468ZM239.793 28H229.743V30H239.793V28ZM230.696 28.6955L221.696 0.545468L219.791 1.15453L228.791 29.3045L230.696 28.6955ZM220.743 1.85H227.343V-0.150002H220.743V1.85ZM226.383 1.12719L233.783 26.7772L235.704 26.2228L228.304 0.572805L226.383 1.12719ZM235.704 26.7789L243.154 1.12892L241.233 0.571077L233.783 26.2211L235.704 26.7789ZM258.576 24.15H257.576V25.15H258.576V24.15ZM273.876 24.15H274.876V23.15H273.876V24.15ZM273.876 29V30H274.876V29H273.876ZM252.676 29H251.676V30H252.676V29ZM252.676 0.849998V-0.150002H251.676V0.849998H252.676ZM273.376 0.849998H274.376V-0.150002H273.376V0.849998ZM273.376 6V7H274.376V6H273.376ZM258.576 6V5H257.576V6H258.576ZM258.576 12.3H257.576V13.3H258.576V12.3ZM269.776 12.3H270.776V11.3H269.776V12.3ZM269.776 17.2V18.2H270.776V17.2H269.776ZM258.576 17.2V16.2H257.576V17.2H258.576ZM258.576 25.15H273.876V23.15H258.576V25.15ZM272.876 24.15V29H274.876V24.15H272.876ZM273.876 28H252.676V30H273.876V28ZM253.676 29V0.849998H251.676V29H253.676ZM252.676 1.85H273.376V-0.150002H252.676V1.85ZM272.376 0.849998V6H274.376V0.849998H272.376ZM273.376 5H258.576V7H273.376V5ZM257.576 6V12.3H259.576V6H257.576ZM258.576 13.3H269.776V11.3H258.576V13.3ZM268.776 12.3V17.2H270.776V12.3H268.776ZM269.776 16.2H258.576V18.2H269.776V16.2ZM257.576 17.2V24.15H259.576V17.2H257.576ZM302.312 23.55L303.123 24.135L303.128 24.1287L302.312 23.55ZM296.062 27.8L295.778 26.8412L295.775 26.8422L296.062 27.8ZM278.762 29H277.762V30H278.762V29ZM278.762 0.849998V-0.150002H277.762V0.849998H278.762ZM296.062 2.45L295.691 3.37848L295.698 3.38126L295.705 3.38394L296.062 2.45ZM302.312 7.1L303.128 6.52125L302.312 7.1ZM284.712 24.05H283.712V25.05H284.712V24.05ZM293.562 23.35L293.872 24.301L293.885 24.2965L293.562 23.35ZM296.912 20.65L296.055 20.1355L296.051 20.142L296.912 20.65ZM295.512 8.25L294.866 9.01339L295.512 8.25ZM284.712 6.05V5.05H283.712V6.05H284.712ZM303.512 14.9C303.512 18.4837 302.8 21.1353 301.497 22.9713L303.128 24.1287C304.758 21.8314 305.512 18.7163 305.512 14.9H303.512ZM301.501 22.965C300.18 24.7969 298.293 26.0959 295.778 26.8412L296.346 28.7588C299.231 27.9041 301.511 26.3698 303.123 24.135L301.501 22.965ZM295.775 26.8422C293.224 27.6074 290.192 28 286.662 28V30C290.333 30 293.567 29.5926 296.349 28.7578L295.775 26.8422ZM286.662 28H278.762V30H286.662V28ZM279.762 29V0.849998H277.762V29H279.762ZM278.762 1.85H286.662V-0.150002H278.762V1.85ZM286.662 1.85C290.166 1.85 293.168 2.36936 295.691 3.37848L296.434 1.52152C293.623 0.397302 290.358 -0.150002 286.662 -0.150002V1.85ZM295.705 3.38394C298.247 4.35694 300.16 5.79498 301.497 7.67875L303.128 6.52125C301.531 4.27168 299.277 2.60973 296.42 1.51606L295.705 3.38394ZM301.497 7.67875C302.817 9.53989 303.512 11.9244 303.512 14.9H305.512C305.512 11.6089 304.74 8.79344 303.128 6.52125L301.497 7.67875ZM284.712 25.05H288.462V23.05H284.712V25.05ZM288.462 25.05C290.504 25.05 292.313 24.8083 293.872 24.3009L293.253 22.3991C291.944 22.8251 290.354 23.05 288.462 23.05V25.05ZM293.885 24.2965C295.571 23.7217 296.882 22.6698 297.773 21.158L296.051 20.142C295.409 21.2302 294.487 21.9783 293.239 22.4035L293.885 24.2965ZM297.77 21.1645C298.704 19.6067 299.112 17.4621 299.112 14.85H297.112C297.112 17.3045 296.72 19.0267 296.055 20.1355L297.77 21.1645ZM299.112 14.85C299.112 11.7147 298.178 9.1957 296.158 7.48661L294.866 9.01339C296.313 10.2376 297.112 12.1186 297.112 14.85H299.112ZM296.158 7.48661C294.195 5.82553 291.592 5.05 288.462 5.05V7.05C291.266 7.05 293.363 7.74114 294.866 9.01339L296.158 7.48661ZM288.462 5.05H284.712V7.05H288.462V5.05ZM283.712 6.05V24.05H285.712V6.05H283.712ZM311.069 25.75L310.33 26.4241L310.335 26.4287L311.069 25.75ZM308.969 7.3L308.069 6.86372L308.067 6.86953L308.969 7.3ZM313.719 2.2L314.215 3.0683L314.226 3.06229L313.719 2.2ZM332.169 4.35L331.426 5.01898L331.43 5.0236L332.169 4.35ZM334.169 22.7L335.069 23.1363L335.072 23.131L334.169 22.7ZM329.419 27.85L328.913 26.9877L329.419 27.85ZM326.169 22.7L326.697 23.5493L326.705 23.5442L326.713 23.539L326.169 22.7ZM328.919 19.5L328.007 19.0896V19.0896L328.919 19.5ZM328.919 10.45L328.004 10.852V10.852L328.919 10.45ZM326.169 7.2L326.713 6.36104H326.713L326.169 7.2ZM315.419 8.55L316.185 9.19322L316.191 9.18571L315.419 8.55ZM314.219 19.45L315.131 19.0396L314.219 19.45ZM316.919 22.65L316.364 23.4821L316.375 23.489L316.919 22.65ZM321.619 28.7C317.214 28.7 313.997 27.4455 311.804 25.0713L310.335 26.4287C313.007 29.3211 316.824 30.7 321.619 30.7V28.7ZM311.808 25.076C309.581 22.636 308.419 19.3147 308.419 15H306.419C306.419 19.6853 307.69 23.5307 310.33 26.424L311.808 25.076ZM308.419 15C308.419 12.1479 308.916 9.7348 309.872 7.73047L308.067 6.86953C306.956 9.19853 306.419 11.9187 306.419 15H308.419ZM309.869 7.73627C310.849 5.71555 312.292 4.16708 314.215 3.06824L313.223 1.33176C310.946 2.63292 309.223 4.48445 308.069 6.86373L309.869 7.73627ZM314.226 3.06229C316.133 1.94233 318.578 1.35 321.619 1.35V-0.650001C318.327 -0.650001 315.506 -0.00899601 313.213 1.33771L314.226 3.06229ZM321.619 1.35C326.057 1.35 329.267 2.62047 331.426 5.01896L332.912 3.68103C330.271 0.746192 326.448 -0.650001 321.619 -0.650001V1.35ZM331.43 5.0236C333.623 7.42932 334.769 10.7168 334.769 15H336.769C336.769 10.3499 335.516 6.53735 332.908 3.6764L331.43 5.0236ZM334.769 15C334.769 17.7763 334.259 20.1915 333.267 22.269L335.072 23.131C336.213 20.7418 336.769 18.0237 336.769 15H334.769ZM333.269 22.2637C332.288 24.2867 330.842 25.8548 328.913 26.9877L329.926 28.7123C332.197 27.3785 333.916 25.5133 335.069 23.1363L333.269 22.2637ZM328.913 26.9877C327.003 28.1094 324.589 28.7 321.619 28.7V30.7C324.849 30.7 327.635 30.0573 329.926 28.7123L328.913 26.9877ZM321.569 24.85C323.54 24.85 325.269 24.4373 326.697 23.5493L325.641 21.8507C324.603 22.496 323.264 22.85 321.569 22.85V24.85ZM326.713 23.539C328.107 22.635 329.152 21.4199 329.831 19.9104L328.007 19.0896C327.487 20.2467 326.698 21.165 325.625 21.861L326.713 23.539ZM329.831 19.9104C330.497 18.4311 330.819 16.7884 330.819 15H328.819C328.819 16.5449 328.542 17.9022 328.007 19.0896L329.831 19.9104ZM330.819 15C330.819 13.2111 330.497 11.5554 329.835 10.048L328.004 10.852C328.542 12.0779 328.819 13.4555 328.819 15H330.819ZM329.835 10.048C329.158 8.50545 328.113 7.26902 326.713 6.36104L325.625 8.03896C326.692 8.73098 327.481 9.66121 328.004 10.852L329.835 10.048ZM326.713 6.36104C325.282 5.43267 323.548 5 321.569 5V7C323.257 7 324.59 7.36732 325.625 8.03896L326.713 6.36104ZM321.569 5C318.644 5 316.28 5.93192 314.647 7.91429L316.191 9.18571C317.359 7.76808 319.094 7 321.569 7V5ZM314.653 7.90681C313.072 9.78941 312.319 12.1828 312.319 15H314.319C314.319 12.5506 314.966 10.6439 316.185 9.19319L314.653 7.90681ZM312.319 15C312.319 16.7582 312.643 18.3837 313.307 19.8604L315.131 19.0396C314.596 17.8497 314.319 16.5085 314.319 15H312.319ZM313.307 19.8604C313.983 21.3625 315.006 22.5763 316.364 23.4821L317.474 21.818C316.432 21.1237 315.655 20.2041 315.131 19.0396L313.307 19.8604ZM316.375 23.489C317.809 24.4191 319.561 24.85 321.569 24.85V22.85C319.844 22.85 318.496 22.4809 317.463 21.811L316.375 23.489ZM340.031 29H339.031V30H340.031V29ZM340.031 0.849998V-0.150002H339.031V0.849998H340.031ZM359.531 2.75L359.008 3.6026L359.016 3.60752L359.024 3.61228L359.531 2.75ZM360.981 14.95L360.204 14.3208L360.199 14.3265L360.195 14.3322L360.981 14.95ZM358.731 17.8L358.047 18.5295L358.059 18.5413L358.072 18.5526L358.731 17.8ZM359.831 19.55L358.869 19.8247L358.875 19.8456L358.882 19.8662L359.831 19.55ZM360.331 21.75L359.339 21.8793L359.342 21.9042L359.347 21.9289L360.331 21.75ZM360.831 23.75L359.882 24.0662L359.885 24.0745L359.888 24.0828L360.831 23.75ZM361.831 24.95L361.384 25.8444L361.421 25.863L361.459 25.8785L361.831 24.95ZM364.031 24.65H365.031V23.154L363.648 23.726L364.031 24.65ZM364.031 28L364.687 28.7546L365.031 28.4556V28H364.031ZM361.381 29.3L361.185 28.3194L361.169 28.3225L361.154 28.3262L361.381 29.3ZM356.131 27.2L355.273 27.7145L355.284 27.7315L355.294 27.748L356.131 27.2ZM354.981 20.25L353.996 20.4213L353.999 20.442L354.004 20.4624L354.981 20.25ZM353.931 18.45L354.538 17.6556L353.931 18.45ZM351.231 17.6L351.338 16.6058L351.231 17.6ZM346.081 17.6L346.02 16.6018L345.081 16.6588V17.6H346.081ZM346.081 29V30H347.081V29H346.081ZM346.081 13.3H345.081V14.3H346.081V13.3ZM354.231 13.15L354.135 12.1546L354.131 12.155L354.231 13.15ZM356.531 12.3L357.213 13.0311L357.226 13.0193L357.238 13.0071L356.531 12.3ZM356.381 6.9L355.694 7.62701L355.705 7.63738L355.716 7.64741L356.381 6.9ZM353.681 5.9L353.595 6.89635L353.598 6.89655L353.681 5.9ZM346.081 5.75V4.75H345.081V5.75H346.081ZM341.031 29V0.849998H339.031V29H341.031ZM340.031 1.85H350.931V-0.150002H340.031V1.85ZM350.931 1.85C354.501 1.85 357.16 2.46967 359.008 3.6026L360.053 1.8974C357.769 0.49699 354.694 -0.150002 350.931 -0.150002V1.85ZM359.024 3.61228C360.733 4.61589 361.681 6.39296 361.681 9.25H363.681C363.681 5.90704 362.528 3.35078 360.037 1.88771L359.024 3.61228ZM361.681 9.25C361.681 11.4973 361.151 13.1503 360.204 14.3208L361.758 15.5792C363.077 13.9497 363.681 11.8027 363.681 9.25H361.681ZM360.195 14.3322C359.306 15.4634 358.077 16.05 356.381 16.05V18.05C358.618 18.05 360.456 17.2366 361.767 15.5678L360.195 14.3322ZM356.381 18.05C357.265 18.05 357.764 18.2639 358.047 18.5295L359.415 17.0705C358.631 16.3361 357.563 16.05 356.381 16.05V18.05ZM358.072 18.5526C358.457 18.8888 358.721 19.3045 358.869 19.8247L360.792 19.2753C360.541 18.3955 360.072 17.6445 359.389 17.0474L358.072 18.5526ZM358.882 19.8662C359.094 20.5026 359.247 21.1732 359.339 21.8793L361.322 21.6207C361.215 20.7935 361.034 19.9974 360.78 19.2338L358.882 19.8662ZM359.347 21.9289C359.487 22.7008 359.665 23.4143 359.882 24.0662L361.78 23.4338C361.597 22.8857 361.441 22.2659 361.315 21.5711L359.347 21.9289ZM359.888 24.0828C360.16 24.8539 360.65 25.4775 361.384 25.8444L362.278 24.0556C362.079 23.9558 361.902 23.7795 361.774 23.4172L359.888 24.0828ZM361.459 25.8785C362.347 26.2334 363.405 25.9913 364.413 25.574L363.648 23.726C362.724 24.1087 362.315 24.0666 362.202 24.0215L361.459 25.8785ZM363.031 24.65V28H365.031V24.65H363.031ZM363.375 27.2454C362.74 27.7976 362.015 28.1534 361.185 28.3194L361.577 30.2806C362.747 30.0466 363.789 29.5357 364.687 28.7546L363.375 27.2454ZM361.154 28.3262C360.334 28.5175 359.563 28.4746 358.817 28.2083L358.145 30.0917C359.266 30.4921 360.428 30.5492 361.608 30.2738L361.154 28.3262ZM358.817 28.2083C358.122 27.9599 357.502 27.4679 356.967 26.652L355.294 27.748C356.027 28.8655 356.973 29.6734 358.145 30.0917L358.817 28.2083ZM356.988 26.6855C356.516 25.8988 356.231 24.7342 356.231 23.1H354.231C354.231 24.9324 354.545 26.5012 355.273 27.7145L356.988 26.6855ZM356.231 23.1C356.231 21.9238 356.145 20.8973 355.958 20.0376L354.004 20.4624C354.15 21.136 354.231 22.0095 354.231 23.1H356.231ZM355.966 20.0787C355.794 19.0887 355.324 18.2562 354.538 17.6556L353.323 19.2444C353.671 19.5105 353.901 19.878 353.996 20.4213L355.966 20.0787ZM354.538 17.6556C353.755 17.0565 352.636 16.7461 351.338 16.6058L351.123 18.5942C352.292 18.7206 352.974 18.9768 353.323 19.2444L354.538 17.6556ZM351.338 16.6058C350.022 16.4635 348.24 16.4673 346.02 16.6018L346.141 18.5982C348.321 18.4661 349.973 18.4698 351.123 18.5942L351.338 16.6058ZM345.081 17.6V29H347.081V17.6H345.081ZM346.081 28H340.031V30H346.081V28ZM346.081 14.3H350.381V12.3H346.081V14.3ZM350.381 14.3C351.965 14.3 353.284 14.2496 354.33 14.145L354.131 12.155C353.177 12.2504 351.93 12.3 350.381 12.3V14.3ZM354.327 14.1453C355.472 14.0346 356.488 13.708 357.213 13.0311L355.849 11.5689C355.574 11.8254 355.056 12.0654 354.135 12.1546L354.327 14.1453ZM357.238 13.0071C358.02 12.2249 358.281 11.0418 358.281 9.75H356.281C356.281 10.8582 356.042 11.3751 355.824 11.5929L357.238 13.0071ZM358.281 9.75C358.281 8.2891 357.969 6.97369 357.045 6.15259L355.716 7.64741C355.993 7.89298 356.281 8.47757 356.281 9.75H358.281ZM357.067 6.17299C356.242 5.39327 355.089 5.01391 353.764 4.90345L353.598 6.89655C354.672 6.98608 355.32 7.27339 355.694 7.62701L357.067 6.17299ZM353.766 4.90365C352.562 4.8004 351.098 4.75 349.381 4.75V6.75C351.064 6.75 352.467 6.79959 353.595 6.89635L353.766 4.90365ZM349.381 4.75H346.081V6.75H349.381V4.75ZM345.081 5.75V13.3H347.081V5.75H345.081ZM385.2 29V30H386.2V29H385.2ZM379.3 29H378.3V30H379.3V29ZM379.3 0.849998V-0.150002H378.3V0.849998H379.3ZM399.6 0.849998H400.6V-0.150002H399.6V0.849998ZM399.6 6V7H400.6V6H399.6ZM385.2 6V5H384.2V6H385.2ZM385.2 11.9H384.2V12.9H385.2V11.9ZM396.05 11.9H397.05V10.9H396.05V11.9ZM396.05 16.75V17.75H397.05V16.75H396.05ZM385.2 16.75V15.75H384.2V16.75H385.2ZM385.2 28H379.3V30H385.2V28ZM380.3 29V0.849998H378.3V29H380.3ZM379.3 1.85H399.6V-0.150002H379.3V1.85ZM398.6 0.849998V6H400.6V0.849998H398.6ZM399.6 5H385.2V7H399.6V5ZM384.2 6V11.9H386.2V6H384.2ZM385.2 12.9H396.05V10.9H385.2V12.9ZM395.05 11.9V16.75H397.05V11.9H395.05ZM396.05 15.75H385.2V17.75H396.05V15.75ZM384.2 16.75V29H386.2V16.75H384.2ZM403.459 29H402.459V30H403.459V29ZM403.459 0.849998V-0.150002H402.459V0.849998H403.459ZM422.959 2.75L422.436 3.6026L422.444 3.60752L422.452 3.61228L422.959 2.75ZM424.409 14.95L423.631 14.3208L423.627 14.3265L423.622 14.3322L424.409 14.95ZM422.159 17.8L421.475 18.5295L421.487 18.5413L421.5 18.5526L422.159 17.8ZM423.259 19.55L422.297 19.8247L422.303 19.8456L422.31 19.8662L423.259 19.55ZM423.759 21.75L422.767 21.8793L422.77 21.9042L422.775 21.9289L423.759 21.75ZM424.259 23.75L423.31 24.0662L423.313 24.0745L423.316 24.0828L424.259 23.75ZM425.259 24.95L424.811 25.8444L424.849 25.863L424.887 25.8785L425.259 24.95ZM427.459 24.65H428.459V23.154L427.076 23.726L427.459 24.65ZM427.459 28L428.115 28.7546L428.459 28.4556V28H427.459ZM424.809 29.3L424.612 28.3194L424.597 28.3225L424.581 28.3262L424.809 29.3ZM419.559 27.2L418.701 27.7145L418.711 27.7315L418.722 27.748L419.559 27.2ZM418.409 20.25L417.423 20.4213L417.427 20.442L417.431 20.4624L418.409 20.25ZM417.359 18.45L417.966 17.6556L417.359 18.45ZM414.659 17.6L414.766 16.6058L414.659 17.6ZM409.509 17.6L409.448 16.6018L408.509 16.6588V17.6H409.509ZM409.509 29V30H410.509V29H409.509ZM409.509 13.3H408.509V14.3H409.509V13.3ZM417.659 13.15L417.562 12.1546L417.559 12.155L417.659 13.15ZM419.959 12.3L420.641 13.0311L420.654 13.0193L420.666 13.0071L419.959 12.3ZM419.809 6.9L419.122 7.62701L419.133 7.63738L419.144 7.64741L419.809 6.9ZM417.109 5.9L417.023 6.89635L417.026 6.89655L417.109 5.9ZM409.509 5.75V4.75H408.509V5.75H409.509ZM404.459 29V0.849998H402.459V29H404.459ZM403.459 1.85H414.359V-0.150002H403.459V1.85ZM414.359 1.85C417.929 1.85 420.588 2.46967 422.436 3.6026L423.481 1.8974C421.196 0.49699 418.122 -0.150002 414.359 -0.150002V1.85ZM422.452 3.61228C424.161 4.61589 425.109 6.39296 425.109 9.25H427.109C427.109 5.90704 425.956 3.35078 423.465 1.88771L422.452 3.61228ZM425.109 9.25C425.109 11.4973 424.579 13.1503 423.631 14.3208L425.186 15.5792C426.505 13.9497 427.109 11.8027 427.109 9.25H425.109ZM423.622 14.3322C422.733 15.4634 421.505 16.05 419.809 16.05V18.05C422.045 18.05 423.884 17.2366 425.195 15.5678L423.622 14.3322ZM419.809 18.05C420.693 18.05 421.191 18.2639 421.475 18.5295L422.843 17.0705C422.059 16.3361 420.991 16.05 419.809 16.05V18.05ZM421.5 18.5526C421.884 18.8888 422.148 19.3045 422.297 19.8247L424.22 19.2753C423.969 18.3955 423.499 17.6445 422.817 17.0474L421.5 18.5526ZM422.31 19.8662C422.522 20.5026 422.675 21.1732 422.767 21.8793L424.75 21.6207C424.642 20.7935 424.462 19.9974 424.207 19.2338L422.31 19.8662ZM422.775 21.9289C422.915 22.7008 423.093 23.4143 423.31 24.0662L425.207 23.4338C425.025 22.8857 424.869 22.2659 424.742 21.5711L422.775 21.9289ZM423.316 24.0828C423.588 24.8539 424.078 25.4775 424.811 25.8444L425.706 24.0556C425.506 23.9558 425.329 23.7795 425.202 23.4172L423.316 24.0828ZM424.887 25.8785C425.775 26.2334 426.833 25.9913 427.841 25.574L427.076 23.726C426.151 24.1087 425.743 24.0666 425.63 24.0215L424.887 25.8785ZM426.459 24.65V28H428.459V24.65H426.459ZM426.802 27.2454C426.167 27.7976 425.443 28.1534 424.612 28.3194L425.005 30.2806C426.174 30.0466 427.216 29.5357 428.115 28.7546L426.802 27.2454ZM424.581 28.3262C423.761 28.5175 422.991 28.4746 422.245 28.2083L421.572 30.0917C422.693 30.4921 423.856 30.5492 425.036 30.2738L424.581 28.3262ZM422.245 28.2083C421.549 27.9599 420.93 27.4679 420.395 26.652L418.722 27.748C419.454 28.8655 420.401 29.6734 421.572 30.0917L422.245 28.2083ZM420.416 26.6855C419.944 25.8988 419.659 24.7342 419.659 23.1H417.659C417.659 24.9324 417.973 26.5012 418.701 27.7145L420.416 26.6855ZM419.659 23.1C419.659 21.9238 419.573 20.8973 419.386 20.0376L417.431 20.4624C417.578 21.136 417.659 22.0095 417.659 23.1H419.659ZM419.394 20.0787C419.222 19.0887 418.751 18.2562 417.966 17.6556L416.751 19.2444C417.099 19.5105 417.329 19.878 417.423 20.4213L419.394 20.0787ZM417.966 17.6556C417.183 17.0565 416.064 16.7461 414.766 16.6058L414.551 18.5942C415.72 18.7206 416.401 18.9768 416.751 19.2444L417.966 17.6556ZM414.766 16.6058C413.45 16.4635 411.668 16.4673 409.448 16.6018L409.569 18.5982C411.749 18.4661 413.401 18.4698 414.551 18.5942L414.766 16.6058ZM408.509 17.6V29H410.509V17.6H408.509ZM409.509 28H403.459V30H409.509V28ZM409.509 14.3H413.809V12.3H409.509V14.3ZM413.809 14.3C415.392 14.3 416.712 14.2496 417.758 14.145L417.559 12.155C416.605 12.2504 415.358 12.3 413.809 12.3V14.3ZM417.755 14.1453C418.9 14.0346 419.916 13.708 420.641 13.0311L419.276 11.5689C419.002 11.8254 418.484 12.0654 417.562 12.1546L417.755 14.1453ZM420.666 13.0071C421.448 12.2249 421.709 11.0418 421.709 9.75H419.709C419.709 10.8582 419.469 11.3751 419.251 11.5929L420.666 13.0071ZM421.709 9.75C421.709 8.2891 421.397 6.97369 420.473 6.15259L419.144 7.64741C419.421 7.89298 419.709 8.47757 419.709 9.75H421.709ZM420.495 6.17299C419.67 5.39327 418.517 5.01391 417.192 4.90345L417.026 6.89655C418.1 6.98608 418.748 7.27339 419.122 7.62701L420.495 6.17299ZM417.194 4.90365C415.989 4.8004 414.526 4.75 412.809 4.75V6.75C414.492 6.75 415.894 6.79959 417.023 6.89635L417.194 4.90365ZM412.809 4.75H409.509V6.75H412.809V4.75ZM408.509 5.75V13.3H410.509V5.75H408.509ZM433.579 25.75L432.84 26.4241L432.844 26.4287L433.579 25.75ZM431.479 7.3L430.579 6.86372L430.576 6.86953L431.479 7.3ZM436.229 2.2L436.725 3.0683L436.735 3.06229L436.229 2.2ZM454.679 4.35L453.936 5.01898L453.94 5.0236L454.679 4.35ZM456.679 22.7L457.579 23.1363L457.581 23.131L456.679 22.7ZM451.929 27.85L451.422 26.9877L451.929 27.85ZM448.679 22.7L449.207 23.5493L449.215 23.5442L449.223 23.539L448.679 22.7ZM451.429 19.5L450.517 19.0896V19.0896L451.429 19.5ZM451.429 10.45L450.513 10.852V10.852L451.429 10.45ZM448.679 7.2L449.223 6.36104H449.223L448.679 7.2ZM437.929 8.55L438.695 9.19322L438.701 9.18571L437.929 8.55ZM436.729 19.45L437.641 19.0396L436.729 19.45ZM439.429 22.65L438.874 23.4821L438.885 23.489L439.429 22.65ZM444.129 28.7C439.724 28.7 436.507 27.4455 434.313 25.0713L432.844 26.4287C435.517 29.3211 439.334 30.7 444.129 30.7V28.7ZM434.318 25.076C432.091 22.636 430.929 19.3147 430.929 15H428.929C428.929 19.6853 430.2 23.5307 432.84 26.424L434.318 25.076ZM430.929 15C430.929 12.1479 431.426 9.7348 432.382 7.73047L430.576 6.86953C429.466 9.19853 428.929 11.9187 428.929 15H430.929ZM432.379 7.73627C433.358 5.71555 434.802 4.16708 436.725 3.06824L435.733 1.33176C433.456 2.63292 431.733 4.48445 430.579 6.86373L432.379 7.73627ZM436.735 3.06229C438.642 1.94233 441.088 1.35 444.129 1.35V-0.650001C440.836 -0.650001 438.016 -0.00899601 435.722 1.33771L436.735 3.06229ZM444.129 1.35C448.567 1.35 451.777 2.62047 453.936 5.01896L455.422 3.68103C452.781 0.746192 448.958 -0.650001 444.129 -0.650001V1.35ZM453.94 5.0236C456.132 7.42932 457.279 10.7168 457.279 15H459.279C459.279 10.3499 458.025 6.53735 455.418 3.6764L453.94 5.0236ZM457.279 15C457.279 17.7763 456.769 20.1915 455.777 22.269L457.581 23.131C458.722 20.7418 459.279 18.0237 459.279 15H457.279ZM455.779 22.2637C454.798 24.2867 453.351 25.8548 451.422 26.9877L452.435 28.7123C454.706 27.3785 456.426 25.5133 457.579 23.1363L455.779 22.2637ZM451.422 26.9877C449.513 28.1094 447.099 28.7 444.129 28.7V30.7C447.359 30.7 450.145 30.0573 452.435 28.7123L451.422 26.9877ZM444.079 24.85C446.05 24.85 447.778 24.4373 449.207 23.5493L448.151 21.8507C447.113 22.496 445.774 22.85 444.079 22.85V24.85ZM449.223 23.539C450.617 22.635 451.662 21.4199 452.341 19.9104L450.517 19.0896C449.996 20.2467 449.208 21.165 448.135 21.861L449.223 23.539ZM452.341 19.9104C453.006 18.4311 453.329 16.7884 453.329 15H451.329C451.329 16.5449 451.051 17.9022 450.517 19.0896L452.341 19.9104ZM453.329 15C453.329 13.2111 453.006 11.5554 452.345 10.048L450.513 10.852C451.051 12.0779 451.329 13.4555 451.329 15H453.329ZM452.345 10.048C451.667 8.50545 450.623 7.26902 449.223 6.36104L448.135 8.03896C449.202 8.73098 449.99 9.66121 450.513 10.852L452.345 10.048ZM449.223 6.36104C447.792 5.43267 446.058 5 444.079 5V7C445.767 7 447.099 7.36732 448.135 8.03896L449.223 6.36104ZM444.079 5C441.154 5 438.79 5.93192 437.157 7.91429L438.701 9.18571C439.868 7.76808 441.604 7 444.079 7V5ZM437.163 7.90681C435.582 9.78941 434.829 12.1828 434.829 15H436.829C436.829 12.5506 437.476 10.6439 438.695 9.19319L437.163 7.90681ZM434.829 15C434.829 16.7582 435.152 18.3837 435.817 19.8604L437.641 19.0396C437.105 17.8497 436.829 16.5085 436.829 15H434.829ZM435.817 19.8604C436.493 21.3625 437.516 22.5763 438.874 23.4821L439.984 21.818C438.942 21.1237 438.165 20.2041 437.641 19.0396L435.817 19.8604ZM438.885 23.489C440.319 24.4191 442.071 24.85 444.079 24.85V22.85C442.354 22.85 441.006 22.4809 439.973 21.811L438.885 23.489ZM481.691 0.849998V-0.150002H480.691V0.849998H481.691ZM487.991 0.849998H488.991V-0.150002H487.991V0.849998ZM487.991 29V30H488.991V29H487.991ZM476.441 29L475.481 29.2804L475.691 30H476.441V29ZM468.991 3.5L469.951 3.21956L469.74 2.5H468.991V3.5ZM468.891 3.5V2.5H467.891V3.5H468.891ZM468.891 29V30H469.891V29H468.891ZM462.641 29H461.641V30H462.641V29ZM462.641 0.849998V-0.150002H461.641V0.849998H462.641ZM473.341 0.849998L474.292 0.542178L474.068 -0.150002H473.341V0.849998ZM481.591 26.35L480.639 26.6578L480.863 27.35H481.591V26.35ZM481.691 26.35V27.35H482.691V26.35H481.691ZM481.691 1.85H487.991V-0.150002H481.691V1.85ZM486.991 0.849998V29H488.991V0.849998H486.991ZM487.991 28H476.441V30H487.991V28ZM477.401 28.7196L469.951 3.21956L468.031 3.78043L475.481 29.2804L477.401 28.7196ZM468.991 2.5H468.891V4.5H468.991V2.5ZM467.891 3.5V29H469.891V3.5H467.891ZM468.891 28H462.641V30H468.891V28ZM463.641 29V0.849998H461.641V29H463.641ZM462.641 1.85H473.341V-0.150002H462.641V1.85ZM472.389 1.15782L480.639 26.6578L482.542 26.0422L474.292 0.542178L472.389 1.15782ZM481.591 27.35H481.691V25.35H481.591V27.35ZM482.691 26.35V0.849998H480.691V26.35H482.691ZM491.299 6H490.299V7H491.299V6ZM491.299 0.849998V-0.150002H490.299V0.849998H491.299ZM513.299 0.849998H514.299V-0.150002H513.299V0.849998ZM513.299 6V7H514.299V6H513.299ZM505.299 6V5H504.299V6H505.299ZM505.299 29V30H506.299V29H505.299ZM499.249 29H498.249V30H499.249V29ZM499.249 6H500.249V5H499.249V6ZM492.299 6V0.849998H490.299V6H492.299ZM491.299 1.85H513.299V-0.150002H491.299V1.85ZM512.299 0.849998V6H514.299V0.849998H512.299ZM513.299 5H505.299V7H513.299V5ZM504.299 6V29H506.299V6H504.299ZM505.299 28H499.249V30H505.299V28ZM500.249 29V6H498.249V29H500.249ZM499.249 5H491.299V7H499.249V5ZM523.713 24.15H522.713V25.15H523.713V24.15ZM539.013 24.15H540.013V23.15H539.013V24.15ZM539.013 29V30H540.013V29H539.013ZM517.813 29H516.813V30H517.813V29ZM517.813 0.849998V-0.150002H516.813V0.849998H517.813ZM538.513 0.849998H539.513V-0.150002H538.513V0.849998ZM538.513 6V7H539.513V6H538.513ZM523.713 6V5H522.713V6H523.713ZM523.713 12.3H522.713V13.3H523.713V12.3ZM534.913 12.3H535.913V11.3H534.913V12.3ZM534.913 17.2V18.2H535.913V17.2H534.913ZM523.713 17.2V16.2H522.713V17.2H523.713ZM523.713 25.15H539.013V23.15H523.713V25.15ZM538.013 24.15V29H540.013V24.15H538.013ZM539.013 28H517.813V30H539.013V28ZM518.813 29V0.849998H516.813V29H518.813ZM517.813 1.85H538.513V-0.150002H517.813V1.85ZM537.513 0.849998V6H539.513V0.849998H537.513ZM538.513 5H523.713V7H538.513V5ZM522.713 6V12.3H524.713V6H522.713ZM523.713 13.3H534.913V11.3H523.713V13.3ZM533.913 12.3V17.2H535.913V12.3H533.913ZM534.913 16.2H523.713V18.2H534.913V16.2ZM522.713 17.2V24.15H524.713V17.2H522.713ZM562.599 0.849998V-0.150002H561.599V0.849998H562.599ZM568.899 0.849998H569.899V-0.150002H568.899V0.849998ZM568.899 29V30H569.899V29H568.899ZM557.349 29L556.389 29.2804L556.599 30H557.349V29ZM549.899 3.5L550.859 3.21956L550.648 2.5H549.899V3.5ZM549.799 3.5V2.5H548.799V3.5H549.799ZM549.799 29V30H550.799V29H549.799ZM543.549 29H542.549V30H543.549V29ZM543.549 0.849998V-0.150002H542.549V0.849998H543.549ZM554.249 0.849998L555.2 0.542178L554.976 -0.150002H554.249V0.849998ZM562.499 26.35L561.547 26.6578L561.771 27.35H562.499V26.35ZM562.599 26.35V27.35H563.599V26.35H562.599ZM562.599 1.85H568.899V-0.150002H562.599V1.85ZM567.899 0.849998V29H569.899V0.849998H567.899ZM568.899 28H557.349V30H568.899V28ZM558.309 28.7196L550.859 3.21956L548.939 3.78043L556.389 29.2804L558.309 28.7196ZM549.899 2.5H549.799V4.5H549.899V2.5ZM548.799 3.5V29H550.799V3.5H548.799ZM549.799 28H543.549V30H549.799V28ZM544.549 29V0.849998H542.549V29H544.549ZM543.549 1.85H554.249V-0.150002H543.549V1.85ZM553.297 1.15782L561.547 26.6578L563.45 26.0422L555.2 0.542178L553.297 1.15782ZM562.499 27.35H562.599V25.35H562.499V27.35ZM563.599 26.35V0.849998H561.599V26.35H563.599ZM598.357 23.55L599.168 24.135L599.173 24.1287L598.357 23.55ZM592.107 27.8L591.823 26.8412L591.82 26.8422L592.107 27.8ZM574.807 29H573.807V30H574.807V29ZM574.807 0.849998V-0.150002H573.807V0.849998H574.807ZM592.107 2.45L591.736 3.37848L591.743 3.38126L591.75 3.38394L592.107 2.45ZM598.357 7.1L599.173 6.52125L598.357 7.1ZM580.757 24.05H579.757V25.05H580.757V24.05ZM589.607 23.35L589.917 24.301L589.93 24.2965L589.607 23.35ZM592.957 20.65L592.099 20.1355L592.096 20.142L592.957 20.65ZM591.557 8.25L590.911 9.01339L591.557 8.25ZM580.757 6.05V5.05H579.757V6.05H580.757ZM599.557 14.9C599.557 18.4837 598.844 21.1353 597.542 22.9713L599.173 24.1287C600.803 21.8314 601.557 18.7163 601.557 14.9H599.557ZM597.546 22.965C596.225 24.7969 594.338 26.0959 591.823 26.8412L592.391 28.7588C595.276 27.9041 597.556 26.3698 599.168 24.135L597.546 22.965ZM591.82 26.8422C589.269 27.6074 586.237 28 582.707 28V30C586.377 30 589.612 29.5926 592.394 28.7578L591.82 26.8422ZM582.707 28H574.807V30H582.707V28ZM575.807 29V0.849998H573.807V29H575.807ZM574.807 1.85H582.707V-0.150002H574.807V1.85ZM582.707 1.85C586.211 1.85 589.213 2.36936 591.736 3.37848L592.478 1.52152C589.668 0.397302 586.403 -0.150002 582.707 -0.150002V1.85ZM591.75 3.38394C594.292 4.35694 596.205 5.79498 597.542 7.67875L599.173 6.52125C597.576 4.27168 595.322 2.60973 592.464 1.51606L591.75 3.38394ZM597.542 7.67875C598.862 9.53989 599.557 11.9244 599.557 14.9H601.557C601.557 11.6089 600.785 8.79344 599.173 6.52125L597.542 7.67875ZM580.757 25.05H584.507V23.05H580.757V25.05ZM584.507 25.05C586.549 25.05 588.358 24.8083 589.917 24.3009L589.297 22.3991C587.989 22.8251 586.399 23.05 584.507 23.05V25.05ZM589.93 24.2965C591.616 23.7217 592.927 22.6698 593.818 21.158L592.096 20.142C591.454 21.2302 590.531 21.9783 589.284 22.4035L589.93 24.2965ZM593.815 21.1645C594.749 19.6067 595.157 17.4621 595.157 14.85H593.157C593.157 17.3045 592.765 19.0267 592.1 20.1355L593.815 21.1645ZM595.157 14.85C595.157 11.7147 594.223 9.1957 592.203 7.48661L590.911 9.01339C592.358 10.2376 593.157 12.1186 593.157 14.85H595.157ZM592.203 7.48661C590.24 5.82553 587.637 5.05 584.507 5.05V7.05C587.311 7.05 589.408 7.74114 590.911 9.01339L592.203 7.48661ZM584.507 5.05H580.757V7.05H584.507V5.05ZM579.757 6.05V24.05H581.757V6.05H579.757ZM642.567 29.15L642.161 30.0638L643.026 30.4484L643.457 29.6053L642.567 29.15ZM639.117 27.55L638.648 28.4331L638.664 28.4418L638.681 28.4498L639.117 27.55ZM635.967 25.75L636.489 24.8974L635.882 24.5251L635.332 24.9776L635.967 25.75ZM630.967 28.55L631.278 29.5004L631.286 29.4979L631.293 29.4952L630.967 28.55ZM625.467 29.4L625.485 28.4002L625.476 28.4H625.467V29.4ZM620.417 28.45L620.035 29.3743L620.417 28.45ZM616.717 25.65L615.912 26.2432L615.919 26.2534L616.717 25.65ZM616.167 17.4L617.022 17.919L616.167 17.4ZM618.167 15.2L618.738 16.0209L618.745 16.016L618.167 15.2ZM620.317 13.95L619.945 13.0215L619.937 13.0249L619.929 13.0284L620.317 13.95ZM621.567 13.45L621.938 14.3785L623.15 13.8939L622.367 12.85L621.567 13.45ZM620.617 12.45L619.867 13.1116L619.888 13.135L619.91 13.1571L620.617 12.45ZM619.167 10.25L618.272 10.6972L618.276 10.7038L618.279 10.7103L619.167 10.25ZM619.617 3.4L618.833 2.7786V2.7786L619.617 3.4ZM622.617 1.2L622.25 0.269803L622.241 0.273258L622.617 1.2ZM626.567 0.399999L626.543 -0.599718L626.542 -0.599704L626.567 0.399999ZM633.517 3.2L632.733 3.82139L632.74 3.82955L632.746 3.83757L633.517 3.2ZM633.867 10L633.021 9.46718L633.013 9.4786L633.007 9.4902L633.867 10ZM631.967 12.25L632.6 13.024L631.967 12.25ZM630.017 13.65L630.485 14.5338L630.505 14.5233L630.524 14.5119L630.017 13.65ZM629.067 14.15L628.62 13.2556L627.573 13.7789L628.253 14.7312L629.067 14.15ZM630.567 15.75L629.86 16.4571L629.867 16.4643L629.874 16.4714L630.567 15.75ZM633.817 18.6L633.18 19.3714L633.964 20.0174L634.598 19.2247L633.817 18.6ZM634.417 17.5L633.533 17.0321L633.522 17.0529L633.512 17.0742L634.417 17.5ZM634.917 15.65L635.916 15.6999L635.916 15.6976L634.917 15.65ZM633.917 13.7L633.379 12.8567L632.242 13.5815L633.266 14.4593L633.917 13.7ZM639.017 10.45L639.724 9.74289L639.156 9.1753L638.479 9.60668L639.017 10.45ZM639.717 11.65L638.831 12.114L638.839 12.1302L638.849 12.1461L639.717 11.65ZM640.717 14.35L639.745 14.5856L639.749 14.6033L639.754 14.6207L640.717 14.35ZM640.917 17.95L639.924 17.826L639.923 17.837L639.922 17.848L640.917 17.95ZM639.217 21.9L638.417 21.3L637.761 22.1747L638.69 22.7503L639.217 21.9ZM641.517 23.25L641.028 24.1225L641.035 24.1265L641.043 24.1305L641.517 23.25ZM644.817 24.75L645.707 25.2053L646.206 24.2288L645.188 23.8215L644.817 24.75ZM625.717 11.35L624.974 12.019L625.5 12.6045L626.193 12.2293L625.717 11.35ZM628.167 9.8L628.751 10.6115L628.762 10.604L628.772 10.5962L628.167 9.8ZM629.567 7.75L630.558 7.88511L630.559 7.87488L630.56 7.86462L629.567 7.75ZM628.867 5.75L628.231 6.52193L628.867 5.75ZM626.817 5L626.73 5.99624L626.753 5.99819L626.775 5.99913L626.817 5ZM624.717 5.55L624.152 4.72469L624.142 4.73187L624.131 4.73932L624.717 5.55ZM623.867 7.55L624.866 7.52223L624.866 7.51299L623.867 7.55ZM631.267 22.3L631.96 23.0208L632.797 22.2157L631.877 21.5074L631.267 22.3ZM627.767 19.35L627.072 20.069L627.078 20.0747L627.084 20.0803L627.767 19.35ZM624.817 16.25L625.568 15.5899L625.067 15.0197L624.383 15.349L624.817 16.25ZM622.317 17.75L621.722 16.9458L621.714 16.9522L621.705 16.9587L622.317 17.75ZM622.267 22.85L621.577 23.5741L621.586 23.583L621.596 23.5915L622.267 22.85ZM624.917 24.15L624.703 25.1269L624.72 25.1307L624.738 25.1339L624.917 24.15ZM628.267 24L628.523 24.9667L628.267 24ZM642.973 28.2362C641.782 27.707 640.642 27.1783 639.553 26.6502L638.681 28.4498C639.791 28.9883 640.951 29.5263 642.161 30.0638L642.973 28.2362ZM639.586 26.6669C638.537 26.1099 637.505 25.5201 636.489 24.8974L635.444 26.6026C636.495 27.2466 637.563 27.8568 638.648 28.4331L639.586 26.6669ZM635.332 24.9776C633.923 26.1355 632.361 27.0103 630.64 27.6048L631.293 29.4952C633.239 28.823 635.01 27.8311 636.602 26.5224L635.332 24.9776ZM630.656 27.5996C628.923 28.1667 627.201 28.4314 625.485 28.4002L625.449 30.3998C627.399 30.4353 629.344 30.1333 631.278 29.5004L630.656 27.5996ZM625.467 28.4C623.751 28.4 622.199 28.1041 620.799 27.5257L620.035 29.3743C621.702 30.0626 623.516 30.4 625.467 30.4V28.4ZM620.799 27.5257C619.417 26.9553 618.332 26.1275 617.514 25.0466L615.919 26.2534C616.968 27.6391 618.349 28.678 620.035 29.3743L620.799 27.5257ZM617.522 25.0568C616.737 23.9923 616.317 22.6442 616.317 20.95H614.317C614.317 22.9892 614.829 24.7744 615.912 26.2432L617.522 25.0568ZM616.317 20.95C616.317 19.6438 616.575 18.6541 617.022 17.919L615.312 16.881C614.625 18.0125 614.317 19.3895 614.317 20.95H616.317ZM617.022 17.919C617.528 17.085 618.104 16.4622 618.738 16.0209L617.596 14.3791C616.697 15.0045 615.939 15.8483 615.312 16.881L617.022 17.919ZM618.745 16.016C619.508 15.4751 620.16 15.101 620.705 14.8716L619.929 13.0284C619.207 13.3324 618.425 13.7915 617.589 14.384L618.745 16.016ZM620.688 14.8785C621.355 14.6118 621.772 14.4451 621.938 14.3785L621.195 12.5215C621.029 12.5882 620.612 12.7549 619.945 13.0215L620.688 14.8785ZM622.367 12.85C622.214 12.6458 621.834 12.2532 621.324 11.7429L619.91 13.1571C620.174 13.421 620.379 13.6309 620.529 13.7887C620.604 13.8677 620.662 13.9305 620.705 13.9785C620.752 14.0306 620.768 14.0512 620.767 14.05L622.367 12.85ZM621.367 11.7884C620.935 11.2997 620.496 10.6401 620.055 9.78968L618.279 10.7103C618.771 11.6599 619.298 12.467 619.867 13.1116L621.367 11.7884ZM620.061 9.80278C619.677 9.03489 619.467 8.09416 619.467 6.95H617.467C617.467 8.33917 617.723 9.59844 618.272 10.6972L620.061 9.80278ZM619.467 6.95C619.467 5.74361 619.792 4.78773 620.4 4.02139L618.833 2.7786C617.908 3.9456 617.467 5.35639 617.467 6.95H619.467ZM620.4 4.02139C621.051 3.20057 621.906 2.56713 622.992 2.12674L622.241 0.273258C620.861 0.832869 619.716 1.66609 618.833 2.7786L620.4 4.02139ZM622.984 2.13015C624.141 1.67346 625.341 1.43018 626.591 1.3997L626.542 -0.599704C625.059 -0.563518 623.626 -0.273469 622.25 0.269842L622.984 2.13015ZM626.591 1.39972C627.87 1.36926 629.057 1.56702 630.163 1.98529L630.871 0.114713C629.509 -0.400352 628.064 -0.635927 626.543 -0.599718L626.591 1.39972ZM630.163 1.98529C631.239 2.3926 632.087 3.00601 632.733 3.82139L634.3 2.5786C633.414 1.46065 632.261 0.640728 630.871 0.114713L630.163 1.98529ZM632.746 3.83757C633.374 4.5955 633.717 5.57483 633.717 6.85H635.717C635.717 5.19183 635.26 3.73783 634.287 2.56243L632.746 3.83757ZM633.717 6.85C633.717 7.88632 633.474 8.74656 633.021 9.46718L634.713 10.5328C635.393 9.45344 635.717 8.21368 635.717 6.85H633.717ZM633.007 9.4902C632.527 10.3 631.967 10.9575 631.334 11.476L632.6 13.024C633.433 12.3425 634.14 11.5 634.727 10.5098L633.007 9.4902ZM631.334 11.476C630.624 12.0564 630.018 12.4894 629.51 12.7881L630.524 14.5119C631.149 14.144 631.843 13.6436 632.6 13.024L631.334 11.476ZM629.549 12.7662C628.974 13.0706 628.673 13.229 628.62 13.2556L629.514 15.0444C629.594 15.0043 629.926 14.8294 630.485 14.5338L629.549 12.7662ZM628.253 14.7312C628.479 15.0475 629.049 15.6469 629.86 16.4571L631.274 15.0429C630.417 14.1864 629.988 13.7192 629.881 13.5688L628.253 14.7312ZM629.874 16.4714C630.732 17.295 631.836 18.2624 633.18 19.3714L634.453 17.8286C633.131 16.7376 632.068 15.805 631.259 15.0286L629.874 16.4714ZM634.598 19.2247C634.817 18.951 635.063 18.4758 635.322 17.9258L633.512 17.0742C633.383 17.3475 633.276 17.5615 633.189 17.7211C633.146 17.8007 633.11 17.862 633.081 17.9075C633.067 17.93 633.056 17.9469 633.048 17.9589C633.039 17.9712 633.035 17.9761 633.036 17.9753L634.598 19.2247ZM635.301 17.9679C635.672 17.2666 635.875 16.5065 635.916 15.6999L633.918 15.6001C633.892 16.1268 633.762 16.6 633.533 17.0321L635.301 17.9679ZM635.916 15.6976C635.968 14.5974 635.422 13.673 634.568 12.9407L633.266 14.4593C633.812 14.927 633.932 15.3026 633.918 15.6024L635.916 15.6976ZM634.454 14.5433L639.554 11.2933L638.479 9.60668L633.379 12.8567L634.454 14.5433ZM638.31 11.1571C638.26 11.1079 638.248 11.0814 638.285 11.136C638.311 11.1755 638.35 11.238 638.403 11.3289C638.509 11.5098 638.651 11.7695 638.831 12.114L640.603 11.186C640.416 10.8305 640.258 10.5402 640.131 10.3211C640.03 10.1479 639.883 9.90157 639.724 9.74289L638.31 11.1571ZM638.849 12.1461C639.187 12.7391 639.492 13.5431 639.745 14.5856L641.689 14.1144C641.408 12.9569 641.046 11.9609 640.585 11.1539L638.849 12.1461ZM639.754 14.6207C640.011 15.5349 640.078 16.5974 639.924 17.826L641.909 18.074C642.089 16.6359 642.022 15.2984 641.679 14.0793L639.754 14.6207ZM639.922 17.848C639.812 18.924 639.337 20.0725 638.417 21.3L640.017 22.5C641.096 21.0608 641.755 19.576 641.912 18.052L639.922 17.848ZM638.69 22.7503C639.405 23.1924 640.184 23.6498 641.028 24.1225L642.005 22.3775C641.183 21.9169 640.429 21.4743 639.743 21.0497L638.69 22.7503ZM641.043 24.1305C641.954 24.6212 643.091 25.1368 644.445 25.6785L645.188 23.8215C643.876 23.2965 642.813 22.8122 641.991 22.3695L641.043 24.1305ZM643.926 24.2947L641.676 28.6947L643.457 29.6053L645.707 25.2053L643.926 24.2947ZM626.193 12.2293C627.035 11.7733 627.888 11.2333 628.751 10.6115L627.583 8.98846C626.779 9.56671 625.999 10.06 625.241 10.4707L626.193 12.2293ZM628.772 10.5962C629.728 9.86956 630.409 8.97391 630.558 7.88511L628.576 7.61489C628.524 7.99275 628.272 8.46377 627.562 9.00384L628.772 10.5962ZM630.56 7.86462C630.691 6.73451 630.384 5.70366 629.503 4.97807L628.231 6.52193C628.483 6.72968 628.643 7.03215 628.573 7.63538L630.56 7.86462ZM629.503 4.97807C628.752 4.3603 627.855 4.04239 626.858 4.00087L626.775 5.99913C627.379 6.02427 627.848 6.20636 628.231 6.52193L629.503 4.97807ZM626.903 4.00376C625.907 3.91712 624.977 4.1604 624.152 4.72469L625.281 6.37531C625.723 6.07294 626.193 5.94954 626.73 5.99624L626.903 4.00376ZM624.131 4.73932C623.199 5.41232 622.825 6.43586 622.867 7.58701L624.866 7.51299C624.842 6.86413 625.034 6.55435 625.302 6.36068L624.131 4.73932ZM622.867 7.57777C622.91 9.10819 623.691 10.5935 624.974 12.019L626.46 10.681C625.343 9.43984 624.891 8.3918 624.866 7.52223L622.867 7.57777ZM631.877 21.5074C630.598 20.524 629.456 19.5613 628.45 18.6197L627.084 20.0803C628.144 21.072 629.336 22.076 630.657 23.0926L631.877 21.5074ZM628.462 18.631C627.482 17.6842 626.518 16.6706 625.568 15.5899L624.066 16.9101C625.049 18.0294 626.051 19.0825 627.072 20.069L628.462 18.631ZM624.383 15.349C623.429 15.8082 622.542 16.3402 621.722 16.9458L622.911 18.5542C623.625 18.0265 624.404 17.5585 625.251 17.151L624.383 15.349ZM621.705 16.9587C620.68 17.7512 620.217 18.9053 620.217 20.25H622.217C622.217 19.3947 622.487 18.8821 622.928 18.5413L621.705 16.9587ZM620.217 20.25C620.217 21.559 620.657 22.6982 621.577 23.5741L622.956 22.1259C622.476 21.6685 622.217 21.0743 622.217 20.25H620.217ZM621.596 23.5915C622.444 24.3591 623.493 24.8622 624.703 25.1269L625.13 23.1731C624.207 22.9711 623.489 22.6076 622.938 22.1085L621.596 23.5915ZM624.738 25.1339C625.989 25.3614 627.255 25.3024 628.523 24.9667L628.011 23.0333C627.012 23.2976 626.044 23.3386 625.096 23.1661L624.738 25.1339ZM628.523 24.9667C629.825 24.6221 630.974 23.9688 631.96 23.0208L630.574 21.5792C629.826 22.2979 628.976 22.7779 628.011 23.0333L628.523 24.9667ZM661.883 26.4L661.155 27.085L661.16 27.0906L661.165 27.0961L661.883 26.4ZM658.733 0.849998V-0.150002H657.733V0.849998H658.733ZM665.183 0.849998H666.183V-0.150002H665.183V0.849998ZM666.133 21.4L665.288 21.9351L665.295 21.945L665.301 21.9547L666.133 21.4ZM668.533 23.45L668.168 24.3808L668.182 24.3865L668.197 24.3917L668.533 23.45ZM674.133 23.45L674.47 24.3917L674.484 24.3865L674.499 24.3808L674.133 23.45ZM677.333 0.849998V-0.150002H676.333V0.849998H677.333ZM683.783 0.849998H684.783V-0.150002H683.783V0.849998ZM680.633 26.45L679.91 25.7595L679.91 25.7598L680.633 26.45ZM671.233 28.7C667.309 28.7 664.489 27.6507 662.601 25.7039L661.165 27.0961C663.544 29.5493 666.957 30.7 671.233 30.7V28.7ZM662.612 25.715C660.736 23.7196 659.733 20.8614 659.733 17H657.733C657.733 21.2053 658.831 24.6137 661.155 27.085L662.612 25.715ZM659.733 17V0.849998H657.733V17H659.733ZM658.733 1.85H665.183V-0.150002H658.733V1.85ZM664.183 0.849998V16.95H666.183V0.849998H664.183ZM664.183 16.95C664.183 18.9939 664.507 20.7011 665.288 21.9351L666.978 20.8649C666.493 20.0989 666.183 18.8394 666.183 16.95H664.183ZM665.301 21.9547C666.058 23.0903 667.009 23.9255 668.168 24.3808L668.899 22.5192C668.191 22.2411 667.542 21.7097 666.965 20.8453L665.301 21.9547ZM668.197 24.3917C669.223 24.7582 670.237 24.95 671.233 24.95V22.95C670.496 22.95 669.71 22.8085 668.87 22.5083L668.197 24.3917ZM671.233 24.95C672.347 24.95 673.427 24.764 674.47 24.3917L673.797 22.5083C672.972 22.8027 672.12 22.95 671.233 22.95V24.95ZM674.499 24.3808C675.67 23.9207 676.596 23.0716 677.291 21.9145L675.576 20.8855C675.07 21.7284 674.463 22.246 673.768 22.5192L674.499 24.3808ZM677.291 21.9145C678.028 20.686 678.333 18.9878 678.333 16.95H676.333C676.333 18.8456 676.039 20.114 675.576 20.8855L677.291 21.9145ZM678.333 16.95V0.849998H676.333V16.95H678.333ZM677.333 1.85H683.783V-0.150002H677.333V1.85ZM682.783 0.849998V17H684.783V0.849998H682.783ZM682.783 17C682.783 20.9343 681.778 23.8026 679.91 25.7595L681.357 27.1405C683.689 24.6974 684.783 21.2657 684.783 17H682.783ZM679.91 25.7598C678.097 27.6598 675.272 28.7 671.233 28.7V30.7C675.594 30.7 679.036 29.5735 681.357 27.1402L679.91 25.7598ZM702.757 23.85H703.757V22.85H702.757V23.85ZM702.757 29V30H703.757V29H702.757ZM689.407 29H688.407V30H689.407V29ZM689.407 23.85V22.85H688.407V23.85H689.407ZM693.107 23.85V24.85H694.107V23.85H693.107ZM693.107 6H694.107V5H693.107V6ZM689.407 6H688.407V7H689.407V6ZM689.407 0.849998V-0.150002H688.407V0.849998H689.407ZM702.757 0.849998H703.757V-0.150002H702.757V0.849998ZM702.757 6V7H703.757V6H702.757ZM699.107 6V5H698.107V6H699.107ZM699.107 23.85H698.107V24.85H699.107V23.85ZM701.757 23.85V29H703.757V23.85H701.757ZM702.757 28H689.407V30H702.757V28ZM690.407 29V23.85H688.407V29H690.407ZM689.407 24.85H693.107V22.85H689.407V24.85ZM694.107 23.85V6H692.107V23.85H694.107ZM693.107 5H689.407V7H693.107V5ZM690.407 6V0.849998H688.407V6H690.407ZM689.407 1.85H702.757V-0.150002H689.407V1.85ZM701.757 0.849998V6H703.757V0.849998H701.757ZM702.757 5H699.107V7H702.757V5ZM698.107 6V23.85H700.107V6H698.107ZM699.107 24.85H702.757V22.85H699.107V24.85ZM717.879 29L716.967 28.5888L716.331 30H717.879V29ZM730.579 0.849998V-0.150002H729.933L729.667 0.438759L730.579 0.849998ZM736.229 0.849998L737.14 1.26124L737.777 -0.150002H736.229V0.849998ZM723.529 29V30H724.175L724.44 29.4112L723.529 29ZM718.79 29.4112L731.49 1.26124L729.667 0.438759L716.967 28.5888L718.79 29.4112ZM730.579 1.85H736.229V-0.150002H730.579V1.85ZM735.317 0.438759L722.617 28.5888L724.44 29.4112L737.14 1.26124L735.317 0.438759ZM723.529 28H717.879V30H723.529V28ZM753.045 26.4L752.317 27.085L752.322 27.0906L752.327 27.0961L753.045 26.4ZM749.895 0.849998V-0.150002H748.895V0.849998H749.895ZM756.345 0.849998H757.345V-0.150002H756.345V0.849998ZM757.295 21.4L756.451 21.9351L756.457 21.945L756.463 21.9547L757.295 21.4ZM759.695 23.45L759.33 24.3808L759.344 24.3865L759.359 24.3917L759.695 23.45ZM765.295 23.45L765.632 24.3917L765.646 24.3865L765.661 24.3808L765.295 23.45ZM768.495 0.849998V-0.150002H767.495V0.849998H768.495ZM774.945 0.849998H775.945V-0.150002H774.945V0.849998ZM771.795 26.45L771.072 25.7595L771.072 25.7598L771.795 26.45ZM762.395 28.7C758.471 28.7 755.651 27.6507 753.763 25.7039L752.327 27.0961C754.706 29.5493 758.12 30.7 762.395 30.7V28.7ZM753.774 25.715C751.898 23.7196 750.895 20.8614 750.895 17H748.895C748.895 21.2053 749.993 24.6137 752.317 27.085L753.774 25.715ZM750.895 17V0.849998H748.895V17H750.895ZM749.895 1.85H756.345V-0.150002H749.895V1.85ZM755.345 0.849998V16.95H757.345V0.849998H755.345ZM755.345 16.95C755.345 18.9939 755.669 20.7011 756.451 21.9351L758.14 20.8649C757.655 20.0989 757.345 18.8394 757.345 16.95H755.345ZM756.463 21.9547C757.22 23.0903 758.171 23.9255 759.33 24.3808L760.061 22.5192C759.353 22.2411 758.704 21.7097 758.127 20.8453L756.463 21.9547ZM759.359 24.3917C760.385 24.7582 761.399 24.95 762.395 24.95V22.95C761.658 22.95 760.872 22.8085 760.032 22.5083L759.359 24.3917ZM762.395 24.95C763.509 24.95 764.589 24.764 765.632 24.3917L764.959 22.5083C764.135 22.8027 763.282 22.95 762.395 22.95V24.95ZM765.661 24.3808C766.832 23.9207 767.759 23.0716 768.453 21.9145L766.738 20.8855C766.232 21.7284 765.625 22.246 764.93 22.5192L765.661 24.3808ZM768.453 21.9145C769.19 20.686 769.495 18.9878 769.495 16.95H767.495C767.495 18.8456 767.201 20.114 766.738 20.8855L768.453 21.9145ZM769.495 16.95V0.849998H767.495V16.95H769.495ZM768.495 1.85H774.945V-0.150002H768.495V1.85ZM773.945 0.849998V17H775.945V0.849998H773.945ZM773.945 17C773.945 20.9343 772.94 23.8026 771.072 25.7595L772.519 27.1405C774.851 24.6974 775.945 21.2657 775.945 17H773.945ZM771.072 25.7598C769.259 27.6598 766.434 28.7 762.395 28.7V30.7C766.756 30.7 770.198 29.5735 772.519 27.1402L771.072 25.7598ZM778.369 29L777.536 28.4459L776.502 30H778.369V29ZM788.219 14.2L789.051 14.7541L789.424 14.1933L789.045 13.6368L788.219 14.2ZM779.119 0.849998V-0.150002H777.227L778.292 1.41324L779.119 0.849998ZM786.269 0.849998L787.122 0.327845L786.829 -0.150002H786.269V0.849998ZM792.269 10.65L791.416 11.1722L792.269 12.5651L793.122 11.1722L792.269 10.65ZM798.269 0.849998V-0.150002H797.708L797.416 0.327845L798.269 0.849998ZM805.319 0.849998L806.148 1.40899L807.199 -0.150002H805.319V0.849998ZM796.319 14.2L795.49 13.641L795.115 14.1964L795.486 14.7541L796.319 14.2ZM806.169 29V30H808.036L807.001 28.4459L806.169 29ZM799.169 29L798.321 29.5297L798.614 30H799.169V29ZM792.269 17.95L793.117 17.4203L792.266 16.057L791.419 17.4231L792.269 17.95ZM785.419 29V30H785.975L786.269 29.5269L785.419 29ZM779.201 29.5541L789.051 14.7541L787.386 13.6459L777.536 28.4459L779.201 29.5541ZM789.045 13.6368L779.945 0.286758L778.292 1.41324L787.392 14.7632L789.045 13.6368ZM779.119 1.85H786.269V-0.150002H779.119V1.85ZM785.416 1.37215L791.416 11.1722L793.122 10.1278L787.122 0.327845L785.416 1.37215ZM793.122 11.1722L799.122 1.37215L797.416 0.327845L791.416 10.1278L793.122 11.1722ZM798.269 1.85H805.319V-0.150002H798.269V1.85ZM804.49 0.291006L795.49 13.641L797.148 14.759L806.148 1.40899L804.49 0.291006ZM795.486 14.7541L805.336 29.5541L807.001 28.4459L797.151 13.6459L795.486 14.7541ZM806.169 28H799.169V30H806.169V28ZM800.017 28.4703L793.117 17.4203L791.421 18.4797L798.321 29.5297L800.017 28.4703ZM791.419 17.4231L784.569 28.4731L786.269 29.5269L793.119 18.4769L791.419 17.4231ZM785.419 28H778.369V30H785.419V28ZM843.621 23.55L844.432 24.135L844.436 24.1287L843.621 23.55ZM837.371 27.8L837.087 26.8412L837.083 26.8422L837.371 27.8ZM820.071 29H819.071V30H820.071V29ZM820.071 0.849998V-0.150002H819.071V0.849998H820.071ZM837.371 2.45L836.999 3.37848L837.006 3.38126L837.013 3.38394L837.371 2.45ZM843.621 7.1L844.436 6.52125L843.621 7.1ZM826.021 24.05H825.021V25.05H826.021V24.05ZM834.871 23.35L835.18 24.301L835.193 24.2965L834.871 23.35ZM838.221 20.65L837.363 20.1355L837.359 20.142L838.221 20.65ZM836.821 8.25L836.175 9.01339L836.821 8.25ZM826.021 6.05V5.05H825.021V6.05H826.021ZM844.821 14.9C844.821 18.4837 844.108 21.1353 842.805 22.9713L844.436 24.1287C846.067 21.8314 846.821 18.7163 846.821 14.9H844.821ZM842.81 22.965C841.488 24.7969 839.602 26.0959 837.087 26.8412L837.655 28.7588C840.539 27.9041 842.82 26.3698 844.432 24.135L842.81 22.965ZM837.083 26.8422C834.533 27.6074 831.5 28 827.971 28V30C831.641 30 834.875 29.5926 837.658 28.7578L837.083 26.8422ZM827.971 28H820.071V30H827.971V28ZM821.071 29V0.849998H819.071V29H821.071ZM820.071 1.85H827.971V-0.150002H820.071V1.85ZM827.971 1.85C831.475 1.85 834.477 2.36936 836.999 3.37848L837.742 1.52152C834.932 0.397302 831.667 -0.150002 827.971 -0.150002V1.85ZM837.013 3.38394C839.556 4.35694 841.468 5.79498 842.805 7.67875L844.436 6.52125C842.84 4.27168 840.586 2.60973 837.728 1.51606L837.013 3.38394ZM842.805 7.67875C844.126 9.53989 844.821 11.9244 844.821 14.9H846.821C846.821 11.6089 846.049 8.79344 844.436 6.52125L842.805 7.67875ZM826.021 25.05H829.771V23.05H826.021V25.05ZM829.771 25.05C831.812 25.05 833.622 24.8083 835.18 24.3009L834.561 22.3991C833.253 22.8251 831.662 23.05 829.771 23.05V25.05ZM835.193 24.2965C836.88 23.7217 838.19 22.6698 839.082 21.158L837.359 20.142C836.718 21.2302 835.795 21.9783 834.548 22.4035L835.193 24.2965ZM839.078 21.1645C840.013 19.6067 840.421 17.4621 840.421 14.85H838.421C838.421 17.3045 838.029 19.0267 837.363 20.1355L839.078 21.1645ZM840.421 14.85C840.421 11.7147 839.486 9.1957 837.467 7.48661L836.175 9.01339C837.622 10.2376 838.421 12.1186 838.421 14.85H840.421ZM837.467 7.48661C835.504 5.82553 832.9 5.05 829.771 5.05V7.05C832.574 7.05 834.671 7.74114 836.175 9.01339L837.467 7.48661ZM829.771 5.05H826.021V7.05H829.771V5.05ZM825.021 6.05V24.05H827.021V6.05H825.021ZM856.281 24.15H855.281V25.15H856.281V24.15ZM871.581 24.15H872.581V23.15H871.581V24.15ZM871.581 29V30H872.581V29H871.581ZM850.381 29H849.381V30H850.381V29ZM850.381 0.849998V-0.150002H849.381V0.849998H850.381ZM871.081 0.849998H872.081V-0.150002H871.081V0.849998ZM871.081 6V7H872.081V6H871.081ZM856.281 6V5H855.281V6H856.281ZM856.281 12.3H855.281V13.3H856.281V12.3ZM867.481 12.3H868.481V11.3H867.481V12.3ZM867.481 17.2V18.2H868.481V17.2H867.481ZM856.281 17.2V16.2H855.281V17.2H856.281ZM856.281 25.15H871.581V23.15H856.281V25.15ZM870.581 24.15V29H872.581V24.15H870.581ZM871.581 28H850.381V30H871.581V28ZM851.381 29V0.849998H849.381V29H851.381ZM850.381 1.85H871.081V-0.150002H850.381V1.85ZM870.081 0.849998V6H872.081V0.849998H870.081ZM871.081 5H856.281V7H871.081V5ZM855.281 6V12.3H857.281V6H855.281ZM856.281 13.3H867.481V11.3H856.281V13.3ZM866.481 12.3V17.2H868.481V12.3H866.481ZM867.481 16.2H856.281V18.2H867.481V16.2ZM855.281 17.2V24.15H857.281V17.2H855.281ZM878.617 27.25L878.073 28.089L878.617 27.25ZM875.667 24.15L874.792 24.6337L874.797 24.6424L874.802 24.651L875.667 24.15ZM874.617 19.55V18.55H873.617V19.55H874.617ZM880.667 19.55H881.667V18.55H880.667V19.55ZM880.867 20.55L879.901 20.8077L879.903 20.8162L879.906 20.8247L880.867 20.55ZM881.767 22.1L880.995 22.7357L881.005 22.7472L881.015 22.7585L881.767 22.1ZM883.917 23.5L883.535 24.424L883.549 24.4297L883.563 24.435L883.917 23.5ZM891.367 23.35L891.814 24.2445L891.827 24.2382L891.367 23.35ZM892.867 21.2L893.867 21.2357L893.867 21.2178V21.2H892.867ZM891.867 19.3L891.274 20.1051L891.284 20.1123L891.294 20.1192L891.867 19.3ZM889.317 18.15L889.019 19.1045L889.033 19.1088L889.046 19.1126L889.317 18.15ZM885.767 17.25L885.561 18.2286L885.566 18.2296L885.767 17.25ZM881.967 16.25L881.659 17.2013L881.666 17.2036L881.967 16.25ZM878.567 14.65L878.025 15.4903L878.567 14.65ZM876.117 12.1L875.234 12.5692L875.243 12.5858L875.252 12.6021L876.117 12.1ZM875.417 8.05L874.42 7.98072L874.419 7.98889L875.417 8.05ZM878.867 2.4L879.407 3.24203L878.867 2.4ZM893.267 1.45L892.884 2.37359L892.891 2.3767L892.899 2.37968L893.267 1.45ZM897.567 4.7L898.367 4.1L897.567 4.7ZM899.217 10.25V11.25H900.217V10.25H899.217ZM893.367 10.25H892.367V11.25H893.367V10.25ZM892.267 7.55L892.9 6.77604V6.77604L892.267 7.55ZM889.617 6.35L889.39 7.32384L889.409 7.32816L889.427 7.33178L889.617 6.35ZM883.267 6.7L883.688 7.60701L883.695 7.60383L883.702 7.60055L883.267 6.7ZM882.817 10.8L882.198 11.5849L882.207 11.5926L882.217 11.6L882.817 10.8ZM885.467 12L885.204 12.9648H885.204L885.467 12ZM889.017 12.85L888.811 13.8285L888.826 13.8316L888.841 13.8343L889.017 12.85ZM892.867 13.75L892.589 14.7106L892.596 14.7125L892.867 13.75ZM896.367 15.3L895.825 16.1403L895.835 16.1466L895.845 16.1526L896.367 15.3ZM898.817 17.85L897.946 18.3403L897.952 18.3521L898.817 17.85ZM899.567 21.9L900.565 21.9693L900.565 21.9599L899.567 21.9ZM895.967 27.55L896.48 28.4087L896.489 28.403L895.967 27.55ZM887.317 28.55C885.829 28.55 884.376 28.376 882.955 28.0286L882.48 29.9714C884.059 30.3573 885.672 30.55 887.317 30.55V28.55ZM882.955 28.0286C881.558 27.6872 880.296 27.147 879.161 26.411L878.073 28.089C879.405 28.953 880.876 29.5795 882.48 29.9714L882.955 28.0286ZM879.161 26.411C878.06 25.6964 877.187 24.7786 876.533 23.649L874.802 24.651C875.614 26.0547 876.708 27.2036 878.073 28.089L879.161 26.411ZM876.542 23.6663C875.942 22.5797 875.617 21.2215 875.617 19.55H873.617C873.617 21.4785 873.992 23.187 874.792 24.6337L876.542 23.6663ZM874.617 20.55H880.667V18.55H874.617V20.55ZM879.667 19.55C879.667 19.8707 879.774 20.333 879.901 20.8077L881.833 20.2923C881.77 20.0534 881.725 19.8672 881.698 19.7289C881.667 19.5747 881.667 19.5299 881.667 19.55H879.667ZM879.906 20.8247C880.091 21.4734 880.482 22.1122 880.995 22.7357L882.539 21.4643C882.119 20.9545 881.91 20.56 881.829 20.2753L879.906 20.8247ZM881.015 22.7585C881.619 23.4495 882.488 23.991 883.535 24.424L884.3 22.576C883.413 22.209 882.848 21.8172 882.52 21.4415L881.015 22.7585ZM883.563 24.435C884.687 24.8615 886.105 25.05 887.767 25.05V23.05C886.229 23.05 885.081 22.8718 884.272 22.565L883.563 24.435ZM887.767 25.05C889.33 25.05 890.698 24.8028 891.814 24.2444L890.92 22.4556C890.17 22.8305 889.138 23.05 887.767 23.05V25.05ZM891.827 24.2382C893.05 23.6052 893.818 22.596 893.867 21.2357L891.868 21.1643C891.85 21.6707 891.617 22.0948 890.908 22.4618L891.827 24.2382ZM893.867 21.2C893.867 20.067 893.369 19.1307 892.441 18.4808L891.294 20.1192C891.699 20.4026 891.867 20.733 891.867 21.2H893.867ZM892.46 18.4949C891.699 17.934 890.727 17.5077 889.588 17.1873L889.046 19.1126C890.041 19.3923 890.769 19.7327 891.274 20.1051L892.46 18.4949ZM889.615 17.1955C888.512 16.8505 887.295 16.5426 885.968 16.2704L885.566 18.2296C886.839 18.4907 887.99 18.7828 889.019 19.1045L889.615 17.1955ZM885.973 16.2715C884.739 16.0117 883.505 15.6868 882.268 15.2964L881.666 17.2036C882.963 17.6132 884.262 17.955 885.561 18.2285L885.973 16.2715ZM882.276 15.2988C881.12 14.924 880.066 14.427 879.109 13.8097L878.025 15.4903C879.135 16.2064 880.347 16.776 881.659 17.2012L882.276 15.2988ZM879.109 13.8097C878.205 13.2261 877.5 12.4905 876.982 11.5979L875.252 12.6021C875.934 13.7762 876.863 14.7406 878.025 15.4903L879.109 13.8097ZM877 11.6308C876.546 10.775 876.323 9.62355 876.415 8.11111L874.419 7.98889C874.312 9.74311 874.555 11.2917 875.234 12.5692L877 11.6308ZM876.415 8.11928C876.558 6.05394 877.523 4.44868 879.407 3.24203L878.328 1.55797C875.945 3.08465 874.609 5.24606 874.42 7.98072L876.415 8.11928ZM879.407 3.24203C881.322 2.0149 884.011 1.35 887.567 1.35V-0.650001C883.79 -0.650001 880.679 0.0517607 878.328 1.55797L879.407 3.24203ZM887.567 1.35C889.477 1.35 891.246 1.69382 892.884 2.37359L893.651 0.526408C891.755 -0.260492 889.724 -0.650001 887.567 -0.650001V1.35ZM892.899 2.37968C894.501 3.01432 895.782 3.9865 896.767 5.3L898.367 4.1C897.152 2.48016 895.567 1.28568 893.636 0.520318L892.899 2.37968ZM896.767 5.3C897.711 6.55854 898.217 8.18472 898.217 10.25H900.217C900.217 7.84862 899.623 5.77479 898.367 4.1L896.767 5.3ZM899.217 9.25H893.367V11.25H899.217V9.25ZM894.367 10.25C894.367 8.83697 893.926 7.61489 892.9 6.77604L891.634 8.32396C892.075 8.6851 892.367 9.26303 892.367 10.25H894.367ZM892.9 6.77604C892.025 6.05988 890.985 5.59615 889.807 5.36822L889.427 7.33178C890.316 7.50385 891.043 7.84012 891.634 8.32396L892.9 6.77604ZM889.844 5.37616C888.79 5.13007 887.812 5 886.917 5V7C887.623 7 888.445 7.10326 889.39 7.32384L889.844 5.37616ZM886.917 5C885.352 5 883.975 5.24791 882.832 5.79945L883.702 7.60055C884.493 7.21876 885.549 7 886.917 7V5ZM882.846 5.79299C882.25 6.06981 881.741 6.46144 881.385 6.9953C881.027 7.53305 880.867 8.1495 880.867 8.8H882.867C882.867 8.48383 882.941 8.26694 883.049 8.1047C883.16 7.93855 883.351 7.76353 883.688 7.60701L882.846 5.79299ZM880.867 8.8C880.867 9.92772 881.315 10.8881 882.198 11.5849L883.437 10.0151C883.053 9.71186 882.867 9.33894 882.867 8.8H880.867ZM882.217 11.6C883.014 12.198 884.024 12.643 885.204 12.9648L885.73 11.0352C884.71 10.757 883.953 10.402 883.417 10L882.217 11.6ZM885.204 12.9648C886.325 13.2705 887.528 13.5584 888.811 13.8285L889.223 11.8715C887.973 11.6083 886.809 11.3294 885.73 11.0352L885.204 12.9648ZM888.841 13.8343C890.106 14.0615 891.356 14.3536 892.589 14.7106L893.145 12.7894C891.845 12.4131 890.528 12.1052 889.194 11.8657L888.841 13.8343ZM892.596 14.7125C893.809 15.0547 894.883 15.5326 895.825 16.1403L896.909 14.4597C895.785 13.7341 894.525 13.1786 893.139 12.7875L892.596 14.7125ZM895.845 16.1526C896.731 16.696 897.428 17.4206 897.946 18.3403L899.689 17.3597C899.006 16.146 898.07 15.1707 896.89 14.4474L895.845 16.1526ZM897.952 18.3521C898.422 19.1602 898.662 20.2947 898.569 21.8401L900.565 21.9599C900.673 20.172 900.413 18.6065 899.682 17.3479L897.952 18.3521ZM898.57 21.8307C898.428 23.876 897.431 25.4818 895.445 26.697L896.489 28.403C898.97 26.8848 900.373 24.724 900.565 21.9693L898.57 21.8307ZM895.455 26.6914C893.422 27.9048 890.732 28.55 887.317 28.55V30.55C890.969 30.55 894.046 29.8619 896.48 28.4086L895.455 26.6914ZM918.284 23.85H919.284V22.85H918.284V23.85ZM918.284 29V30H919.284V29H918.284ZM904.934 29H903.934V30H904.934V29ZM904.934 23.85V22.85H903.934V23.85H904.934ZM908.634 23.85V24.85H909.634V23.85H908.634ZM908.634 6H909.634V5H908.634V6ZM904.934 6H903.934V7H904.934V6ZM904.934 0.849998V-0.150002H903.934V0.849998H904.934ZM918.284 0.849998H919.284V-0.150002H918.284V0.849998ZM918.284 6V7H919.284V6H918.284ZM914.634 6V5H913.634V6H914.634ZM914.634 23.85H913.634V24.85H914.634V23.85ZM917.284 23.85V29H919.284V23.85H917.284ZM918.284 28H904.934V30H918.284V28ZM905.934 29V23.85H903.934V29H905.934ZM904.934 24.85H908.634V22.85H904.934V24.85ZM909.634 23.85V6H907.634V23.85H909.634ZM908.634 5H904.934V7H908.634V5ZM905.934 6V0.849998H903.934V6H905.934ZM904.934 1.85H918.284V-0.150002H904.934V1.85ZM917.284 0.849998V6H919.284V0.849998H917.284ZM918.284 5H914.634V7H918.284V5ZM913.634 6V23.85H915.634V6H913.634ZM914.634 24.85H918.284V22.85H914.634V24.85ZM928.957 27.9L929.427 27.0173L928.957 27.9ZM924.157 23.05L923.265 23.5027L923.27 23.511L923.274 23.5192L924.157 23.05ZM922.607 15.1L923.607 15.1213V15.1208L922.607 15.1ZM924.607 7.05L925.47 7.55471L925.474 7.54896L924.607 7.05ZM929.707 2.05L929.244 1.16388L929.238 1.16688L929.707 2.05ZM946.257 2.85L945.635 3.63329V3.63329L946.257 2.85ZM950.507 10.1L950.659 11.0884L951.724 10.9245L951.481 9.87439L950.507 10.1ZM944.657 11L943.684 11.2305L943.897 12.1287L944.809 11.9884L944.657 11ZM943.007 8L942.316 8.72264L942.323 8.72998L942.331 8.73715L943.007 8ZM940.307 6.45L940.586 5.48965L940.307 6.45ZM930.607 8.4L929.847 7.75046L929.839 7.75981L930.607 8.4ZM928.557 14.65L927.557 14.637V14.65H928.557ZM930.957 21.35L930.265 22.072L930.273 22.0791L930.957 21.35ZM942.457 22.65L942.043 21.7396L942.035 21.7433L942.457 22.65ZM945.457 19.1L946.411 19.3993L946.819 18.1H945.457V19.1ZM940.107 19.1H939.107V20.1H940.107V19.1ZM940.107 14.75V13.75H939.107V14.75H940.107ZM951.057 14.75H952.057V13.75H951.057V14.75ZM951.057 29V30H952.057V29H951.057ZM947.007 29L946.054 29.3027L946.275 30H947.007V29ZM945.657 24.75L946.61 24.4473L946.389 23.75H945.657V24.75ZM945.557 24.75V23.75H944.923L944.653 24.323L945.557 24.75ZM942.357 28.05L941.819 27.2071L942.357 28.05ZM936.207 28.55C933.574 28.55 931.325 28.0274 929.427 27.0173L928.487 28.7827C930.723 29.9726 933.306 30.55 936.207 30.55V28.55ZM929.427 27.0173C927.542 26.014 926.083 24.5442 925.04 22.5808L923.274 23.5192C924.498 25.8225 926.239 27.586 928.487 28.7827L929.427 27.0173ZM925.049 22.5973C924.042 20.6137 923.543 18.1364 923.607 15.1213L921.607 15.0787C921.538 18.3302 922.072 21.1529 923.265 23.5027L925.049 22.5973ZM923.607 15.1208C923.671 12.0452 924.31 9.53923 925.47 7.5547L923.744 6.5453C922.371 8.8941 921.677 11.7548 921.607 15.0792L923.607 15.1208ZM925.474 7.54896C926.652 5.50313 928.217 3.9737 930.176 2.93311L929.238 1.16688C926.93 2.39297 925.096 4.19687 923.74 6.55103L925.474 7.54896ZM930.171 2.9361C932.175 1.8878 934.495 1.35 937.157 1.35V-0.650001C934.219 -0.650001 931.573 -0.0544739 929.244 1.1639L930.171 2.9361ZM937.157 1.35C941.002 1.35 943.779 2.1603 945.635 3.63329L946.879 2.06671C944.535 0.206367 941.245 -0.650001 937.157 -0.650001V1.35ZM945.635 3.63329C947.523 5.13127 948.839 7.33101 949.533 10.3256L951.481 9.87439C950.708 6.53565 949.191 3.90206 946.879 2.06671L945.635 3.63329ZM950.355 9.11163L944.505 10.0116L944.809 11.9884L950.659 11.0884L950.355 9.11163ZM945.63 10.7695C945.293 9.34753 944.658 8.15656 943.683 7.26284L942.331 8.73715C942.956 9.31011 943.421 10.1191 943.684 11.2305L945.63 10.7695ZM943.698 7.27736C942.814 6.43111 941.771 5.83387 940.586 5.48965L940.028 7.41035C940.909 7.66612 941.667 8.10222 942.316 8.72264L943.698 7.27736ZM940.586 5.48965C939.463 5.16358 938.319 5 937.157 5V7C938.129 7 939.085 7.13642 940.028 7.41035L940.586 5.48965ZM937.157 5C933.993 5 931.473 5.84595 929.847 7.75051L931.367 9.04948C932.474 7.75405 934.321 7 937.157 7V5ZM929.839 7.75981C928.327 9.57413 927.593 11.8958 927.557 14.637L929.557 14.663C929.588 12.2708 930.221 10.4259 931.375 9.04018L929.839 7.75981ZM927.557 14.65C927.557 17.7639 928.411 20.2947 930.265 22.072L931.649 20.628C930.304 19.3387 929.557 17.4027 929.557 14.65H927.557ZM930.273 22.0791C932.147 23.8386 934.741 24.65 937.907 24.65V22.65C935.073 22.65 933.034 21.9281 931.641 20.6209L930.273 22.0791ZM937.907 24.65C939.651 24.65 941.312 24.2856 942.879 23.5567L942.035 21.7433C940.736 22.3477 939.363 22.65 937.907 22.65V24.65ZM942.871 23.5604C944.625 22.7628 945.803 21.3385 946.411 19.3993L944.503 18.8007C944.045 20.2615 943.222 21.2038 942.043 21.7396L942.871 23.5604ZM945.457 18.1H940.107V20.1H945.457V18.1ZM941.107 19.1V14.75H939.107V19.1H941.107ZM940.107 15.75H951.057V13.75H940.107V15.75ZM950.057 14.75V29H952.057V14.75H950.057ZM951.057 28H947.007V30H951.057V28ZM947.96 28.6973L946.61 24.4473L944.704 25.0527L946.054 29.3027L947.96 28.6973ZM945.657 23.75H945.557V25.75H945.657V23.75ZM944.653 24.323C944.193 25.2973 943.288 26.2696 941.819 27.2071L942.895 28.8929C944.56 27.8304 945.788 26.6027 946.461 25.177L944.653 24.323ZM941.819 27.2071C940.461 28.0736 938.617 28.55 936.207 28.55V30.55C938.864 30.55 941.119 30.0264 942.895 28.8929L941.819 27.2071ZM974.952 0.849998V-0.150002H973.952V0.849998H974.952ZM981.252 0.849998H982.252V-0.150002H981.252V0.849998ZM981.252 29V30H982.252V29H981.252ZM969.702 29L968.742 29.2804L968.953 30H969.702V29ZM962.252 3.5L963.212 3.21956L963.002 2.5H962.252V3.5ZM962.152 3.5V2.5H961.152V3.5H962.152ZM962.152 29V30H963.152V29H962.152ZM955.902 29H954.902V30H955.902V29ZM955.902 0.849998V-0.150002H954.902V0.849998H955.902ZM966.602 0.849998L967.554 0.542178L967.33 -0.150002H966.602V0.849998ZM974.852 26.35L973.901 26.6578L974.125 27.35H974.852V26.35ZM974.952 26.35V27.35H975.952V26.35H974.952ZM974.952 1.85H981.252V-0.150002H974.952V1.85ZM980.252 0.849998V29H982.252V0.849998H980.252ZM981.252 28H969.702V30H981.252V28ZM970.662 28.7196L963.212 3.21956L961.292 3.78043L968.742 29.2804L970.662 28.7196ZM962.252 2.5H962.152V4.5H962.252V2.5ZM961.152 3.5V29H963.152V3.5H961.152ZM962.152 28H955.902V30H962.152V28ZM956.902 29V0.849998H954.902V29H956.902ZM955.902 1.85H966.602V-0.150002H955.902V1.85ZM965.651 1.15782L973.901 26.6578L975.804 26.0422L967.554 0.542178L965.651 1.15782ZM974.852 27.35H974.952V25.35H974.852V27.35ZM975.952 26.35V0.849998H973.952V26.35H975.952ZM992.561 24.15H991.561V25.15H992.561V24.15ZM1007.86 24.15H1008.86V23.15H1007.86V24.15ZM1007.86 29V30H1008.86V29H1007.86ZM986.661 29H985.661V30H986.661V29ZM986.661 0.849998V-0.150002H985.661V0.849998H986.661ZM1007.36 0.849998H1008.36V-0.150002H1007.36V0.849998ZM1007.36 6V7H1008.36V6H1007.36ZM992.561 6V5H991.561V6H992.561ZM992.561 12.3H991.561V13.3H992.561V12.3ZM1003.76 12.3H1004.76V11.3H1003.76V12.3ZM1003.76 17.2V18.2H1004.76V17.2H1003.76ZM992.561 17.2V16.2H991.561V17.2H992.561ZM992.561 25.15H1007.86V23.15H992.561V25.15ZM1006.86 24.15V29H1008.86V24.15H1006.86ZM1007.86 28H986.661V30H1007.86V28ZM987.661 29V0.849998H985.661V29H987.661ZM986.661 1.85H1007.36V-0.150002H986.661V1.85ZM1006.36 0.849998V6H1008.36V0.849998H1006.36ZM1007.36 5H992.561V7H1007.36V5ZM991.561 6V12.3H993.561V6H991.561ZM992.561 13.3H1003.76V11.3H992.561V13.3ZM1002.76 12.3V17.2H1004.76V12.3H1002.76ZM1003.76 16.2H992.561V18.2H1003.76V16.2ZM991.561 17.2V24.15H993.561V17.2H991.561ZM1012.3 29H1011.3V30H1012.3V29ZM1012.3 0.849998V-0.150002H1011.3V0.849998H1012.3ZM1031.8 2.75L1031.27 3.6026L1031.28 3.60752L1031.29 3.61228L1031.8 2.75ZM1033.25 14.95L1032.47 14.3208L1032.46 14.3265L1032.46 14.3322L1033.25 14.95ZM1031 17.8L1030.31 18.5295L1030.33 18.5413L1030.34 18.5526L1031 17.8ZM1032.1 19.55L1031.14 19.8247L1031.14 19.8456L1031.15 19.8662L1032.1 19.55ZM1032.6 21.75L1031.6 21.8793L1031.61 21.9042L1031.61 21.9289L1032.6 21.75ZM1033.1 23.75L1032.15 24.0662L1032.15 24.0745L1032.15 24.0828L1033.1 23.75ZM1034.1 24.95L1033.65 25.8444L1033.69 25.863L1033.73 25.8785L1034.1 24.95ZM1036.3 24.65H1037.3V23.154L1035.91 23.726L1036.3 24.65ZM1036.3 28L1036.95 28.7546L1037.3 28.4556V28H1036.3ZM1033.65 29.3L1033.45 28.3194L1033.43 28.3225L1033.42 28.3262L1033.65 29.3ZM1028.4 27.2L1027.54 27.7145L1027.55 27.7315L1027.56 27.748L1028.4 27.2ZM1027.25 20.25L1026.26 20.4213L1026.26 20.442L1026.27 20.4624L1027.25 20.25ZM1026.2 18.45L1026.8 17.6556L1026.2 18.45ZM1023.5 17.6L1023.6 16.6058L1023.5 17.6ZM1018.35 17.6L1018.29 16.6018L1017.35 16.6588V17.6H1018.35ZM1018.35 29V30H1019.35V29H1018.35ZM1018.35 13.3H1017.35V14.3H1018.35V13.3ZM1026.5 13.15L1026.4 12.1546L1026.4 12.155L1026.5 13.15ZM1028.8 12.3L1029.48 13.0311L1029.49 13.0193L1029.5 13.0071L1028.8 12.3ZM1028.65 6.9L1027.96 7.62701L1027.97 7.63738L1027.98 7.64741L1028.65 6.9ZM1025.95 5.9L1025.86 6.89635L1025.86 6.89655L1025.95 5.9ZM1018.35 5.75V4.75H1017.35V5.75H1018.35ZM1013.3 29V0.849998H1011.3V29H1013.3ZM1012.3 1.85H1023.2V-0.150002H1012.3V1.85ZM1023.2 1.85C1026.77 1.85 1029.43 2.46967 1031.27 3.6026L1032.32 1.8974C1030.03 0.49699 1026.96 -0.150002 1023.2 -0.150002V1.85ZM1031.29 3.61228C1033 4.61589 1033.95 6.39296 1033.95 9.25H1035.95C1035.95 5.90704 1034.79 3.35078 1032.3 1.88771L1031.29 3.61228ZM1033.95 9.25C1033.95 11.4973 1033.42 13.1503 1032.47 14.3208L1034.02 15.5792C1035.34 13.9497 1035.95 11.8027 1035.95 9.25H1033.95ZM1032.46 14.3322C1031.57 15.4634 1030.34 16.05 1028.65 16.05V18.05C1030.88 18.05 1032.72 17.2366 1034.03 15.5678L1032.46 14.3322ZM1028.65 18.05C1029.53 18.05 1030.03 18.2639 1030.31 18.5295L1031.68 17.0705C1030.9 16.3361 1029.83 16.05 1028.65 16.05V18.05ZM1030.34 18.5526C1030.72 18.8888 1030.99 19.3045 1031.14 19.8247L1033.06 19.2753C1032.81 18.3955 1032.34 17.6445 1031.66 17.0474L1030.34 18.5526ZM1031.15 19.8662C1031.36 20.5026 1031.51 21.1732 1031.6 21.8793L1033.59 21.6207C1033.48 20.7935 1033.3 19.9974 1033.05 19.2338L1031.15 19.8662ZM1031.61 21.9289C1031.75 22.7008 1031.93 23.4143 1032.15 24.0662L1034.05 23.4338C1033.86 22.8857 1033.71 22.2659 1033.58 21.5711L1031.61 21.9289ZM1032.15 24.0828C1032.43 24.8539 1032.92 25.4775 1033.65 25.8444L1034.54 24.0556C1034.34 23.9558 1034.17 23.7795 1034.04 23.4172L1032.15 24.0828ZM1033.73 25.8785C1034.61 26.2334 1035.67 25.9913 1036.68 25.574L1035.91 23.726C1034.99 24.1087 1034.58 24.0666 1034.47 24.0215L1033.73 25.8785ZM1035.3 24.65V28H1037.3V24.65H1035.3ZM1035.64 27.2454C1035.01 27.7976 1034.28 28.1534 1033.45 28.3194L1033.84 30.2806C1035.01 30.0466 1036.05 29.5357 1036.95 28.7546L1035.64 27.2454ZM1033.42 28.3262C1032.6 28.5175 1031.83 28.4746 1031.08 28.2083L1030.41 30.0917C1031.53 30.4921 1032.69 30.5492 1033.87 30.2738L1033.42 28.3262ZM1031.08 28.2083C1030.39 27.9599 1029.77 27.4679 1029.23 26.652L1027.56 27.748C1028.29 28.8655 1029.24 29.6734 1030.41 30.0917L1031.08 28.2083ZM1029.25 26.6855C1028.78 25.8988 1028.5 24.7342 1028.5 23.1H1026.5C1026.5 24.9324 1026.81 26.5012 1027.54 27.7145L1029.25 26.6855ZM1028.5 23.1C1028.5 21.9238 1028.41 20.8973 1028.22 20.0376L1026.27 20.4624C1026.42 21.136 1026.5 22.0095 1026.5 23.1H1028.5ZM1028.23 20.0787C1028.06 19.0887 1027.59 18.2562 1026.8 17.6556L1025.59 19.2444C1025.94 19.5105 1026.17 19.878 1026.26 20.4213L1028.23 20.0787ZM1026.8 17.6556C1026.02 17.0565 1024.9 16.7461 1023.6 16.6058L1023.39 18.5942C1024.56 18.7206 1025.24 18.9768 1025.59 19.2444L1026.8 17.6556ZM1023.6 16.6058C1022.29 16.4635 1020.51 16.4673 1018.29 16.6018L1018.41 18.5982C1020.59 18.4661 1022.24 18.4698 1023.39 18.5942L1023.6 16.6058ZM1017.35 17.6V29H1019.35V17.6H1017.35ZM1018.35 28H1012.3V30H1018.35V28ZM1018.35 14.3H1022.65V12.3H1018.35V14.3ZM1022.65 14.3C1024.23 14.3 1025.55 14.2496 1026.6 14.145L1026.4 12.155C1025.44 12.2504 1024.2 12.3 1022.65 12.3V14.3ZM1026.59 14.1453C1027.74 14.0346 1028.75 13.708 1029.48 13.0311L1028.11 11.5689C1027.84 11.8254 1027.32 12.0654 1026.4 12.1546L1026.59 14.1453ZM1029.5 13.0071C1030.29 12.2249 1030.55 11.0418 1030.55 9.75H1028.55C1028.55 10.8582 1028.31 11.3751 1028.09 11.5929L1029.5 13.0071ZM1030.55 9.75C1030.55 8.2891 1030.23 6.97369 1029.31 6.15259L1027.98 7.64741C1028.26 7.89298 1028.55 8.47757 1028.55 9.75H1030.55ZM1029.33 6.17299C1028.51 5.39327 1027.36 5.01391 1026.03 4.90345L1025.86 6.89655C1026.94 6.98608 1027.59 7.27339 1027.96 7.62701L1029.33 6.17299ZM1026.03 4.90365C1024.83 4.8004 1023.36 4.75 1021.65 4.75V6.75C1023.33 6.75 1024.73 6.79959 1025.86 6.89635L1026.03 4.90365ZM1021.65 4.75H1018.35V6.75H1021.65V4.75ZM1017.35 5.75V13.3H1019.35V5.75H1017.35Z" fill="#FF4D00"/>
</svg>
