<svg width="90" height="90" viewBox="0 0 90 90" fill="none" xmlns="http://www.w3.org/2000/svg">
<path d="M87.8625 36.9225H73.4625C73.4344 37.0575 73.4344 37.215 73.4906 37.44C73.9406 39.33 72.675 40.5675 70.8469 41.5575C68.6812 42.705 66.2625 43.425 63.7594 43.8975C61.1437 44.37 58.5 44.7525 55.6312 45.2025C57.7406 47.52 59.7656 49.725 61.7625 51.975C62.0719 52.335 62.9437 52.7625 62.1281 53.2575C61.3125 53.7525 61.0312 52.9875 60.6937 52.6275C58.6687 50.445 56.6437 48.24 54.7031 46.0125C54.1687 45.405 53.6062 45.135 52.65 45.225C48.0375 45.585 43.3969 45.45 38.7844 45.18C29.3906 44.595 20.1656 43.3125 11.475 40.2075C8.97187 39.3075 6.60937 38.25 4.78124 36.585C2.61562 34.605 2.86874 32.445 5.39999 30.825C7.28437 29.61 9.50624 28.9125 11.8125 28.395C19.3219 26.685 27 26.415 34.7344 26.6625C35.4094 26.685 36.1125 26.9325 36.9 26.505C34.9312 24.3225 32.9906 22.185 31.05 20.025C30.7125 19.6425 29.8969 19.2375 30.7125 18.7425C31.5281 18.27 31.8094 19.0575 32.1187 19.395C34.1156 21.5325 36.0844 23.6925 38.025 25.875C38.6156 26.55 39.3187 26.8875 40.3875 26.9775C42.9469 27.18 45.5062 27.4275 48.0375 27.765C55.1531 28.755 62.4375 29.7675 68.3437 33.165C69.7219 33.9525 71.0719 34.4925 72.4781 34.8525H87.8625V36.9225ZM15.6937 39.8925C21.9375 42.3675 28.6594 43.4925 35.5219 44.1C40.6969 44.5725 45.9 44.6175 51.1031 44.235C52.6219 44.1225 52.7062 43.83 51.8062 42.9075C50.0625 41.13 48.4312 39.2625 46.8 37.4175C46.2937 36.8325 45.7312 36.4725 44.775 36.4725C33.5812 36.495 22.3875 36.4725 11.2219 36.4725C11.0531 36.4725 10.8562 36.54 10.3219 36.6525C11.8406 38.2725 13.7812 39.1275 15.6937 39.8925ZM36.7594 27.5625C30.4594 27.4275 24.1594 27.45 18 28.7775C15.75 29.25 13.5844 29.88 11.6437 30.9375C10.6875 31.4775 9.81562 32.085 9.33749 32.9625C8.35312 34.6725 8.99999 35.4825 11.3062 35.4825C16.5656 35.4825 21.8531 35.4825 27.1125 35.4825C31.4719 35.415 35.0437 35.46 37.6594 35.5275C41.1469 35.6175 44.325 35.775 44.5781 35.055C44.6625 34.83 44.3812 34.6275 43.875 34.155C41.7656 32.22 39.0094 28.8 38.7844 28.5525C38.2781 27.9675 37.7437 27.585 36.7594 27.5625ZM65.1375 34.335C62.8312 32.7375 60.1031 31.7025 57.2625 30.8475C51.8344 29.205 46.1812 28.3275 39.7406 27.81C42.1875 30.4875 44.2969 32.7825 46.4062 35.1C46.8562 35.595 47.5312 35.505 48.1781 35.505C53.6344 35.505 59.0906 35.505 64.5469 35.505C65.025 35.505 65.7 35.73 65.8687 35.19C66.0375 34.785 65.475 34.56 65.1375 34.335ZM66.2906 36.5175C60.2719 36.495 54.2531 36.5175 47.7 36.5175C49.9781 39.015 51.9469 41.175 53.8594 43.3575C54.2812 43.8075 54.7875 43.875 55.3781 43.785C58.5281 43.29 61.65 42.66 64.4344 41.265C65.925 40.5225 67.275 39.6 67.5 38.07C67.6406 37.35 67.6125 36.5175 66.2906 36.5175Z" fill="url(#paint0_linear_15_11)"/>
<defs>
<linearGradient id="paint0_linear_15_11" x1="45.5883" y1="18.5954" x2="45.5883" y2="53.4194" gradientUnits="userSpaceOnUse">
<stop stop-color="#FF4D00"/>
<stop offset="1" stop-color="#E54500"/>
</linearGradient>
</defs>
</svg>
