<svg width="90" height="90" viewBox="0 0 90 90" fill="none" xmlns="http://www.w3.org/2000/svg">
<path d="M79.0875 34.065C53.2969 30.87 49.7812 28.5525 45.0844 11.4525L44.2406 8.325L43.3687 11.4525C38.6719 28.5525 35.1844 30.8925 9.36562 34.065L1.60312 35.0325L9.36562 36C35.1562 39.195 38.6719 41.5125 43.3687 58.6125L44.2406 61.74L45.1125 58.6125C49.8094 41.5125 53.2969 39.1725 79.1156 36L86.8781 35.0325L79.0875 34.065ZM53.1562 40.5225C48.6562 43.5375 46.35 48.0825 44.2406 55.08C42.1312 48.0825 39.825 43.56 35.325 40.5225C31.275 37.8 25.5937 36.3375 16.7625 35.0325C25.5937 33.7275 31.275 32.265 35.325 29.5425C39.825 26.5275 42.1312 21.9825 44.2406 14.985C46.35 21.9825 48.6562 26.505 53.1562 29.5425C57.2062 32.265 62.8875 33.7275 71.7187 35.0325C62.8875 36.3375 57.2062 37.8 53.1562 40.5225Z" fill="url(#paint0_linear_15_24)"/>
<path d="M44.1562 18.585C43.2562 22.8375 41.0906 28.665 35.1 31.7475C29.3062 34.74 22.0219 34.065 21.9656 35.01C21.9094 36.1575 32.7937 35.145 38.7844 40.3425C43.9031 44.775 42.8344 51.48 44.325 51.48C45.9562 51.48 44.55 43.0875 50.7094 38.7225C56.25 34.8075 64.9406 36.225 65.025 35.1C65.1094 33.93 55.5469 34.4475 49.8656 29.565C44.8031 25.1325 44.2687 20.025 44.1562 18.585Z" fill="url(#paint1_linear_15_24)"/>
<defs>
<linearGradient id="paint0_linear_15_24" x1="44.2406" y1="8.325" x2="44.2406" y2="61.74" gradientUnits="userSpaceOnUse">
<stop stop-color="#FF4D00"/>
<stop offset="1" stop-color="#E54500"/>
</linearGradient>
<linearGradient id="paint1_linear_15_24" x1="43.4955" y1="18.585" x2="43.4955" y2="51.48" gradientUnits="userSpaceOnUse">
<stop stop-color="#FF4D00"/>
<stop offset="1" stop-color="#E54500"/>
</linearGradient>
</defs>
</svg>
