<svg width="90" height="90" viewBox="0 0 90 90" fill="none" xmlns="http://www.w3.org/2000/svg">
<path d="M84.4594 48.2175C84.9375 48.6675 85.5281 49.2075 86.2031 49.7925C84.7688 43.965 81.4219 36.7425 76.4156 29.3625C76.5281 29.8575 76.5844 30.3525 76.6125 30.8925C76.7812 34.1775 75.1781 36.9225 73.0125 36.99C70.875 37.0575 68.9906 34.4475 68.85 31.14C68.6813 27.855 70.2844 25.11 72.45 25.0425C72.7875 25.0425 73.125 25.0875 73.4344 25.2C69.1031 19.485 64.4062 14.6475 59.9625 11.115C60.4406 11.6775 60.8625 12.2175 61.2281 12.735C66.6563 20.565 68.2031 28.1925 64.7156 29.7225C61.5094 31.14 55.2094 26.9775 50.0063 20.2725C51.4125 15.75 51.8344 11.88 51.1031 9.135C49.3313 11.25 47.6438 13.2975 46.1813 15.165C44.7188 13.2975 43.0031 11.25 41.2594 9.1575C40.5281 11.88 40.95 15.75 42.3563 20.2725C37.1531 26.9775 30.8531 31.14 27.6469 29.7225C24.1594 28.17 25.7063 20.565 31.1344 12.735C31.5 12.2175 31.9219 11.6775 32.4 11.115C27.9563 14.625 23.2594 19.485 18.9281 25.1775C19.2375 25.065 19.575 24.9975 19.9125 25.02C22.05 25.0875 23.6531 27.81 23.5125 31.1175C23.3438 34.4025 21.4875 37.035 19.35 36.9675C17.2125 36.9 15.6094 34.1775 15.75 30.87C15.7781 30.3525 15.8344 29.835 15.9469 29.34C10.9406 36.7425 7.59375 43.9425 6.15938 49.77C6.83438 49.185 7.425 48.645 7.90313 48.195C13.725 42.6375 20.7563 39.69 23.6531 41.6025C26.55 43.515 24.1594 49.6125 18.3656 55.17C16.5656 56.88 12.6563 59.3775 8.01563 61.965C8.24063 62.1 8.46563 62.235 8.71875 62.3475C11.2781 63.4725 14.9625 62.6175 19.1813 60.1875C18.6469 60.21 18.2531 60.075 18 59.85C16.9031 58.7925 19.3219 55.7775 23.3719 53.1C26.6344 50.9625 29.9531 49.7025 31.6969 49.8375C33.6938 47.7225 35.6906 45.3825 37.6031 42.885C33.7219 45.7425 29.9813 47.115 28.35 46.035C26.2969 44.6625 28.5188 39.8025 33.3563 35.1675C38.1938 30.555 43.7625 27.9225 45.8156 29.295C45.9281 29.3625 46.0125 29.4525 46.0969 29.52C46.125 29.4975 46.125 29.4525 46.1531 29.43C46.1813 29.4525 46.1813 29.4975 46.2094 29.52C46.2938 29.43 46.3781 29.3625 46.4906 29.295C48.5438 27.9225 54.1406 30.555 58.95 35.1675C63.7594 39.78 66.0094 44.64 63.9562 46.035C62.3531 47.115 58.5844 45.7425 54.7031 42.885C56.6156 45.3825 58.6125 47.7225 60.6094 49.8375C62.3531 49.7025 65.7 50.9625 68.9344 53.1C72.9844 55.7775 75.4031 58.7925 74.3063 59.85C74.0531 60.075 73.6594 60.21 73.1531 60.21C77.3438 62.6175 81.0563 63.495 83.6156 62.37C83.8688 62.2575 84.0938 62.145 84.3187 61.9875C79.6781 59.4 75.7688 56.9025 73.9688 55.1925C68.1469 49.635 65.7844 43.56 68.6813 41.625C71.5781 39.69 78.6375 42.66 84.4594 48.2175Z" fill="url(#paint0_linear_15_19)"/>
<defs>
<linearGradient id="paint0_linear_15_19" x1="46.1813" y1="9.135" x2="46.1813" y2="62.855" gradientUnits="userSpaceOnUse">
<stop stop-color="#FF4D00"/>
<stop offset="1" stop-color="#E54500"/>
</linearGradient>
</defs>
</svg>
