<svg width="81" height="54" viewBox="0 0 81 54" fill="none" xmlns="http://www.w3.org/2000/svg">
<path d="M78.4594 39.2175C78.9375 39.6675 79.5281 40.2075 80.2031 40.7925C78.7688 34.965 75.4219 27.7425 70.4156 20.3625C70.5281 20.8575 70.5844 21.3525 70.6125 21.8925C70.7812 25.1775 69.1781 27.9225 67.0125 27.99C64.875 28.0575 62.9906 25.4475 62.85 22.14C62.6813 18.855 64.2844 16.11 66.45 16.0425C66.7875 16.0425 67.125 16.0875 67.4344 16.2C63.1031 10.485 58.4062 5.6475 53.9625 2.115C54.4406 2.6775 54.8625 3.2175 55.2281 3.735C60.6563 11.565 62.2031 19.1925 58.7156 20.7225C55.5094 22.14 49.2094 17.9775 44.0063 11.2725C45.4125 6.75 45.8344 2.88 45.1031 0.135002C43.3313 2.25 41.6438 4.2975 40.1813 6.165C38.7188 4.2975 37.0031 2.25 35.2594 0.157503C34.5281 2.88 34.95 6.75 36.3563 11.2725C31.1531 17.9775 24.8531 22.14 21.6469 20.7225C18.1594 19.17 19.7063 11.565 25.1344 3.735C25.5 3.2175 25.9219 2.6775 26.4 2.115C21.9563 5.625 17.2594 10.485 12.9281 16.1775C13.2375 16.065 13.575 15.9975 13.9125 16.02C16.05 16.0875 17.6531 18.81 17.5125 22.1175C17.3438 25.4025 15.4875 28.035 13.35 27.9675C11.2125 27.9 9.60938 25.1775 9.75 21.87C9.77813 21.3525 9.83438 20.835 9.94688 20.34C4.94063 27.7425 1.59375 34.9425 0.159378 40.77C0.834378 40.185 1.425 39.645 1.90313 39.195C7.725 33.6375 14.7563 30.69 17.6531 32.6025C20.55 34.515 18.1594 40.6125 12.3656 46.17C10.5656 47.88 6.65625 50.3775 2.01563 52.965C2.24063 53.1 2.46563 53.235 2.71875 53.3475C5.27813 54.4725 8.9625 53.6175 13.1813 51.1875C12.6469 51.21 12.2531 51.075 12 50.85C10.9031 49.7925 13.3219 46.7775 17.3719 44.1C20.6344 41.9625 23.9531 40.7025 25.6969 40.8375C27.6938 38.7225 29.6906 36.3825 31.6031 33.885C27.7219 36.7425 23.9813 38.115 22.35 37.035C20.2969 35.6625 22.5188 30.8025 27.3563 26.1675C32.1938 21.555 37.7625 18.9225 39.8156 20.295C39.9281 20.3625 40.0125 20.4525 40.0969 20.52C40.125 20.4975 40.125 20.4525 40.1531 20.43C40.1813 20.4525 40.1813 20.4975 40.2094 20.52C40.2938 20.43 40.3781 20.3625 40.4906 20.295C42.5438 18.9225 48.1406 21.555 52.95 26.1675C57.7594 30.78 60.0094 35.64 57.9562 37.035C56.3531 38.115 52.5844 36.7425 48.7031 33.885C50.6156 36.3825 52.6125 38.7225 54.6094 40.8375C56.3531 40.7025 59.7 41.9625 62.9344 44.1C66.9844 46.7775 69.4031 49.7925 68.3063 50.85C68.0531 51.075 67.6594 51.21 67.1531 51.21C71.3438 53.6175 75.0563 54.495 77.6156 53.37C77.8688 53.2575 78.0938 53.145 78.3187 52.9875C73.6781 50.4 69.7688 47.9025 67.9688 46.1925C62.1469 40.635 59.7844 34.56 62.6813 32.625C65.5781 30.69 72.6375 33.66 78.4594 39.2175Z" fill="url(#paint0_linear_15_20)"/>
<defs>
<linearGradient id="paint0_linear_15_20" x1="40.1813" y1="0.135002" x2="40.1813" y2="53.855" gradientUnits="userSpaceOnUse">
<stop stop-color="#FF4D00"/>
<stop offset="1" stop-color="#E54500"/>
</linearGradient>
</defs>
</svg>
