<svg width="90" height="22" viewBox="0 0 90 22" fill="none" xmlns="http://www.w3.org/2000/svg">
<path d="M47.6438 21.7715C41.3338 21.7715 35.0243 21.7873 28.7153 21.749C28.0374 21.7452 26.8473 22.1846 26.7849 21.1595C26.7108 19.9346 27.9674 20.2211 28.7446 20.2191C38.6349 20.1971 48.5273 20.0946 58.4161 20.2317C69.1268 20.3805 73.9268 13.7494 77.2801 7.03841C78.5536 4.49044 76.8377 1.95424 73.9979 1.82036C71.7854 1.71782 69.5624 1.8564 67.3496 1.75737C66.5585 1.72222 65.0802 2.32075 65.1245 1.03725C65.1625 -0.076347 66.635 0.277278 67.5192 0.271728C72.379 0.242432 77.2392 0.255908 82.0992 0.257373C83.378 0.257373 84.6621 0.195849 85.9348 0.285791C89.0816 0.508151 91.0058 3.65202 89.4513 6.39627C84.1998 15.6745 76.7148 21.6415 65.5488 21.7473C59.5808 21.8041 53.6118 21.7575 47.6433 21.7575L47.6438 21.7715Z" fill="url(#paint0_linear_15_5)"/>
<path d="M41.85 0.252481C48.1629 0.252481 54.4717 0.236073 60.7815 0.281776C61.4336 0.286463 62.6239 -0.226521 62.674 0.821131C62.73 1.99683 61.4977 1.78031 60.6892 1.78151C51.1379 1.79557 41.5814 1.97545 32.0369 1.74283C20.8964 1.47125 16.0642 8.30301 12.6824 14.9976C11.3954 17.5476 13.1028 20.061 15.9909 20.1793C18.3745 20.2769 20.7654 20.1925 23.1511 20.2247C23.604 20.2312 24.2989 20.0261 24.3742 20.7556C24.4566 21.5504 23.8161 21.7391 23.1836 21.7385C16.6165 21.7329 10.0459 21.8926 3.49237 21.6113C0.529275 21.4842 -0.931124 18.0371 0.636825 15.3465C6.11625 5.94301 13.8278 0.101255 25.2196 0.237755C30.7637 0.306309 36.3076 0.251232 41.8508 0.252989L41.85 0.252481Z" fill="url(#paint1_linear_15_5)"/>
<path d="M22.1295 17.7942C19.0888 17.8429 17.9237 16.1844 19.0158 13.3643C20.6365 9.17952 26.7506 4.86605 31.1546 4.7993C34.1364 4.75447 35.3464 6.47127 34.3016 9.2627C32.7677 13.3605 26.5421 17.7219 22.1291 17.7939L22.1295 17.7942Z" fill="url(#paint2_linear_15_5)"/>
<path d="M39.3937 17.7823C36.428 17.7823 35.2418 16.0276 36.3258 13.2366C37.8832 9.2273 44.3508 4.78032 48.6175 4.78707C51.5012 4.79088 52.6951 6.43212 51.7435 9.08375C50.2423 13.2641 43.8295 17.7815 39.394 17.7823H39.3937Z" fill="url(#paint3_linear_15_5)"/>
<path d="M56.8395 17.798C53.8275 17.8352 52.6187 16.1105 53.6944 13.31C55.2776 9.18672 61.6047 4.79825 65.9607 4.80125C68.7993 4.80125 69.982 6.47938 69.0386 9.16828C67.6282 13.1849 61.1853 17.7438 56.8398 17.7978L56.8395 17.798Z" fill="url(#paint4_linear_15_5)"/>
<defs>
<linearGradient id="paint0_linear_15_5" x1="58.3912" y1="0.222649" x2="58.3912" y2="21.8394" gradientUnits="userSpaceOnUse">
<stop stop-color="#FF4D00"/>
<stop offset="1" stop-color="#E54500"/>
</linearGradient>
<linearGradient id="paint1_linear_15_5" x1="31.3372" y1="0.160278" x2="31.3372" y2="21.7786" gradientUnits="userSpaceOnUse">
<stop stop-color="#FF4D00"/>
<stop offset="1" stop-color="#E54500"/>
</linearGradient>
<linearGradient id="paint2_linear_15_5" x1="26.6424" y1="4.79844" x2="26.6424" y2="17.7953" gradientUnits="userSpaceOnUse">
<stop stop-color="#FF4D00"/>
<stop offset="1" stop-color="#E54500"/>
</linearGradient>
<linearGradient id="paint3_linear_15_5" x1="43.9979" y1="4.78706" x2="43.9979" y2="17.7823" gradientUnits="userSpaceOnUse">
<stop stop-color="#FF4D00"/>
<stop offset="1" stop-color="#E54500"/>
</linearGradient>
<linearGradient id="paint4_linear_15_5" x1="61.3329" y1="4.80125" x2="61.3329" y2="17.7986" gradientUnits="userSpaceOnUse">
<stop stop-color="#FF4D00"/>
<stop offset="1" stop-color="#E54500"/>
</linearGradient>
</defs>
</svg>
