<svg width="68" height="58" viewBox="0 0 68 58" fill="none" xmlns="http://www.w3.org/2000/svg">
<path d="M55.5 37.8999C56.3437 46.8999 56.625 47.5749 67.875 47.7999C56.625 48.4749 55.7812 48.6999 55.5 57.6999C54.6562 48.6999 54.375 48.0249 43.125 47.7999C54.375 47.3499 54.9375 46.8999 55.5 37.8999Z" fill="url(#paint0_linear_135_2)"/>
<path d="M33.5625 53.8751C31.5938 30.0251 30.75 28.4501 0.65625 27.5501C30.4688 25.9751 32.4375 25.3001 33.5625 1.2251C35.5313 25.0751 36.375 26.6501 66.4688 27.5501C36.375 28.4501 34.4063 30.0251 33.5625 53.8751Z" fill="url(#paint1_linear_135_2)"/>
<path d="M54.9375 20.5749C54.0937 11.5749 53.8125 10.8999 42.5625 10.6749C53.8125 9.9999 54.6562 9.7749 54.9375 0.774902C55.7812 9.7749 56.0625 10.4499 67.3125 10.6749C55.7813 11.1249 55.5 11.5749 54.9375 20.5749Z" fill="url(#paint2_linear_135_2)"/>
<path d="M16.9688 46.8998C16.6875 42.1748 16.125 41.9498 10.5 41.7248C16.4062 41.4998 16.6875 41.0498 16.9688 36.5498C17.25 41.2748 17.8125 41.4998 23.4375 41.7248C17.8125 42.3998 17.25 42.3998 16.9688 46.8998Z" fill="url(#paint3_linear_135_2)"/>
<path d="M11.3438 22.5999C11.0625 17.8749 10.5 17.6499 4.875 17.4249C10.5 16.9749 11.0625 16.7499 11.3438 12.0249C11.625 16.7499 12.1875 16.9749 17.8125 17.1999C11.625 17.8749 11.625 17.8749 11.3438 22.5999Z" fill="url(#paint4_linear_135_2)"/>
<defs>
<linearGradient id="paint0_linear_135_2" x1="55.5" y1="37.8999" x2="55.5" y2="57.6999" gradientUnits="userSpaceOnUse">
<stop stop-color="#FF4D00"/>
<stop offset="1" stop-color="#E54500"/>
</linearGradient>
<linearGradient id="paint1_linear_135_2" x1="33.5625" y1="1.2251" x2="33.5625" y2="53.8751" gradientUnits="userSpaceOnUse">
<stop stop-color="#FF4D00"/>
<stop offset="1" stop-color="#E54500"/>
</linearGradient>
<linearGradient id="paint2_linear_135_2" x1="54.9375" y1="0.774902" x2="54.9375" y2="20.5749" gradientUnits="userSpaceOnUse">
<stop stop-color="#FF4D00"/>
<stop offset="1" stop-color="#E54500"/>
</linearGradient>
<linearGradient id="paint3_linear_135_2" x1="16.9688" y1="36.5498" x2="16.9688" y2="46.8998" gradientUnits="userSpaceOnUse">
<stop stop-color="#FF4D00"/>
<stop offset="1" stop-color="#E54500"/>
</linearGradient>
<linearGradient id="paint4_linear_135_2" x1="11.3438" y1="12.0249" x2="11.3438" y2="22.5999" gradientUnits="userSpaceOnUse">
<stop stop-color="#FF4D00"/>
<stop offset="1" stop-color="#E54500"/>
</linearGradient>
</defs>
</svg>
