<svg width="90" height="90" viewBox="0 0 90 90" fill="none" xmlns="http://www.w3.org/2000/svg">
<g clip-path="url(#clip0_15_4)">
<path d="M47.6438 55.7715C41.3338 55.7715 35.0243 55.7873 28.7153 55.749C28.0374 55.7452 26.8473 56.1846 26.7849 55.1595C26.7108 53.9346 27.9674 54.2211 28.7446 54.2191C38.6349 54.1971 48.5273 54.0946 58.4161 54.2317C69.1268 54.3805 73.9268 47.7494 77.2801 41.0384C78.5536 38.4904 76.8377 35.9542 73.9979 35.8204C71.7854 35.7178 69.5624 35.8564 67.3496 35.7574C66.5585 35.7222 65.0802 36.3208 65.1245 35.0373C65.1625 33.9237 66.635 34.2773 67.5192 34.2717C72.379 34.2424 77.2392 34.2559 82.0992 34.2574C83.378 34.2574 84.6621 34.1958 85.9348 34.2858C89.0816 34.5082 91.0058 37.652 89.4513 40.3963C84.1998 49.6745 76.7148 55.6415 65.5488 55.7473C59.5808 55.8041 53.6118 55.7575 47.6433 55.7575L47.6438 55.7715Z" fill="url(#paint0_linear_15_4)"/>
<path d="M41.85 34.2525C48.1629 34.2525 54.4717 34.2361 60.7815 34.2818C61.4336 34.2865 62.6239 33.7735 62.674 34.8211C62.73 35.9968 61.4977 35.7803 60.6892 35.7815C51.1379 35.7956 41.5814 35.9754 32.0369 35.7428C20.8964 35.4713 16.0642 42.303 12.6824 48.9976C11.3954 51.5476 13.1028 54.061 15.9909 54.1793C18.3745 54.2769 20.7654 54.1925 23.1511 54.2247C23.604 54.2312 24.2989 54.0261 24.3742 54.7556C24.4566 55.5504 23.8161 55.7391 23.1836 55.7385C16.6165 55.7329 10.0459 55.8926 3.49237 55.6113C0.529275 55.4842 -0.931124 52.0371 0.636825 49.3465C6.11625 39.943 13.8278 34.1013 25.2196 34.2378C30.7637 34.3063 36.3076 34.2512 41.8508 34.253L41.85 34.2525Z" fill="url(#paint1_linear_15_4)"/>
<path d="M22.1295 51.7942C19.0888 51.8429 17.9237 50.1844 19.0158 47.3643C20.6365 43.1795 26.7506 38.866 31.1546 38.7993C34.1364 38.7545 35.3464 40.4713 34.3016 43.2627C32.7677 47.3605 26.5421 51.7219 22.1291 51.7939L22.1295 51.7942Z" fill="url(#paint2_linear_15_4)"/>
<path d="M39.3937 51.7823C36.428 51.7823 35.2418 50.0276 36.3258 47.2366C37.8832 43.2273 44.3508 38.7803 48.6175 38.7871C51.5012 38.7909 52.6951 40.4321 51.7435 43.0837C50.2423 47.2641 43.8295 51.7815 39.394 51.7823H39.3937Z" fill="url(#paint3_linear_15_4)"/>
<path d="M56.8395 51.798C53.8275 51.8352 52.6187 50.1105 53.6944 47.31C55.2776 43.1867 61.6047 38.7982 65.9607 38.8012C68.7993 38.8012 69.982 40.4794 69.0386 43.1683C67.6282 47.1849 61.1853 51.7438 56.8398 51.7978L56.8395 51.798Z" fill="url(#paint4_linear_15_4)"/>
</g>
<defs>
<linearGradient id="paint0_linear_15_4" x1="58.3912" y1="34.2226" x2="58.3912" y2="55.8394" gradientUnits="userSpaceOnUse">
<stop stop-color="#FF4D00"/>
<stop offset="1" stop-color="#B53600"/>
</linearGradient>
<linearGradient id="paint1_linear_15_4" x1="31.3372" y1="34.1603" x2="31.3372" y2="55.7786" gradientUnits="userSpaceOnUse">
<stop stop-color="#FF4D00"/>
<stop offset="1" stop-color="#B53600"/>
</linearGradient>
<linearGradient id="paint2_linear_15_4" x1="26.6424" y1="38.7984" x2="26.6424" y2="51.7953" gradientUnits="userSpaceOnUse">
<stop stop-color="#FF4D00"/>
<stop offset="1" stop-color="#B53600"/>
</linearGradient>
<linearGradient id="paint3_linear_15_4" x1="43.9979" y1="38.7871" x2="43.9979" y2="51.7823" gradientUnits="userSpaceOnUse">
<stop stop-color="#FF4D00"/>
<stop offset="1" stop-color="#B53600"/>
</linearGradient>
<linearGradient id="paint4_linear_15_4" x1="61.3329" y1="38.8012" x2="61.3329" y2="51.7986" gradientUnits="userSpaceOnUse">
<stop stop-color="#FF4D00"/>
<stop offset="1" stop-color="#B53600"/>
</linearGradient>
<clipPath id="clip0_15_4">
<rect width="90" height="90" fill="white"/>
</clipPath>
</defs>
</svg>
