<svg width="85" height="36" viewBox="0 0 85 36" fill="none" xmlns="http://www.w3.org/2000/svg">
<path d="M84.8625 18.9225H70.4625C70.4344 19.0575 70.4344 19.215 70.4906 19.44C70.9406 21.33 69.675 22.5675 67.8469 23.5575C65.6812 24.705 63.2625 25.425 60.7594 25.8975C58.1437 26.37 55.5 26.7525 52.6312 27.2025C54.7406 29.52 56.7656 31.725 58.7625 33.975C59.0719 34.335 59.9437 34.7625 59.1281 35.2575C58.3125 35.7525 58.0312 34.9875 57.6937 34.6275C55.6687 32.445 53.6437 30.24 51.7031 28.0125C51.1687 27.405 50.6062 27.135 49.65 27.225C45.0375 27.585 40.3969 27.45 35.7844 27.18C26.3906 26.595 17.1656 25.3125 8.47499 22.2075C5.97187 21.3075 3.60937 20.25 1.78124 18.585C-0.38438 16.605 -0.131255 14.445 2.39999 12.825C4.28437 11.61 6.50624 10.9125 8.81249 10.395C16.3219 8.685 24 8.415 31.7344 8.6625C32.4094 8.685 33.1125 8.9325 33.9 8.505C31.9312 6.3225 29.9906 4.185 28.05 2.025C27.7125 1.6425 26.8969 1.2375 27.7125 0.742497C28.5281 0.269997 28.8094 1.0575 29.1187 1.395C31.1156 3.5325 33.0844 5.6925 35.025 7.875C35.6156 8.55 36.3187 8.8875 37.3875 8.9775C39.9469 9.18 42.5062 9.4275 45.0375 9.765C52.1531 10.755 59.4375 11.7675 65.3437 15.165C66.7219 15.9525 68.0719 16.4925 69.4781 16.8525H84.8625V18.9225ZM12.6937 21.8925C18.9375 24.3675 25.6594 25.4925 32.5219 26.1C37.6969 26.5725 42.9 26.6175 48.1031 26.235C49.6219 26.1225 49.7062 25.83 48.8062 24.9075C47.0625 23.13 45.4312 21.2625 43.8 19.4175C43.2937 18.8325 42.7312 18.4725 41.775 18.4725C30.5812 18.495 19.3875 18.4725 8.22187 18.4725C8.05312 18.4725 7.85624 18.54 7.32187 18.6525C8.84062 20.2725 10.7812 21.1275 12.6937 21.8925ZM33.7594 9.5625C27.4594 9.4275 21.1594 9.45 15 10.7775C12.75 11.25 10.5844 11.88 8.64374 12.9375C7.68749 13.4775 6.81562 14.085 6.33749 14.9625C5.35312 16.6725 5.99999 17.4825 8.30624 17.4825C13.5656 17.4825 18.8531 17.4825 24.1125 17.4825C28.4719 17.415 32.0437 17.46 34.6594 17.5275C38.1469 17.6175 41.325 17.775 41.5781 17.055C41.6625 16.83 41.3812 16.6275 40.875 16.155C38.7656 14.22 36.0094 10.8 35.7844 10.5525C35.2781 9.9675 34.7437 9.585 33.7594 9.5625ZM62.1375 16.335C59.8312 14.7375 57.1031 13.7025 54.2625 12.8475C48.8344 11.205 43.1812 10.3275 36.7406 9.81C39.1875 12.4875 41.2969 14.7825 43.4062 17.1C43.8562 17.595 44.5312 17.505 45.1781 17.505C50.6344 17.505 56.0906 17.505 61.5469 17.505C62.025 17.505 62.7 17.73 62.8687 17.19C63.0375 16.785 62.475 16.56 62.1375 16.335ZM63.2906 18.5175C57.2719 18.495 51.2531 18.5175 44.7 18.5175C46.9781 21.015 48.9469 23.175 50.8594 25.3575C51.2812 25.8075 51.7875 25.875 52.3781 25.785C55.5281 25.29 58.65 24.66 61.4344 23.265C62.925 22.5225 64.275 21.6 64.5 20.07C64.6406 19.35 64.6125 18.5175 63.2906 18.5175Z" fill="url(#paint0_linear_15_12)"/>
<defs>
<linearGradient id="paint0_linear_15_12" x1="42.5883" y1="0.59539" x2="42.5883" y2="35.4194" gradientUnits="userSpaceOnUse">
<stop stop-color="#FF4D00"/>
<stop offset="1" stop-color="#E54500"/>
</linearGradient>
</defs>
</svg>
