<svg width="86" height="54" viewBox="0 0 86 54" fill="none" xmlns="http://www.w3.org/2000/svg">
<path d="M78.0875 26.065C52.2969 22.87 48.7812 20.5525 44.0844 3.4525L43.2406 0.324997L42.3687 3.4525C37.6719 20.5525 34.1844 22.8925 8.36562 26.065L0.603119 27.0325L8.36562 28C34.1562 31.195 37.6719 33.5125 42.3687 50.6125L43.2406 53.74L44.1125 50.6125C48.8094 33.5125 52.2969 31.1725 78.1156 28L85.8781 27.0325L78.0875 26.065ZM52.1562 32.5225C47.6562 35.5375 45.35 40.0825 43.2406 47.08C41.1312 40.0825 38.825 35.56 34.325 32.5225C30.275 29.8 24.5937 28.3375 15.7625 27.0325C24.5937 25.7275 30.275 24.265 34.325 21.5425C38.825 18.5275 41.1312 13.9825 43.2406 6.985C45.35 13.9825 47.6562 18.505 52.1562 21.5425C56.2062 24.265 61.8875 25.7275 70.7187 27.0325C61.8875 28.3375 56.2062 29.8 52.1562 32.5225Z" fill="url(#paint0_linear_15_25)"/>
<path d="M43.1562 10.585C42.2562 14.8375 40.0906 20.665 34.1 23.7475C28.3062 26.74 21.0219 26.065 20.9656 27.01C20.9094 28.1575 31.7937 27.145 37.7844 32.3425C42.9031 36.775 41.8344 43.48 43.325 43.48C44.9562 43.48 43.55 35.0875 49.7094 30.7225C55.25 26.8075 63.9406 28.225 64.025 27.1C64.1094 25.93 54.5469 26.4475 48.8656 21.565C43.8031 17.1325 43.2687 12.025 43.1562 10.585Z" fill="url(#paint1_linear_15_25)"/>
<defs>
<linearGradient id="paint0_linear_15_25" x1="43.2406" y1="0.324997" x2="43.2406" y2="53.74" gradientUnits="userSpaceOnUse">
<stop stop-color="#FF4D00"/>
<stop offset="1" stop-color="#E54500"/>
</linearGradient>
<linearGradient id="paint1_linear_15_25" x1="42.4955" y1="10.585" x2="42.4955" y2="43.48" gradientUnits="userSpaceOnUse">
<stop stop-color="#FF4D00"/>
<stop offset="1" stop-color="#E54500"/>
</linearGradient>
</defs>
</svg>
