<svg width="1440" height="101" viewBox="0 0 1440 101" fill="none" xmlns="http://www.w3.org/2000/svg">
<path d="M239.5 56.9C240.344 65.9 240.625 66.575 251.875 66.8C240.625 67.475 239.781 67.7 239.5 76.7C238.656 67.7 238.375 67.025 227.125 66.8C238.375 66.35 238.937 65.9 239.5 56.9Z" fill="#1F1F1F"/>
<path d="M217.563 72.875C215.594 49.025 214.75 47.45 184.656 46.55C214.469 44.975 216.438 44.3 217.563 20.225C219.531 44.075 220.375 45.65 250.469 46.55C220.375 47.45 218.406 49.025 217.563 72.875Z" fill="#1F1F1F"/>
<path d="M238.937 39.575C238.094 30.575 237.812 29.9 226.562 29.675C237.812 29 238.656 28.775 238.937 19.775C239.781 28.775 240.063 29.45 251.313 29.675C239.781 30.125 239.5 30.575 238.937 39.575Z" fill="#1F1F1F"/>
<path d="M200.969 65.9C200.688 61.175 200.125 60.9501 194.5 60.7251C200.406 60.5001 200.688 60.05 200.969 55.55C201.25 60.275 201.813 60.5001 207.438 60.7251C201.813 61.4001 201.25 61.4 200.969 65.9Z" fill="#1F1F1F"/>
<path d="M195.344 41.6C195.063 36.875 194.5 36.65 188.875 36.425C194.5 35.975 195.063 35.75 195.344 31.025C195.625 35.75 196.188 35.975 201.813 36.2C195.625 36.875 195.625 36.875 195.344 41.6Z" fill="#1F1F1F"/>
<path d="M795.5 55.9C796.344 64.9 796.625 65.575 807.875 65.8C796.625 66.475 795.781 66.7 795.5 75.7C794.656 66.7 794.375 66.025 783.125 65.8C794.375 65.35 794.937 64.9 795.5 55.9Z" fill="#1F1F1F"/>
<path d="M773.563 71.875C771.594 48.025 770.75 46.45 740.656 45.55C770.469 43.975 772.438 43.3 773.563 19.225C775.531 43.075 776.375 44.65 806.469 45.55C776.375 46.45 774.406 48.025 773.563 71.875Z" fill="#1F1F1F"/>
<path d="M794.937 38.575C794.094 29.575 793.812 28.9 782.562 28.675C793.812 28 794.656 27.775 794.937 18.775C795.781 27.775 796.063 28.45 807.313 28.675C795.781 29.125 795.5 29.575 794.937 38.575Z" fill="#1F1F1F"/>
<path d="M756.969 64.9C756.688 60.175 756.125 59.9501 750.5 59.7251C756.406 59.5001 756.688 59.05 756.969 54.55C757.25 59.275 757.813 59.5001 763.438 59.7251C757.813 60.4001 757.25 60.4 756.969 64.9Z" fill="#1F1F1F"/>
<path d="M751.344 40.6C751.063 35.875 750.5 35.65 744.875 35.425C750.5 34.975 751.063 34.75 751.344 30.025C751.625 34.75 752.188 34.975 757.813 35.2C751.625 35.875 751.625 35.875 751.344 40.6Z" fill="#1F1F1F"/>
<path d="M1158.5 55.9C1159.34 64.9 1159.62 65.575 1170.87 65.8C1159.62 66.475 1158.78 66.7 1158.5 75.7C1157.66 66.7 1157.38 66.025 1146.12 65.8C1157.38 65.35 1157.94 64.9 1158.5 55.9Z" fill="#1F1F1F"/>
<path d="M1136.56 71.875C1134.59 48.025 1133.75 46.45 1103.66 45.55C1133.47 43.975 1135.44 43.3 1136.56 19.225C1138.53 43.075 1139.38 44.65 1169.47 45.55C1139.38 46.45 1137.41 48.025 1136.56 71.875Z" fill="#1F1F1F"/>
<path d="M1157.94 38.575C1157.09 29.575 1156.81 28.9 1145.56 28.675C1156.81 28 1157.66 27.775 1157.94 18.775C1158.78 27.775 1159.06 28.45 1170.31 28.675C1158.78 29.125 1158.5 29.575 1157.94 38.575Z" fill="#1F1F1F"/>
<path d="M1119.97 64.9C1119.69 60.175 1119.12 59.9501 1113.5 59.7251C1119.41 59.5001 1119.69 59.05 1119.97 54.55C1120.25 59.275 1120.81 59.5001 1126.44 59.7251C1120.81 60.4001 1120.25 60.4 1119.97 64.9Z" fill="#1F1F1F"/>
<path d="M1114.34 40.6C1114.06 35.875 1113.5 35.65 1107.88 35.425C1113.5 34.975 1114.06 34.75 1114.34 30.025C1114.63 34.75 1115.19 34.975 1120.81 35.2C1114.63 35.875 1114.63 35.875 1114.34 40.6Z" fill="#1F1F1F"/>
<path d="M1248 50.8C1248 58.2 1246.53 63.9667 1243.6 68.1C1240.73 72.1667 1236.67 75 1231.4 76.6C1226.13 78.2 1219.93 79 1212.8 79H1197.3V22.7H1212.8C1219.93 22.7 1226.13 23.7667 1231.4 25.9C1236.67 27.9667 1240.73 31.0667 1243.6 35.2C1246.53 39.3333 1248 44.5333 1248 50.8ZM1207.4 70.6H1215.7C1220.1 70.6 1223.9 70.1 1227.1 69.1C1230.3 68.0333 1232.77 66.0667 1234.5 63.2C1236.23 60.3333 1237.1 56.1667 1237.1 50.7C1237.1 44.2333 1235.17 39.4333 1231.3 36.3C1227.5 33.1 1222.3 31.5 1215.7 31.5H1207.4V70.6ZM1267.04 70.8H1298.14V79H1256.94V22.7H1297.14V31.5H1267.04V46.3H1290.14V54.7H1267.04V70.8ZM1329.34 80.1C1326.28 80.1 1323.24 79.7333 1320.24 79C1317.31 78.2667 1314.64 77.1333 1312.24 75.6C1309.84 74.0667 1307.94 72.0667 1306.54 69.6C1305.14 67.0667 1304.41 64.0333 1304.34 60.5H1314.64C1314.64 60.8333 1314.78 61.5667 1315.04 62.7C1315.31 63.7667 1315.91 64.9333 1316.84 66.2C1317.84 67.4667 1319.38 68.5667 1321.44 69.5C1323.58 70.4333 1326.44 70.9 1330.04 70.9C1333.98 70.9 1336.88 70.1667 1338.74 68.7C1340.68 67.2333 1341.64 65.6667 1341.64 64C1341.64 62.1333 1340.98 60.6667 1339.64 59.6C1338.38 58.4667 1336.64 57.5667 1334.44 56.9C1332.31 56.1667 1329.94 55.5 1327.34 54.9C1324.81 54.3 1322.24 53.6333 1319.64 52.9C1317.11 52.1 1314.78 51.0667 1312.64 49.8C1310.58 48.4667 1308.94 46.7667 1307.74 44.7C1306.54 42.6333 1306.01 40 1306.14 36.8C1306.48 32.0667 1308.74 28.3667 1312.94 25.7C1317.14 23.0333 1322.71 21.7 1329.64 21.7C1333.64 21.7 1337.34 22.4333 1340.74 23.9C1344.21 25.3 1346.98 27.4333 1349.04 30.3C1351.18 33.1 1352.24 36.7 1352.24 41.1H1342.34C1342.34 39.0333 1341.88 37.3667 1340.94 36.1C1340.01 34.7667 1338.81 33.7667 1337.34 33.1C1335.94 32.3667 1334.44 31.9 1332.84 31.7C1331.24 31.4333 1329.81 31.3 1328.54 31.3C1325.21 31.3 1322.44 31.8667 1320.24 33C1318.11 34.1333 1317.04 35.8 1317.04 38C1316.98 39.8667 1317.61 41.3667 1318.94 42.5C1320.28 43.6333 1322.04 44.5333 1324.24 45.2C1326.44 45.8667 1328.84 46.4667 1331.44 47C1334.04 47.5333 1336.64 48.2 1339.24 49C1341.84 49.7333 1344.21 50.7333 1346.34 52C1348.48 53.2 1350.14 54.8667 1351.34 57C1352.54 59.0667 1353.04 61.7667 1352.84 65.1C1352.58 69.8333 1350.28 73.5333 1345.94 76.2C1341.61 78.8 1336.08 80.1 1329.34 80.1ZM1388.31 70.3V79H1363.21V70.3H1370.81V31.5H1363.21V22.7H1388.31V31.5H1380.91V70.3H1388.31ZM1424 80.1C1418.54 80.1 1413.74 79 1409.6 76.8C1405.54 74.6 1402.4 71.3667 1400.2 67.1C1398 62.7667 1396.97 57.4667 1397.1 51.2C1397.17 44.8667 1398.4 39.5 1400.8 35.1C1403.27 30.7 1406.64 27.3667 1410.9 25.1C1415.17 22.8333 1420.1 21.7 1425.7 21.7C1433.37 21.7 1439.3 23.3667 1443.5 26.7C1447.7 30.0333 1450.5 34.8667 1451.9 41.2L1442.1 42.6C1441.1 38.4 1439.04 35.4667 1435.9 33.8C1432.84 32.1333 1429.44 31.3 1425.7 31.3C1419.3 31.3 1414.6 33.0333 1411.6 36.5C1408.67 39.9667 1407.17 44.6 1407.1 50.4C1407.1 56.8 1408.8 61.7333 1412.2 65.2C1415.6 68.6 1420.47 70.3 1426.8 70.3C1430.67 70.3 1434.17 69.4 1437.3 67.6C1440.44 65.7333 1442.47 62.7667 1443.4 58.7H1431V51.2H1453V79H1446.1L1443.8 69.2H1443.6C1442.94 70.8667 1441.77 72.5333 1440.1 74.2C1438.5 75.8667 1436.37 77.2667 1433.7 78.4C1431.04 79.5333 1427.8 80.1 1424 80.1ZM1501.61 22.7H1512.21V79H1492.81L1473.51 27.2H1473.31V79H1462.81V22.7H1480.81L1501.41 74.5H1501.61V22.7ZM1533.35 70.8H1564.45V79H1523.25V22.7H1563.45V31.5H1533.35V46.3H1556.45V54.7H1533.35V70.8ZM1573.65 79V22.7H1594.35C1601.62 22.7 1607.28 23.9333 1611.35 26.4C1615.42 28.8 1617.45 33.0667 1617.45 39.2C1617.45 43.8 1616.35 47.5333 1614.15 50.4C1611.95 53.2 1608.78 54.6 1604.65 54.6C1606.98 54.6 1608.72 55.1333 1609.85 56.2C1611.05 57.2 1611.88 58.4667 1612.35 60C1612.82 61.5333 1613.15 63.1333 1613.35 64.8C1613.55 66.4667 1613.78 67.9667 1614.05 69.3C1614.38 70.5667 1614.98 71.4667 1615.85 72C1616.78 72.5333 1618.22 72.4333 1620.15 71.7V77.6C1618.88 78.6667 1617.38 79.3667 1615.65 79.7C1613.92 80.1 1612.22 80 1610.55 79.4C1608.88 78.8 1607.48 77.6333 1606.35 75.9C1605.22 74.1 1604.65 71.6 1604.65 68.4C1604.65 65.4667 1604.48 63.1333 1604.15 61.4C1603.82 59.6 1602.98 58.2667 1601.65 57.4C1600.32 56.4667 1598.25 55.9 1595.45 55.7C1592.65 55.4333 1588.78 55.4333 1583.85 55.7V79H1573.65ZM1583.85 48.3H1593.95C1597.22 48.3 1599.92 48.1667 1602.05 47.9C1604.18 47.5667 1605.75 46.8333 1606.75 45.7C1607.82 44.5 1608.35 42.6 1608.35 40C1608.35 37.1333 1607.72 35.0667 1606.45 33.8C1605.18 32.5333 1603.32 31.7667 1600.85 31.5C1598.45 31.1667 1595.48 31 1591.95 31H1583.85V48.3Z" fill="#1F1F1F"/>
<path d="M857.8 80.4C849.8 80.4 843.7 78.2 839.5 73.8C835.367 69.3333 833.3 63.0667 833.3 55V22.7H844.2V54.9C844.2 59.0333 844.867 62.2333 846.2 64.5C847.533 66.7667 849.233 68.3667 851.3 69.3C853.367 70.2333 855.533 70.7 857.8 70.7C860.333 70.7 862.633 70.2667 864.7 69.4C866.767 68.4667 868.4 66.8667 869.6 64.6C870.867 62.3333 871.5 59.1 871.5 54.9V22.7H882.3V55C882.3 63.2 880.233 69.5 876.1 73.9C872.033 78.2333 865.933 80.4 857.8 80.4ZM918.573 70.3V79H893.473V70.3H901.073V31.5H893.473V22.7H918.573V31.5H911.173V70.3H918.573ZM927.766 79L953.166 22.7H962.866L937.466 79H927.766ZM993.64 80.4C985.64 80.4 979.54 78.2 975.34 73.8C971.207 69.3333 969.14 63.0667 969.14 55V22.7H980.04V54.9C980.04 59.0333 980.707 62.2333 982.04 64.5C983.373 66.7667 985.073 68.3667 987.14 69.3C989.207 70.2333 991.373 70.7 993.64 70.7C996.173 70.7 998.473 70.2667 1000.54 69.4C1002.61 68.4667 1004.24 66.8667 1005.44 64.6C1006.71 62.3333 1007.34 59.1 1007.34 54.9V22.7H1018.14V55C1018.14 63.2 1016.07 69.5 1011.94 73.9C1007.87 78.2333 1001.77 80.4 993.64 80.4ZM1025.41 79L1045.41 49.3L1027.01 22.7H1039.11L1052.11 43.2L1065.21 22.7H1077.11L1059.01 49.3L1079.01 79H1067.11L1052.11 55.7L1037.21 79H1025.41Z" fill="#1F1F1F"/>
<path d="M-61.2 80.4C-69.2 80.4 -75.3 78.2 -79.5 73.8C-83.6333 69.3333 -85.7 63.0667 -85.7 55V22.7H-74.8V54.9C-74.8 59.0333 -74.1333 62.2333 -72.8 64.5C-71.4667 66.7667 -69.7667 68.3667 -67.7 69.3C-65.6333 70.2333 -63.4667 70.7 -61.2 70.7C-58.6667 70.7 -56.3667 70.2667 -54.3 69.4C-52.2333 68.4667 -50.6 66.8667 -49.4 64.6C-48.1333 62.3333 -47.5 59.1 -47.5 54.9V22.7H-36.7V55C-36.7 63.2 -38.7667 69.5 -42.9 73.9C-46.9667 78.2333 -53.0667 80.4 -61.2 80.4ZM-0.427342 70.3V79H-25.5273V70.3H-17.9273V31.5H-25.5273V22.7H-0.427342V31.5H-7.82734V70.3H-0.427342ZM8.76563 79L34.1656 22.7H43.8656L18.4656 79H8.76563ZM74.6398 80.4C66.6398 80.4 60.5398 78.2 56.3398 73.8C52.2065 69.3333 50.1398 63.0667 50.1398 55V22.7H61.0398V54.9C61.0398 59.0333 61.7065 62.2333 63.0398 64.5C64.3732 66.7667 66.0732 68.3667 68.1398 69.3C70.2065 70.2333 72.3732 70.7 74.6398 70.7C77.1732 70.7 79.4732 70.2667 81.5398 69.4C83.6065 68.4667 85.2398 66.8667 86.4398 64.6C87.7065 62.3333 88.3398 59.1 88.3398 54.9V22.7H99.1398V55C99.1398 63.2 97.0732 69.5 92.9398 73.9C88.8732 78.2333 82.7732 80.4 74.6398 80.4ZM106.413 79L126.413 49.3L108.013 22.7H120.113L133.113 43.2L146.213 22.7H158.113L140.013 49.3L160.013 79H148.113L133.113 55.7L118.213 79H106.413Z" fill="#1F1F1F"/>
<path d="M288.5 79H278.5V22.7H318.6V31.5H288.5V45.3H311.5V53.6H288.5V79ZM326.623 79V22.7H347.323C354.59 22.7 360.257 23.9333 364.323 26.4C368.39 28.8 370.423 33.0667 370.423 39.2C370.423 43.8 369.323 47.5333 367.123 50.4C364.923 53.2 361.757 54.6 357.623 54.6C359.957 54.6 361.69 55.1333 362.823 56.2C364.023 57.2 364.857 58.4667 365.323 60C365.79 61.5333 366.123 63.1333 366.323 64.8C366.523 66.4667 366.757 67.9667 367.023 69.3C367.357 70.5667 367.957 71.4667 368.823 72C369.757 72.5333 371.19 72.4333 373.123 71.7V77.6C371.857 78.6667 370.357 79.3667 368.623 79.7C366.89 80.1 365.19 80 363.523 79.4C361.857 78.8 360.457 77.6333 359.323 75.9C358.19 74.1 357.623 71.6 357.623 68.4C357.623 65.4667 357.457 63.1333 357.123 61.4C356.79 59.6 355.957 58.2667 354.623 57.4C353.29 56.4667 351.223 55.9 348.423 55.7C345.623 55.4333 341.757 55.4333 336.823 55.7V79H326.623ZM336.823 48.3H346.923C350.19 48.3 352.89 48.1667 355.023 47.9C357.157 47.5667 358.723 46.8333 359.723 45.7C360.79 44.5 361.323 42.6 361.323 40C361.323 37.1333 360.69 35.0667 359.423 33.8C358.157 32.5333 356.29 31.7667 353.823 31.5C351.423 31.1667 348.457 31 344.923 31H336.823V48.3ZM406.292 80.4C397.226 80.4 390.292 77.7667 385.492 72.5C380.692 67.1667 378.292 60 378.292 51C378.292 45.0667 379.326 39.9333 381.392 35.6C383.459 31.2 386.559 27.8 390.692 25.4C394.892 22.9333 400.092 21.7 406.292 21.7C415.492 21.7 422.459 24.3667 427.192 29.7C431.926 34.9667 434.292 42.0667 434.292 51C434.292 56.8 433.226 61.9333 431.092 66.4C428.959 70.8 425.826 74.2333 421.692 76.7C417.559 79.1667 412.426 80.4 406.292 80.4ZM406.192 70.6C412.192 70.6 416.692 68.7333 419.692 65C422.759 61.2667 424.292 56.6 424.292 51C424.292 47.2 423.626 43.8333 422.292 40.9C420.959 37.9 418.959 35.5667 416.292 33.9C413.626 32.1667 410.259 31.3 406.192 31.3C400.326 31.3 395.859 33.1 392.792 36.7C389.726 40.3 388.192 45.0667 388.192 51C388.192 54.6667 388.826 58 390.092 61C391.426 63.9333 393.426 66.2667 396.092 68C398.759 69.7333 402.126 70.6 406.192 70.6ZM482.023 22.7H492.623V79H473.223L453.923 27.2H453.723V79H443.223V22.7H461.223L481.823 74.5H482.023V22.7ZM499.367 31.5V22.7H542.867V31.5H526.167V79H515.967V31.5H499.367ZM561.521 70.8H592.621V79H551.421V22.7H591.621V31.5H561.521V46.3H584.621V54.7H561.521V70.8ZM640.519 22.7H651.119V79H631.719L612.419 27.2H612.219V79H601.719V22.7H619.719L640.319 74.5H640.519V22.7ZM713.863 50.8C713.863 58.2 712.397 63.9667 709.463 68.1C706.597 72.1667 702.53 75 697.263 76.6C691.997 78.2 685.797 79 678.663 79H663.163V22.7H678.663C685.797 22.7 691.997 23.7667 697.263 25.9C702.53 27.9667 706.597 31.0667 709.463 35.2C712.397 39.3333 713.863 44.5333 713.863 50.8ZM673.263 70.6H681.563C685.963 70.6 689.763 70.1 692.963 69.1C696.163 68.0333 698.63 66.0667 700.363 63.2C702.097 60.3333 702.963 56.1667 702.963 50.7C702.963 44.2333 701.03 39.4333 697.163 36.3C693.363 33.1 688.163 31.5 681.563 31.5H673.263V70.6Z" fill="#1F1F1F"/>
</svg>
