<svg width="826" height="315" viewBox="0 0 826 315" fill="none" xmlns="http://www.w3.org/2000/svg">
<path d="M105 159.2C94.0667 159.2 84.4667 157 76.2 152.6C68.0667 148.2 61.8 141.733 57.4 133.2C53 124.533 50.9333 113.933 51.2 101.4C51.3333 88.7333 53.8 78 58.6 69.2C63.5333 60.4 70.2667 53.7333 78.8 49.2C87.3333 44.6667 97.2 42.4 108.4 42.4C123.733 42.4 135.6 45.7333 144 52.4C152.4 59.0667 158 68.7333 160.8 81.4L141.2 84.2C139.2 75.8 135.067 69.9333 128.8 66.6C122.667 63.2667 115.867 61.6 108.4 61.6C95.6 61.6 86.2 65.0667 80.2 72C74.3333 78.9333 71.3333 88.2 71.2 99.8C71.2 112.6 74.6 122.467 81.4 129.4C88.2 136.2 97.9333 139.6 110.6 139.6C118.333 139.6 125.333 137.8 131.6 134.2C137.867 130.467 141.933 124.533 143.8 116.4H119V101.4H163V157H149.2L144.6 137.4H144.2C142.867 140.733 140.533 144.067 137.2 147.4C134 150.733 129.733 153.533 124.4 155.8C119.067 158.067 112.6 159.2 105 159.2ZM175.409 157L211.409 44.4H244.809L281.809 157H260.009L250.409 125.2H206.609L197.009 157H175.409ZM228.409 53L211.409 109.4H245.609L228.409 53ZM295.891 157V44.4H340.491C344.624 44.4 349.157 44.6667 354.091 45.2C359.157 45.7333 364.024 46.9333 368.691 48.8C373.357 50.6667 377.157 53.6 380.091 57.6C383.157 61.6 384.691 67.1333 384.691 74.2C384.691 78.4667 383.824 82.4 382.091 86C380.491 89.6 377.424 92.6 372.891 95C368.491 97.2667 362.157 98.6 353.891 99V99.6C363.491 99.8667 370.891 101.267 376.091 103.8C381.291 106.2 384.891 109.4 386.891 113.4C388.891 117.4 389.891 121.867 389.891 126.8C389.891 134 388.291 139.667 385.091 143.8C381.891 147.8 377.757 150.8 372.691 152.8C367.624 154.667 362.291 155.867 356.691 156.4C351.224 156.8 346.157 157 341.491 157H295.891ZM315.891 91.2H338.091C342.757 91.2 347.091 90.9333 351.091 90.4C355.224 89.8667 358.491 88.6 360.891 86.6C363.291 84.4667 364.491 81.0667 364.491 76.4C364.491 71.4667 363.224 67.9333 360.691 65.8C358.291 63.6667 355.091 62.3333 351.091 61.8C347.091 61.2667 342.757 61 338.091 61H315.891V91.2ZM316.091 140.6H339.891C345.091 140.6 349.891 140.267 354.291 139.6C358.691 138.933 362.224 137.467 364.891 135.2C367.557 132.8 368.891 129.067 368.891 124C368.891 118.8 367.491 115 364.691 112.6C361.891 110.067 358.224 108.467 353.691 107.8C349.157 107.133 344.157 106.8 338.691 106.8H316.091V140.6ZM408.005 157V44.4H449.405C463.938 44.4 475.271 46.8667 483.405 51.8C491.538 56.6 495.605 65.1333 495.605 77.4C495.605 86.6 493.405 94.0667 489.005 99.8C484.605 105.4 478.271 108.2 470.005 108.2C474.671 108.2 478.138 109.267 480.405 111.4C482.805 113.4 484.471 115.933 485.405 119C486.338 122.067 487.005 125.267 487.405 128.6C487.805 131.933 488.271 134.933 488.805 137.6C489.471 140.133 490.671 141.933 492.405 143C494.271 144.067 497.138 143.867 501.005 142.4V154.2C498.471 156.333 495.471 157.733 492.005 158.4C488.538 159.2 485.138 159 481.805 157.8C478.471 156.6 475.671 154.267 473.405 150.8C471.138 147.2 470.005 142.2 470.005 135.8C470.005 129.933 469.671 125.267 469.005 121.8C468.338 118.2 466.671 115.533 464.005 113.8C461.338 111.933 457.205 110.8 451.605 110.4C446.005 109.867 438.271 109.867 428.405 110.4V157H408.005ZM428.405 95.6H448.605C455.138 95.6 460.538 95.3333 464.805 94.8C469.071 94.1333 472.205 92.6667 474.205 90.4C476.338 88 477.405 84.2 477.405 79C477.405 73.2667 476.138 69.1333 473.605 66.6C471.071 64.0667 467.338 62.5333 462.405 62C457.605 61.3333 451.671 61 444.605 61H428.405V95.6ZM569.942 139.6V157H519.742V139.6H534.942V62H519.742V44.4H569.942V62H555.142V139.6H569.942ZM614.128 140.6H676.328V157H593.928V44.4H674.328V62H614.128V91.6H660.328V108.4H614.128V140.6ZM696.123 157V44.4H716.523V139.6H772.123V157H696.123Z" fill="#FF4D00"/>
<path d="M31.8 310V311H32.8V310H31.8ZM11.4 310H10.4V311H11.4V310ZM11.4 197.4V196.4H10.4V197.4H11.4ZM85.8 206.8L86.4705 206.058L86.4705 206.058L85.8 206.8ZM85.4 261.2L84.7435 260.446L84.7365 260.452L85.4 261.2ZM31.8 270.6V269.6H30.8V270.6H31.8ZM31.8 214V213H30.8V214H31.8ZM31.8 255.6H30.8V256.6H31.8V255.6ZM71.2 250.4L70.5811 249.615L70.5811 249.615L71.2 250.4ZM71.2 219.2L70.5694 219.976L70.5826 219.987L70.5961 219.997L71.2 219.2ZM31.8 309H11.4V311H31.8V309ZM12.4 310V197.4H10.4V310H12.4ZM11.4 198.4H56.6V196.4H11.4V198.4ZM56.6 198.4C68.9714 198.4 78.435 201.491 85.1295 207.542L86.4705 206.058C79.2984 199.576 69.2953 196.4 56.6 196.4V198.4ZM85.1295 207.542C91.7861 213.558 95.2 222.711 95.2 235.2H97.2C97.2 222.355 93.6805 212.575 86.4705 206.058L85.1295 207.542ZM95.2 235.2C95.2 246.028 91.6895 254.4 84.7435 260.446L86.0565 261.954C93.5105 255.467 97.2 246.505 97.2 235.2H95.2ZM84.7365 260.452C77.9 266.514 68.5604 269.6 56.6 269.6V271.6C68.9063 271.6 78.7666 268.419 86.0635 261.948L84.7365 260.452ZM56.6 269.6H31.8V271.6H56.6V269.6ZM30.8 270.6V310H32.8V270.6H30.8ZM53.8 213H31.8V215H53.8V213ZM30.8 214V255.6H32.8V214H30.8ZM31.8 256.6H53.8V254.6H31.8V256.6ZM53.8 256.6C61.1597 256.6 67.1976 254.827 71.8189 251.185L70.5811 249.615C66.4024 252.907 60.8403 254.6 53.8 254.6V256.6ZM71.8189 251.185C76.5163 247.484 78.8 241.959 78.8 234.8H76.8C76.8 241.507 74.6837 246.382 70.5811 249.615L71.8189 251.185ZM78.8 234.8C78.8 227.517 76.5213 221.977 71.8039 218.403L70.5961 219.997C74.6787 223.09 76.8 227.95 76.8 234.8H78.8ZM71.8306 218.424C67.3339 214.77 61.2861 213 53.8 213V215C60.9806 215 66.5327 216.696 70.5694 219.976L71.8306 218.424ZM161.809 292.6H162.809V291.6H161.809V292.6ZM161.809 310V311H162.809V310H161.809ZM111.609 310H110.609V311H111.609V310ZM111.609 292.6V291.6H110.609V292.6H111.609ZM126.809 292.6V293.6H127.809V292.6H126.809ZM126.809 215H127.809V214H126.809V215ZM111.609 215H110.609V216H111.609V215ZM111.609 197.4V196.4H110.609V197.4H111.609ZM161.809 197.4H162.809V196.4H161.809V197.4ZM161.809 215V216H162.809V215H161.809ZM147.009 215V214H146.009V215H147.009ZM147.009 292.6H146.009V293.6H147.009V292.6ZM160.809 292.6V310H162.809V292.6H160.809ZM161.809 309H111.609V311H161.809V309ZM112.609 310V292.6H110.609V310H112.609ZM111.609 293.6H126.809V291.6H111.609V293.6ZM127.809 292.6V215H125.809V292.6H127.809ZM126.809 214H111.609V216H126.809V214ZM112.609 215V197.4H110.609V215H112.609ZM111.609 198.4H161.809V196.4H111.609V198.4ZM160.809 197.4V215H162.809V197.4H160.809ZM161.809 214H147.009V216H161.809V214ZM146.009 215V292.6H148.009V215H146.009ZM147.009 293.6H161.809V291.6H147.009V293.6ZM263.795 197.4V196.4H262.795V197.4H263.795ZM284.995 197.4H285.995V196.4H284.995V197.4ZM284.995 310V311H285.995V310H284.995ZM246.195 310L245.258 310.349L245.501 311H246.195V310ZM207.595 206.4L208.532 206.051L208.29 205.4H207.595V206.4ZM207.195 206.4V205.4H206.195V206.4H207.195ZM207.195 310V311H208.195V310H207.195ZM186.195 310H185.195V311H186.195V310ZM186.195 197.4V196.4H185.195V197.4H186.195ZM222.195 197.4L223.125 197.03L222.874 196.4H222.195V197.4ZM263.395 301L262.466 301.37L262.717 302H263.395V301ZM263.795 301V302H264.795V301H263.795ZM263.795 198.4H284.995V196.4H263.795V198.4ZM283.995 197.4V310H285.995V197.4H283.995ZM284.995 309H246.195V311H284.995V309ZM247.132 309.651L208.532 206.051L206.658 206.749L245.258 310.349L247.132 309.651ZM207.595 205.4H207.195V207.4H207.595V205.4ZM206.195 206.4V310H208.195V206.4H206.195ZM207.195 309H186.195V311H207.195V309ZM187.195 310V197.4H185.195V310H187.195ZM186.195 198.4H222.195V196.4H186.195V198.4ZM221.266 197.77L262.466 301.37L264.325 300.63L223.125 197.03L221.266 197.77ZM263.395 302H263.795V300H263.395V302ZM264.795 301V197.4H262.795V301H264.795ZM328.684 310V311H329.684V310H328.684ZM308.084 310H307.084V311H308.084V310ZM308.084 197.4V196.4H307.084V197.4H308.084ZM328.684 197.4H329.684V196.4H328.684V197.4ZM328.684 244.8H327.684V245.8H328.684V244.8ZM382.084 244.8V245.8H383.084V244.8H382.084ZM382.084 197.4V196.4H381.084V197.4H382.084ZM402.484 197.4H403.484V196.4H402.484V197.4ZM402.484 310V311H403.484V310H402.484ZM382.084 310H381.084V311H382.084V310ZM382.084 260.6H383.084V259.6H382.084V260.6ZM328.684 260.6V259.6H327.684V260.6H328.684ZM328.684 309H308.084V311H328.684V309ZM309.084 310V197.4H307.084V310H309.084ZM308.084 198.4H328.684V196.4H308.084V198.4ZM327.684 197.4V244.8H329.684V197.4H327.684ZM328.684 245.8H382.084V243.8H328.684V245.8ZM383.084 244.8V197.4H381.084V244.8H383.084ZM382.084 198.4H402.484V196.4H382.084V198.4ZM401.484 197.4V310H403.484V197.4H401.484ZM402.484 309H382.084V311H402.484V309ZM383.084 310V260.6H381.084V310H383.084ZM382.084 259.6H328.684V261.6H382.084V259.6ZM327.684 260.6V310H329.684V260.6H327.684ZM444.863 293.6H443.863V294.6H444.863V293.6ZM507.063 293.6H508.063V292.6H507.063V293.6ZM507.063 310V311H508.063V310H507.063ZM424.663 310H423.663V311H424.663V310ZM424.663 197.4V196.4H423.663V197.4H424.663ZM505.063 197.4H506.063V196.4H505.063V197.4ZM505.063 215V216H506.063V215H505.063ZM444.863 215V214H443.863V215H444.863ZM444.863 244.6H443.863V245.6H444.863V244.6ZM491.063 244.6H492.063V243.6H491.063V244.6ZM491.063 261.4V262.4H492.063V261.4H491.063ZM444.863 261.4V260.4H443.863V261.4H444.863ZM444.863 294.6H507.063V292.6H444.863V294.6ZM506.063 293.6V310H508.063V293.6H506.063ZM507.063 309H424.663V311H507.063V309ZM425.663 310V197.4H423.663V310H425.663ZM424.663 198.4H505.063V196.4H424.663V198.4ZM504.063 197.4V215H506.063V197.4H504.063ZM505.063 214H444.863V216H505.063V214ZM443.863 215V244.6H445.863V215H443.863ZM444.863 245.6H491.063V243.6H444.863V245.6ZM490.063 244.6V261.4H492.063V244.6H490.063ZM491.063 260.4H444.863V262.4H491.063V260.4ZM443.863 261.4V293.6H445.863V261.4H443.863ZM576.458 292.6H577.458V291.6H576.458V292.6ZM576.458 310V311H577.458V310H576.458ZM526.258 310H525.258V311H526.258V310ZM526.258 292.6V291.6H525.258V292.6H526.258ZM541.458 292.6V293.6H542.458V292.6H541.458ZM541.458 215H542.458V214H541.458V215ZM526.258 215H525.258V216H526.258V215ZM526.258 197.4V196.4H525.258V197.4H526.258ZM576.458 197.4H577.458V196.4H576.458V197.4ZM576.458 215V216H577.458V215H576.458ZM561.658 215V214H560.658V215H561.658ZM561.658 292.6H560.658V293.6H561.658V292.6ZM575.458 292.6V310H577.458V292.6H575.458ZM576.458 309H526.258V311H576.458V309ZM527.258 310V292.6H525.258V310H527.258ZM526.258 293.6H541.458V291.6H526.258V293.6ZM542.458 292.6V215H540.458V292.6H542.458ZM541.458 214H526.258V216H541.458V214ZM527.258 215V197.4H525.258V215H527.258ZM526.258 198.4H576.458V196.4H526.258V198.4ZM575.458 197.4V215H577.458V197.4H575.458ZM576.458 214H561.658V216H576.458V214ZM560.658 215V292.6H562.658V215H560.658ZM561.658 293.6H576.458V291.6H561.658V293.6ZM603.583 310H602.583V311H603.583V310ZM603.583 197.4V196.4H602.583V197.4H603.583ZM678.983 204.8L678.464 205.655L678.475 205.661L678.983 204.8ZM684.583 252.8L685.369 253.418L685.376 253.409L684.583 252.8ZM675.983 264.4L675.297 265.128L675.319 265.149L675.343 265.168L675.983 264.4ZM682.983 281.6L681.99 281.719L681.99 281.719L682.983 281.6ZM684.383 290.6L683.402 290.796L683.408 290.826L683.416 290.854L684.383 290.6ZM687.983 296L687.459 296.852L687.473 296.86L687.487 296.868L687.983 296ZM696.583 295.4H697.583V293.951L696.228 294.465L696.583 295.4ZM696.583 307.2L697.227 307.965L697.583 307.665V307.2H696.583ZM687.583 311.4L687.394 310.418L687.376 310.421L687.358 310.426L687.583 311.4ZM677.383 310.8L677.044 311.741L677.383 310.8ZM668.983 303.8L668.137 304.333L668.141 304.34L668.146 304.347L668.983 303.8ZM664.583 274.8L663.6 274.982L663.601 274.989L664.583 274.8ZM659.583 266.8L659.009 267.619L659.023 267.629L659.038 267.638L659.583 266.8ZM647.183 263.4L647.088 264.395L647.1 264.397L647.112 264.397L647.183 263.4ZM623.983 263.4L623.929 262.401L622.983 262.453V263.4H623.983ZM623.983 310V311H624.983V310H623.983ZM623.983 248.6H622.983V249.6H623.983V248.6ZM660.383 247.8L660.507 248.792L660.522 248.79L660.537 248.788L660.383 247.8ZM669.783 243.4L669.035 242.736L669.033 242.738L669.783 243.4ZM669.183 219.6L668.476 220.307L668.476 220.307L669.183 219.6ZM657.983 215L657.845 215.99L657.86 215.993L657.875 215.994L657.983 215ZM623.983 214V213H622.983V214H623.983ZM604.583 310V197.4H602.583V310H604.583ZM603.583 198.4H644.983V196.4H603.583V198.4ZM644.983 198.4C659.422 198.4 670.549 200.854 678.464 205.655L679.501 203.945C671.15 198.879 659.61 196.4 644.983 196.4V198.4ZM678.475 205.661C686.212 210.227 690.183 218.366 690.183 230.4H692.183C692.183 217.901 688.021 208.973 679.491 203.939L678.475 205.661ZM690.183 230.4C690.183 239.441 688.023 246.675 683.79 252.191L685.376 253.409C689.943 247.458 692.183 239.759 692.183 230.4H690.183ZM683.796 252.182C679.618 257.5 673.598 260.2 665.583 260.2V262.2C674.101 262.2 680.748 259.3 685.369 253.418L683.796 252.182ZM665.583 262.2C670.119 262.2 673.291 263.239 675.297 265.128L676.668 263.672C674.142 261.294 670.38 260.2 665.583 260.2V262.2ZM675.343 265.168C677.589 267.04 679.148 269.406 680.026 272.291L681.939 271.709C680.951 268.461 679.177 265.76 676.623 263.632L675.343 265.168ZM680.026 272.291C680.942 275.299 681.597 278.441 681.99 281.719L683.976 281.481C683.569 278.092 682.891 274.834 681.939 271.709L680.026 272.291ZM681.99 281.719C682.392 285.073 682.863 288.099 683.402 290.796L685.363 290.404C684.836 287.768 684.373 284.794 683.976 281.481L681.99 281.719ZM683.416 290.854C684.128 293.562 685.449 295.615 687.459 296.852L688.507 295.148C687.05 294.252 685.971 292.704 685.35 290.346L683.416 290.854ZM687.487 296.868C689.772 298.174 693.027 297.818 696.937 296.335L696.228 294.465C692.406 295.915 689.927 295.959 688.479 295.132L687.487 296.868ZM695.583 295.4V307.2H697.583V295.4H695.583ZM695.939 306.435C693.545 308.451 690.704 309.781 687.394 310.418L687.772 312.382C691.395 311.685 694.554 310.216 697.227 307.965L695.939 306.435ZM687.358 310.426C684.078 311.183 680.873 310.994 677.722 309.859L677.044 311.741C680.559 313.006 684.155 313.217 687.808 312.374L687.358 310.426ZM677.722 309.859C674.626 308.745 671.988 306.569 669.82 303.253L668.146 304.347C670.511 307.964 673.473 310.455 677.044 311.741L677.722 309.859ZM669.829 303.267C667.701 299.888 666.583 295.1 666.583 288.8H664.583C664.583 295.3 665.731 300.512 668.137 304.333L669.829 303.267ZM666.583 288.8C666.583 282.906 666.249 278.167 665.565 274.611L663.601 274.989C664.25 278.366 664.583 282.961 664.583 288.8H666.583ZM665.566 274.618C664.858 270.793 663.06 267.867 660.128 265.962L659.038 267.638C661.439 269.199 662.975 271.607 663.6 274.982L665.566 274.618ZM660.156 265.981C657.269 263.96 652.92 262.807 647.254 262.403L647.112 264.397C652.646 264.793 656.563 265.907 659.009 267.619L660.156 265.981ZM647.278 262.405C641.605 261.864 633.814 261.867 623.929 262.401L624.037 264.399C633.885 263.866 641.561 263.869 647.088 264.395L647.278 262.405ZM622.983 263.4V310H624.983V263.4H622.983ZM623.983 309H603.583V311H623.983V309ZM623.983 249.6H644.183V247.6H623.983V249.6ZM644.183 249.6C650.739 249.6 656.184 249.333 660.507 248.792L660.259 246.808C656.049 247.334 650.694 247.6 644.183 247.6V249.6ZM660.537 248.788C664.937 248.1 668.324 246.565 670.533 244.062L669.033 242.738C667.242 244.769 664.362 246.166 660.228 246.812L660.537 248.788ZM670.53 244.064C672.901 241.397 673.983 237.302 673.983 232H671.983C671.983 237.098 670.931 240.603 669.035 242.736L670.53 244.064ZM673.983 232C673.983 226.155 672.697 221.7 669.89 218.893L668.476 220.307C670.736 222.567 671.983 226.379 671.983 232H673.983ZM669.89 218.893C667.143 216.146 663.164 214.554 658.09 214.006L657.875 215.994C662.668 216.512 666.156 217.987 668.476 220.307L669.89 218.893ZM658.12 214.01C653.259 213.334 647.277 213 640.183 213V215C647.222 215 653.106 215.332 657.845 215.99L658.12 214.01ZM640.183 213H623.983V215H640.183V213ZM622.983 214V248.6H624.983V214H622.983ZM721.32 297L720.577 297.669L720.581 297.674L721.32 297ZM713.12 223.2L714.023 223.63L714.025 223.625L713.12 223.2ZM731.72 202.8L732.222 203.665L732.227 203.662L731.72 202.8ZM804.72 211.4L803.972 212.064L803.977 212.068L804.72 211.4ZM812.52 284.8L813.42 285.236L813.423 285.231L812.52 284.8ZM793.72 305.4L794.233 306.259L794.233 306.259L793.72 305.4ZM789.72 282L788.948 281.365L788.941 281.374L789.72 282ZM794.92 233.8L794.006 234.206L794.01 234.214L794.92 233.8ZM782.92 219.8L782.375 220.638L782.383 220.643L782.39 220.648L782.92 219.8ZM735.92 225.4L736.682 226.048L736.682 226.048L735.92 225.4ZM730.52 274L729.599 274.389L729.604 274.401L729.61 274.414L730.52 274ZM742.52 288L741.975 288.838L742.52 288ZM762.92 311.8C744.987 311.8 731.421 306.598 722.059 296.326L720.581 297.674C730.419 308.468 744.587 313.8 762.92 313.8V311.8ZM722.064 296.331C712.668 285.891 707.92 271.818 707.92 254H705.92C705.92 272.182 710.773 286.775 720.577 297.669L722.064 296.331ZM707.92 254C707.92 242.248 709.967 232.135 714.023 223.63L712.218 222.77C708.007 231.599 705.92 242.019 705.92 254H707.92ZM714.025 223.625C718.074 215.006 724.135 208.361 732.222 203.665L731.218 201.935C722.772 206.839 716.433 213.794 712.215 222.775L714.025 223.625ZM732.227 203.662C740.437 198.841 750.651 196.4 762.92 196.4V194.4C750.39 194.4 739.804 196.893 731.214 201.938L732.227 203.662ZM762.92 196.4C781.123 196.4 794.747 201.669 803.972 212.064L805.468 210.736C795.76 199.797 781.518 194.4 762.92 194.4V196.4ZM803.977 212.068C813.238 222.374 817.92 236.313 817.92 254H819.92C819.92 235.953 815.136 221.493 805.464 210.732L803.977 212.068ZM817.92 254C817.92 265.476 815.81 275.591 811.618 284.369L813.423 285.231C817.764 276.142 819.92 265.724 819.92 254H817.92ZM811.62 284.364C807.438 292.991 801.304 299.71 793.208 304.541L794.233 306.259C802.67 301.224 809.07 294.209 813.42 285.236L811.62 284.364ZM793.208 304.541C785.133 309.36 775.055 311.8 762.92 311.8V313.8C775.319 313.8 785.774 311.307 794.233 306.259L793.208 304.541ZM762.72 294.2C774.939 294.2 784.263 290.388 790.5 282.626L788.941 281.374C783.178 288.546 774.501 292.2 762.72 292.2V294.2ZM790.493 282.635C796.796 274.961 799.92 265.393 799.92 254H797.92C797.92 265.007 794.911 274.105 788.948 281.365L790.493 282.635ZM799.92 254C799.92 246.283 798.566 239.404 795.831 233.386L794.01 234.214C796.608 239.929 797.92 246.517 797.92 254H799.92ZM795.834 233.394C793.09 227.22 788.96 222.396 783.45 218.952L782.39 220.648C787.547 223.871 791.417 228.38 794.007 234.206L795.834 233.394ZM783.465 218.962C777.93 215.364 770.994 213.6 762.72 213.6V215.6C770.714 215.6 777.244 217.303 782.375 220.638L783.465 218.962ZM762.72 213.6C750.771 213.6 741.527 217.276 735.159 224.752L736.682 226.048C742.58 219.124 751.203 215.6 762.72 215.6V213.6ZM735.159 224.752C728.836 232.175 725.72 241.958 725.72 254H727.72C727.72 242.309 730.738 233.025 736.682 226.048L735.159 224.752ZM725.72 254C725.72 261.45 727.008 268.251 729.599 274.389L731.442 273.611C728.966 267.749 727.72 261.217 727.72 254H725.72ZM729.61 274.414C732.354 280.452 736.48 285.266 741.975 288.838L743.065 287.162C737.894 283.8 734.02 279.282 731.431 273.586L729.61 274.414ZM741.975 288.838C747.511 292.436 754.447 294.2 762.72 294.2V292.2C754.727 292.2 748.197 290.497 743.065 287.162L741.975 288.838Z" fill="#FF4D00"/>
</svg>
